<svg xmlns:rdf="http://www.w3.org/1999/02/22-rdf-syntax-ns#" style="enable-background:new 0 0 284.929 284.929" xmlns="http://www.w3.org/2000/svg" xml:space="preserve" height="284.93px" viewBox="0 0 284.929 284.929" width="284.93px" version="1.1" y="0px" x="0px" xmlns:cc="http://creativecommons.org/ns#" xmlns:dc="http://purl.org/dc/elements/1.1/"><g fill="#fff"><path fill="#fff" d="m282.08 76.511l-14.274-14.273c-1.902-1.906-4.093-2.856-6.57-2.856-2.471 0-4.661 0.95-6.563 2.856l-112.21 112.2-112.21-112.2c-1.903-1.906-4.093-2.856-6.567-2.856-2.475 0-4.665 0.95-6.567 2.856l-14.27 14.275c-1.906 1.902-2.856 4.092-2.856 6.567 0 2.473 0.953 4.663 2.856 6.565l133.04 133.05c1.902 1.903 4.093 2.854 6.567 2.854s4.661-0.951 6.562-2.854l133.05-133.05c1.902-1.903 2.847-4.093 2.847-6.565 0-2.478-0.95-4.668-2.85-6.574z"/></g></svg>
