<?xml version="1.0" encoding="UTF-8" standalone="no"?>
<!-- Created with Inkscape (http://www.inkscape.org/) -->

<svg
   xmlns:dc="http://purl.org/dc/elements/1.1/"
   xmlns:cc="http://creativecommons.org/ns#"
   xmlns:rdf="http://www.w3.org/1999/02/22-rdf-syntax-ns#"
   xmlns:svg="http://www.w3.org/2000/svg"
   xmlns="http://www.w3.org/2000/svg"
   xmlns:sodipodi="http://sodipodi.sourceforge.net/DTD/sodipodi-0.dtd"
   xmlns:inkscape="http://www.inkscape.org/namespaces/inkscape"
   width="139.02432"
   height="62.055897"
   viewBox="0 0 139.02432 62.055896"
   id="svg2"
   version="1.1"
   inkscape:version="0.91 r13725"
   sodipodi:docname="logo_top_v2.svg">
  <defs
     id="defs4" />
  <sodipodi:namedview
     id="base"
     pagecolor="#ffffff"
     bordercolor="#666666"
     borderopacity="1.0"
     inkscape:pageopacity="0.0"
     inkscape:pageshadow="2"
     inkscape:zoom="2.8"
     inkscape:cx="-8.988242"
     inkscape:cy="121.4877"
     inkscape:document-units="px"
     inkscape:current-layer="layer1"
     showgrid="false"
     units="px"
     borderlayer="true"
     showborder="true"
     inkscape:window-width="1920"
     inkscape:window-height="1026"
     inkscape:window-x="0"
     inkscape:window-y="0"
     inkscape:window-maximized="1"
     fit-margin-top="0"
     fit-margin-left="0"
     fit-margin-right="0"
     fit-margin-bottom="0" />
  <metadata
     id="metadata7">
    <rdf:RDF>
      <cc:Work
         rdf:about="">
        <dc:format>image/svg+xml</dc:format>
        <dc:type
           rdf:resource="http://purl.org/dc/dcmitype/StillImage" />
        <dc:title></dc:title>
      </cc:Work>
    </rdf:RDF>
  </metadata>
  <g
     inkscape:label="Layer 1"
     inkscape:groupmode="layer"
     id="layer1"
     transform="translate(-10.605602,-974.11167)">
    <g
       id="g3475"
       transform="translate(2.0572545,92.51773)">
      <path
         style="fill-opacity:1"
         d="m 30.853922,942.59295 c -2.974009,-0.94846 -3.693221,-1.60101 -3.475614,-3.15344 0.197275,-1.40738 -0.364041,-2.11773 -1.997352,-2.52766 -3.506067,-0.87997 -4.795261,-7.53205 -1.653016,-8.52936 2.744172,-0.87097 6.701333,-5.2586 8.263199,-9.16208 0.775566,-1.93833 1.680719,-3.51695 2.011452,-3.50804 0.75632,0.0204 4.820081,4.2677 4.820081,5.03781 0,0.31405 -0.586075,0.57099 -1.30239,0.57099 -0.716315,0 -2.183344,0.73828 -3.260065,1.64063 -1.629098,1.36526 -2.014297,2.9306 -2.295024,9.32632 -0.313139,7.13415 -0.21749,7.62155 1.332852,6.79183 2.588893,-1.38553 2.820922,-2.30875 1.764732,-7.02169 -1.155483,-5.15599 -0.484893,-6.36898 4.415029,-7.9861 4.237358,-1.39846 5.248863,-0.13145 4.529106,5.67315 -0.446485,3.60076 -0.219872,4.43289 1.576141,5.78762 1.997255,1.50653 2.020173,1.66778 0.479064,3.37069 -1.777052,1.96362 -1.296796,3.04255 1.354305,3.04255 1.288676,0 1.71875,-0.71112 1.71875,-2.84192 0,-3.15299 2.066473,-4.56931 4.147225,-2.84244 0.802607,0.6661 1.526131,0.73957 1.866103,0.18949 0.767356,-1.24161 -0.356311,-3.87701 -1.660505,-3.89449 -3.20328,-0.0429 -3.539781,-1.44858 -1.904863,-7.95722 1.478005,-5.88397 3.840521,-9.84092 5.875565,-9.84092 0.833051,0 3.173547,8.46878 4.312784,15.60524 0.741282,4.64358 -0.818327,6.49912 -8.706395,10.35839 -5.914783,2.89383 -16.268583,3.76584 -22.211164,1.87065 z m 54.003182,-4.50871 c -2.453948,-2.63401 -3.230352,-6.71598 -2.740533,-14.40845 0.532115,-8.3567 4.221506,-12.28629 9.598176,-10.22307 2.616935,1.00421 1.612397,2.42087 -1.268015,1.78822 -2.260611,-0.49651 -3.023301,-0.18853 -4.278992,1.7279 -3.392107,5.17701 -2.318826,19.34921 1.521344,20.08867 1.892489,0.36442 2.60033,-1.42013 3.32916,-8.3932 0.499014,-4.77431 0.366242,-5.46814 -1.046394,-5.46814 -0.88986,0 -1.442147,-0.52734 -1.227303,-1.17187 0.214844,-0.64454 1.199219,-1.17188 2.1875,-1.17188 1.56052,0 1.830243,0.80155 2.050557,6.09375 0.419777,10.08353 -3.764462,15.81909 -8.1255,11.13807 z m 34.254196,1.26362 c -0.81329,-1.31594 -1.79508,-20.62725 -1.17442,-23.10021 0.48052,-1.9145 1.18432,-2.42648 3.33561,-2.42648 5.66186,0 8.84809,9.21917 4.8799,14.11967 -1.44005,1.77838 -1.55883,2.60141 -0.70312,4.87169 0.92682,2.45896 0.76696,2.95783 -1.60075,4.99521 -2.74161,2.35913 -3.98185,2.76234 -4.73722,1.54012 z m 3.61762,-4.90169 c 0,-1.20312 -0.52734,-2.36328 -1.17187,-2.57812 -0.77303,-0.25768 -1.17188,0.61979 -1.17188,2.57812 0,1.95833 0.39885,2.8358 1.17188,2.57813 0.64453,-0.21485 1.17187,-1.37501 1.17187,-2.57813 z m 1.40625,-7.5 c 1.04167,-1.04167 1.875,-3.125 1.875,-4.6875 0,-2.71581 -2.74763,-6.5625 -4.6875,-6.5625 -0.53571,0 -0.9375,2.8125 -0.9375,6.5625 0,6.94882 0.66163,7.77587 3.75,4.6875 z m 6.79688,12.42554 c -0.84928,-0.28575 -1.17188,-3.44862 -1.17188,-11.48949 0,-6.10236 0.25607,-11.76251 0.56906,-12.57812 0.31297,-0.81561 1.5786,-1.48293 2.8125,-1.48293 2.72053,0 2.9721,1.46577 0.36844,2.14664 -1.6641,0.43517 -1.875,1.27876 -1.875,7.5 0,6.33315 0.19007,7.05938 1.96933,7.52467 2.1105,0.55191 1.62774,2.51619 -0.61841,2.51619 -0.74301,0 -1.35092,0.84375 -1.35092,1.875 0,1.03125 0.60791,1.875 1.35092,1.875 0.74301,0 1.58201,0.37391 1.86446,0.83092 0.59244,0.95858 -2.18203,1.86638 -3.9185,1.28212 z M 95.535535,936.0868 c -0.307779,-1.67579 -0.432364,-7.26074 -0.276856,-12.41102 0.247593,-8.20002 0.495918,-9.40495 1.997515,-9.6924 3.329936,-0.63744 6.035976,0.7661 7.524366,3.90265 1.64287,3.46211 1.12836,6.7659 -1.83493,11.78235 -1.46506,2.48015 -1.50453,3.10758 -0.34164,5.43155 0.72313,1.44512 1.46893,2.9439 1.65735,3.33062 0.18842,0.38671 -0.25767,0.70312 -0.99131,0.70312 -0.73364,0 -1.81444,-1.05469 -2.40178,-2.34375 -0.58733,-1.28906 -1.4988,-2.34375 -2.025478,-2.34375 -0.526678,0 -0.9576,1.05469 -0.9576,2.34375 0,3.38771 -1.69125,2.8816 -2.349637,-0.70312 z m 7.635085,-12.80929 c 0.6405,-3.38407 -0.1624,-5.40805 -2.79667,-7.04994 -2.451175,-1.52777 -2.997222,0.23392 -2.638384,8.51223 l 0.319143,7.36262 2.255141,-2.8125 c 1.24032,-1.54687 2.52767,-4.25246 2.86077,-6.01241 z m 3.94461,15.39871 c -0.89954,-0.89952 2.22374,-23.47057 3.42135,-24.72521 1.60394,-1.68033 1.866,-0.7997 4.0764,13.69829 1.43732,9.42729 1.52336,11.48437 0.48032,11.48437 -0.78681,0 -1.27063,-1.07092 -1.27063,-2.8125 0,-2.375 -0.36458,-2.8125 -2.34375,-2.8125 -1.97916,0 -2.34375,0.4375 -2.34375,2.8125 0,2.55879 -0.83854,3.53645 -2.01994,2.35505 z m 5.41838,-10.90974 c -0.32227,-1.61133 -0.61559,-3.82617 -0.65183,-4.92187 -0.0643,-1.94405 -0.0853,-1.94689 -0.87161,-0.11719 -1.44437,3.36123 -1.10558,7.96875 0.58594,7.96875 1.20625,0 1.40144,-0.60998 0.9375,-2.92969 z m 24.72656,-1.28906 0,-12.65625 3.11784,0 c 4.82058,0 7.57598,3.46787 6.9771,8.78118 -0.25868,2.29491 -1.35223,5.41109 -2.43012,6.92485 -1.9573,2.74877 -1.95745,2.75666 -0.12299,6.17938 1.54941,2.89085 1.61335,3.42709 0.40864,3.42709 -0.78549,0 -1.90871,-1.05469 -2.49605,-2.34375 -0.58734,-1.28906 -1.42204,-2.34375 -1.85491,-2.34375 -0.43285,0 -0.78701,1.05469 -0.78701,2.34375 0,1.45833 -0.53125,2.34375 -1.40625,2.34375 -1.18055,0 -1.40625,-2.03125 -1.40625,-12.65625 z m 6.38987,0.57548 c 1.1262,-2.0038 2.04763,-4.44118 2.04763,-5.4164 0,-2.68166 -2.6722,-5.94033 -4.87124,-5.94033 -1.80538,0 -1.9079,0.37069 -1.36124,4.92188 0.32515,2.70703 0.59485,6.08203 0.59934,7.5 0.0113,3.56925 1.17516,3.22349 3.58551,-1.06515 z m -127.637836,5.80285 c -3.423168,-3.94637 -6.1152519,-9.5618 -7.0929686,-14.79526 -0.6743644,-3.6097 -0.5163836,-4.38929 1.2042486,-5.94262 2.685327,-2.42424 6.199188,-3.23457 6.199188,-1.4296 0,0.75848 0.900698,3.47279 2.001552,6.03179 1.779065,4.13555 1.909327,5.461 1.171875,11.92416 l -0.829677,7.27141 -2.654218,-3.05988 z m 48.770677,-3.8002 c -0.220245,-0.38672 -0.915402,-2.89866 -1.544792,-5.5821 -0.983836,-4.19463 -0.935428,-5.17723 0.345119,-7.00547 2.831172,-4.04207 0.887587,-14.45529 -3.02898,-16.22849 -3.87438,-1.7541 -1.695434,-7.04332 2.901566,-7.04332 0.725388,0 2.454114,2.08579 3.841615,4.63508 4.533607,8.32973 4.644711,20.52835 0.263042,28.88055 -1.657263,3.15902 -2.100327,3.53288 -2.77757,2.34375 z m -42.56323,-9.74373 -1.094521,-5.75935 3.692521,-4.37911 c 2.030887,-2.40851 3.692521,-5.10068 3.692521,-5.9826 0,-0.88192 1.05145,-2.00326 2.336556,-2.49186 2.584039,-0.98244 10.788444,-8.20483 10.788444,-9.49713 0,-1.79024 -2.610339,-0.64719 -5.625,2.46315 -3.257891,3.36129 -5.625,4.22923 -5.625,2.0625 0,-2.55333 -1.871042,-3.24896 -5.447946,-2.02549 -4.076895,1.3945 -5.375517,4.916 -2.126218,5.76571 1.07204,0.28034 1.949164,1.09332 1.949164,1.80662 0,2.06457 -1.098305,1.5343 -6.09375,-2.94211 l -4.6875,-4.20046 4.40459,-4.0917 c 6.875824,-6.38739 11.998464,-8.45674 20.90791,-8.44601 4.480171,0.005 8.7002,0.54997 10.480798,1.35249 l 2.980797,1.34345 -1.428725,3.75 c -2.171849,5.70049 -2.524602,8.75606 -1.444619,12.51342 2.356656,8.19904 2.81999,12.55626 1.634909,15.37474 -0.971445,2.31038 -1.248315,2.48727 -1.629809,1.04126 -0.25276,-0.95805 -3.043526,-3.21848 -6.201702,-5.02317 -4.234708,-2.41985 -5.749458,-3.81742 -5.770019,-5.32366 -0.03527,-2.58354 -2.465282,-5.07393 -4.27376,-4.37995 -1.651541,0.63375 -1.808105,4.35464 -0.285798,6.79224 0.893154,1.43016 0.721514,2.22336 -0.9375,4.33246 -1.116952,1.41997 -2.030822,3.05976 -2.030822,3.64396 0,1.7196 -4.651495,8.05995 -5.913049,8.05995 -0.6745,0 -1.614921,-2.40456 -2.252472,-5.75935 z m 22.768452,1.8344 c -0.211104,-0.67722 -0.661633,-2.48547 -1.001175,-4.01834 -0.613554,-2.76992 -0.605393,-2.77623 1.327947,-1.02658 2.066263,1.86994 2.568241,4.72421 1.001175,5.69271 -0.519266,0.32093 -1.116842,0.0294 -1.327947,-0.64779 z m -6.48888,-4.35199 c -1.914303,-2.11528 -1.96574,-2.97306 -0.178286,-2.97306 1.199881,0 3.314235,2.65208 3.314235,4.15712 0,1.09062 -1.636635,0.47266 -3.135949,-1.18406 z M 59.69191,912.4159 c -0.964826,-1.72405 -0.493616,-5.82995 0.757833,-6.60339 1.175638,-0.72658 2.204484,6.11461 1.087549,7.23154 -0.652099,0.6521 -1.241121,0.4516 -1.845382,-0.62815 z m 24.715871,-4.09116 c -0.869272,-0.96053 -1.832036,-3.8703 -2.139476,-6.46614 -0.778547,-6.57361 0.475073,-18.97493 1.91813,-18.97493 0.82617,0 0.985713,1.41342 0.577829,5.11908 -0.685131,6.22445 -0.44186,16.85164 0.417589,18.24226 1.0091,1.63276 3.15338,1.16675 3.784752,-0.82253 0.320532,-1.00991 0.589692,-6.28335 0.598133,-11.71875 0.01663,-10.70972 1.20468,-13.15569 2.181804,-4.49193 0.815298,7.2289 -0.795174,18.12676 -2.906944,19.67093 -2.137478,1.56296 -2.560601,1.50969 -4.431817,-0.55799 z m 10.330767,0.75693 c -0.365208,-0.80204 -0.544901,-6.70829 -0.39932,-13.125 l 0.264694,-11.66675 3.260447,0.16146 c 6.645621,0.3291 8.672071,8.42409 3.816051,15.24375 l -2.079389,2.92022 1.907489,3.23294 c 2.42206,4.1051 0.95629,5.2087 -1.791932,1.34917 -2.19435,-3.08168 -3.31006,-2.79821 -3.930838,0.99871 -0.292075,1.78646 -0.541076,1.99701 -1.047202,0.8855 z m 4.96544,-10.1816 c 3.269142,-4.59108 3.464852,-8.00546 0.621832,-10.84848 -1.351001,-1.351 -2.877898,-2.19584 -3.393101,-1.87743 -1.114975,0.68909 -1.064611,15.45951 0.05271,15.45951 0.424632,0 1.647985,-1.23012 2.718554,-2.7336 z m 8.060542,10.29122 c -0.29908,-0.48394 0.0941,-1.23686 0.87372,-1.67316 1.24757,-0.69817 1.18982,-1.5762 -0.48165,-7.32325 -2.2286,-7.66263 -2.53152,-12.99729 -0.85288,-15.01993 1.29276,-1.55768 6.30277,-1.51134 5.67213,0.0525 -0.20794,0.51562 -1.14307,0.8079 -2.07806,0.6495 -2.85738,-0.48408 -3.22771,3.99019 -0.96643,11.6763 2.39976,8.15674 2.53475,11.1809 0.53338,11.94889 -1.93324,0.74186 -2.05852,0.72744 -2.70021,-0.31082 z m 9.16367,0.14332 c -1.99578,-1.26902 -3.10572,-5.81749 -3.09521,-12.68385 0.0132,-8.63086 0.87165,-13.76709 2.30093,-13.76709 0.8495,0 0.91917,1.44834 0.28189,5.85938 -0.99701,6.90082 -0.39152,16.41155 1.14091,17.92093 0.80732,0.79518 1.41849,0.60439 2.42281,-0.75637 0.97077,-1.31528 1.34314,-4.62917 1.34314,-11.95312 0,-5.57333 0.36739,-10.13332 0.81641,-10.13332 1.03327,0 2.1867,9.88257 1.58786,13.60461 -0.24792,1.5409 -0.69595,4.37011 -0.9956,6.28713 -0.5018,3.21022 -2.52625,6.37837 -4.05376,6.3439 -0.34988,-0.008 -1.13711,-0.33288 -1.74938,-0.7222 z m 9.70698,0.11156 c -0.78914,-0.78913 -0.8232,-20.64969 -0.0421,-24.5551 1.2279,-6.13948 1.89168,-1.6062 1.48419,10.13625 -0.41567,11.97749 -0.38316,12.23135 1.56671,12.23135 1.14495,0 1.99119,0.59765 1.99119,1.40625 0,1.41896 -3.77279,2.00846 -4.99999,0.78125 z m 7.42017,-0.18884 c -0.33218,-0.53748 0.0421,-6.52061 0.83168,-13.29586 0.7896,-6.77526 1.43564,-12.48946 1.43564,-12.69822 0,-0.20877 0.60291,-0.37958 1.33978,-0.37958 1.36788,0 2.33618,3.62462 4.25762,15.9375 1.66991,10.70109 0.97834,14.41091 -1.34598,7.22017 -1.24292,-3.84523 -3.67845,-3.95776 -4.08918,-0.18892 -0.34821,3.19506 -1.53303,4.85553 -2.42956,3.40491 z m 5.43424,-12.54553 c -0.90109,-5.93204 -2.1666,-7.59328 -2.20091,-2.88918 -0.0156,2.14923 -0.28458,4.57501 -0.59756,5.39062 -0.40856,1.0647 -0.008,1.48293 1.41733,1.48293 1.80685,0 1.93168,-0.36009 1.38114,-3.98437 z m -85.652562,10.3125 c -0.0079,-1.41797 0.407519,-2.57813 0.923144,-2.57813 1.185383,0 1.185383,1.91575 0,3.75 -0.708174,1.09582 -0.911958,0.83713 -0.923144,-1.17187 z m -45.0143561,0.006 c 0,-1.7901 1.9228261,-7.50966 2.8818441,-8.57222 0.414658,-0.45943 2.188321,0.69205 3.960695,2.57131 3.401708,3.60686 3.176767,4.62564 -1.217539,5.51434 -1.289063,0.2607 -3.082031,0.78433 -3.984375,1.16361 -1.1275814,0.47396 -1.6406251,0.26224 -1.6406251,-0.67704 z m 42.9580661,-8.66969 c -0.77412,-1.69901 -0.785937,-2.91296 -0.04335,-4.45313 1.004805,-2.08403 1.021882,-2.07677 1.084334,0.46075 0.0349,1.41796 0.485325,2.57812 1.00095,2.57812 0.515625,0 0.9375,0.84375 0.9375,1.875 0,2.60755 -1.701299,2.34446 -2.979434,-0.46074 z m 2.041934,-7.72212 c 0,-0.49584 0.783548,-1.61064 1.741218,-2.47732 1.635926,-1.48049 1.876862,-1.46282 3.984375,0.29226 2.103196,1.75148 2.126166,1.87078 0.368157,1.91203 -1.03125,0.0242 -2.824219,0.29837 -3.984375,0.60928 -1.160156,0.31091 -2.109375,0.1596 -2.109375,-0.33625 z"
         id="path3489"
         inkscape:connector-curvature="0" />
      <path
         style="fill:#008080;fill-opacity:1"
         d="m 33.417646,942.82738 c -5.214597,-1.02805 -5.844974,-1.48294 -5.844974,-4.21779 0,-1.78386 -0.490918,-2.28842 -2.226563,-2.28842 -1.759726,0 -2.356672,-0.63883 -2.84712,-3.04687 -0.470294,-2.30911 -0.241252,-3.27389 0.945905,-3.98438 4.208184,-2.51853 7.400274,-5.95685 9.110027,-9.81278 1.179942,-2.66107 2.054142,-3.72403 2.338526,-2.84347 0.24979,0.77344 1.025114,1.74362 1.722943,2.15596 1.664358,0.98345 1.644032,2.61669 -0.0246,1.97638 -0.721148,-0.27673 -2.213069,0.66954 -3.372106,2.1388 -1.80876,2.29288 -1.999842,3.33664 -1.471315,8.03681 0.490773,4.36443 0.332821,5.50708 -0.822551,5.95044 -1.227078,0.47087 -1.243361,0.73533 -0.114771,1.86392 1.819043,1.81904 2.984099,1.64885 4.610766,-0.67354 1.008246,-1.43948 1.152391,-2.6215 0.52191,-4.27979 -0.479077,-1.26007 -0.871051,-3.51227 -0.871051,-5.00488 0,-2.35461 0.497174,-2.86279 3.756044,-3.83917 2.065824,-0.61894 4.069731,-0.8114 4.453125,-0.42768 0.383394,0.38371 0.598671,2.94012 0.478391,5.68092 -0.161839,3.68783 0.142798,5.12198 1.171875,5.51687 1.865056,0.71569 1.756331,2.44917 -0.25006,3.98692 -1.32096,1.01241 -1.396977,1.41813 -0.390144,2.08226 2.8851,1.90309 -3.416859,2.49971 -10.874257,1.02949 z m 16.477095,-4.16246 c 0.433928,-3.71692 0.756338,-3.89683 3.13144,-1.74739 1.520271,1.37583 1.752646,1.38338 2.255385,0.0733 0.749836,-1.95404 -1.157463,-5.35712 -3.002464,-5.35712 -1.1973,0 -1.355048,-0.66691 -0.831563,-3.51562 0.355321,-1.9336 1.002116,-3.88344 1.437324,-4.33299 0.435208,-0.44955 0.566931,-1.40203 0.292719,-2.11662 -0.624424,-1.62722 2.138924,-5.97227 3.798219,-5.97227 0.739077,0 1.71726,2.1644 2.436252,5.39063 0.660742,2.96484 1.549387,6.80344 1.974767,8.53022 0.495523,2.01151 0.395661,3.7445 -0.277922,4.82308 -0.919529,1.47239 -9.864579,7.50607 -11.127913,7.50607 -0.258122,0 -0.296931,-1.47656 -0.08624,-3.28125 z m 36.418214,0.34278 c -5.965886,-3.46197 -5.67012,-21.78256 0.411488,-25.48875 1.698994,-1.03538 6.473229,-0.12516 6.473229,1.23414 0,0.49291 -1.169851,0.66224 -2.599668,0.37627 -3.935081,-0.78701 -5.947062,2.05028 -6.520599,9.19535 -0.563058,7.01451 1.468875,13.28114 4.139595,12.76681 1.926423,-0.37099 2.88491,-3.3755 3.012222,-9.44222 0.07296,-3.47685 -0.231976,-4.45313 -1.390925,-4.45313 -0.816407,0 -1.308594,-0.52734 -1.09375,-1.17187 0.214844,-0.64454 1.199219,-1.17188 2.1875,-1.17188 3.944281,0 2.107535,17.77225 -1.953125,18.89832 -0.515625,0.14299 -1.71531,-0.19138 -2.665967,-0.74304 z m 9.459712,-8.5459 c -0.286165,-4.76954 -0.455262,-10.35938 -0.375772,-12.42188 0.130526,-3.38672 0.40374,-3.77965 2.820293,-4.05607 6.570892,-0.75161 9.526662,8.11713 4.950552,14.85407 -2.22706,3.27867 -2.11675,6.43214 0.27673,7.9114 1.28671,0.79522 1.30143,2.38435 0.0221,2.38435 -0.53961,0 -1.69977,-1.26296 -2.57813,-2.80657 -2.031073,-3.56933 -3.003298,-3.57125 -3.003298,-0.006 0,1.54688 -0.358247,2.8125 -0.796106,2.8125 -0.43785,0 -1.030238,-3.90234 -1.316399,-8.67187 z m 6.393073,-3.63517 c 2.76931,-5.35526 0.93068,-11.13046 -3.543581,-11.13046 -1.818534,0 -1.903415,0.36524 -1.339293,5.76252 0.331265,3.16939 0.602306,6.80698 0.602306,8.08354 0,2.00027 0.202875,2.15265 1.468069,1.10264 0.807429,-0.67011 2.073059,-2.38832 2.812499,-3.81824 z m 5.09443,9.99689 c 0,-1.27058 0.4767,-6.50236 1.05934,-11.62619 1.75034,-15.39278 3.50735,-15.37817 5.85412,0.0487 0.83822,5.51024 1.52404,10.88915 1.52404,11.95313 0,3.14401 -1.7301,2.20522 -2.04997,-1.11236 -0.22407,-2.32395 -0.73866,-3.04688 -2.16878,-3.04688 -1.43012,0 -1.9447,0.72293 -2.16877,3.04688 -0.34149,3.54174 -2.04998,4.15574 -2.04998,0.73672 z m 5.15796,-6.1301 c 0.84944,-1.37443 -0.53203,-9.44485 -1.51297,-8.8386 -1.1171,0.69041 -1.07092,9.77885 0.0497,9.77885 0.48519,0 1.14368,-0.42311 1.46329,-0.94025 z m 5.9973,3.51838 c -0.0521,-2.70704 -0.20867,-7.20366 -0.3479,-9.99251 -0.13923,-2.78884 0.0373,-6.16384 0.39224,-7.5 0.88711,-3.33934 4.08337,-3.63788 7.06168,-0.65957 2.94625,2.94625 3.23016,8.67122 0.59161,11.92969 -1.35409,1.67224 -1.56935,2.72172 -0.91259,4.44915 1.16141,3.05475 -1.2137,6.69511 -4.36816,6.69511 -2.16428,0 -2.32858,-0.33459 -2.41688,-4.92187 z m 4.70538,1.31549 c 0.63752,-1.19122 0.58931,-2.06867 -0.15451,-2.8125 -1.77995,-1.77994 -2.58113,-1.24253 -2.58113,1.73138 0,3.16226 1.33871,3.69131 2.73564,1.08112 z m 1.42996,-8.78972 c 0.80266,-1.14598 1.4594,-3.16148 1.4594,-4.4789 0,-2.88174 -2.39601,-6.5625 -4.2719,-6.5625 -1.05027,0 -1.3531,1.46876 -1.3531,6.5625 0,7.12987 1.31696,8.54589 4.1656,4.4789 z m 5.2222,1.84923 c 0.0157,-12.96302 0.42811,-14.76563 3.37779,-14.76563 1.22892,0 2.23441,0.42188 2.23441,0.9375 0,0.51563 -0.84375,0.9375 -1.875,0.9375 -1.72794,0 -1.875,0.625 -1.875,7.96875 0,6.95343 0.20904,7.97238 1.64063,7.99726 1.5625,0.0272 1.5625,0.074 0,0.98408 -1.9749,1.15027 -2.19236,4.61241 -0.28971,4.61241 0.74301,0 1.61166,0.42188 1.93033,0.9375 0.33805,0.54696 -0.61526,0.9375 -2.28842,0.9375 l -2.86783,0 0.0129,-10.54687 z m 8.12031,9.85904 c -0.23867,-0.39513 -0.50001,-6.09733 -0.58076,-12.67154 l -0.1468,-11.95313 2.90234,0 c 3.91461,0 7.50461,3.64013 7.50461,7.6094 0,1.65391 -1.08438,4.85746 -2.40972,7.119 l -2.40972,4.11187 1.90936,3.23612 c 1.29628,2.19703 1.53287,3.23611 0.73684,3.23611 -0.64486,0 -1.95342,-1.322 -2.90788,-2.93777 -1.4806,-2.50646 -1.86182,-2.71183 -2.59662,-1.39883 -0.47368,0.84642 -0.62059,1.92833 -0.32645,2.40425 0.29413,0.47591 0.13517,1.11226 -0.35324,1.41411 -0.48841,0.30185 -1.08329,0.22554 -1.32196,-0.16959 z m 7.43691,-15.01943 c 0.69552,-3.67324 -1.58306,-7.73024 -4.34163,-7.73024 -1.66758,0 -1.85339,0.65021 -1.85339,6.48582 0,3.56721 0.28173,7.21999 0.62606,8.1173 0.54477,1.41965 0.90943,1.27746 2.80865,-1.0952 1.20043,-1.49967 2.44257,-4.09963 2.76031,-5.77768 z m -130.07296,7.718 c -3.522512,-4.82212 -6.4345581,-11.9916 -6.4345581,-15.84193 0,-2.33633 3.4404691,-5.23131 6.2170151,-5.23131 0.877517,0 1.355566,0.23992 1.062331,0.53315 -0.293234,0.29324 0.471737,3.00621 1.699936,6.02882 1.959483,4.82232 2.149245,6.33389 1.548778,12.33696 l -0.68431,6.8413 -3.409192,-4.66699 z m 48.685518,-6.78738 c -0.81251,-3.22551 -1.11307,-6.08968 -0.66791,-6.3648 0.445159,-0.27512 1.240438,-2.10105 1.767285,-4.05761 1.241282,-4.60977 -1.406012,-13.23173 -4.492819,-14.63263 -2.716616,-1.2329 -2.573127,-2.90021 0.418275,-4.86025 2.348218,-1.53861 2.519531,-1.52916 3.855577,0.21276 6.010427,7.83632 7.293195,20.99468 2.964945,30.41377 l -2.368061,5.15335 -1.477292,-5.86459 z m -41.057576,-2.42795 c 0,-1.81409 -0.439577,-4.45452 -0.976838,-5.86762 -0.812545,-2.13716 -0.657969,-2.89639 0.919065,-4.51416 4.087535,-4.19313 6.620273,-7.42287 6.620273,-8.44214 0,-0.58698 1.371094,-1.84979 3.046875,-2.80627 3.568213,-2.0366 8.911311,-6.86786 10.188057,-9.21209 1.695673,-3.11343 -2.490147,-1.81917 -6.770476,2.09343 l -4.085008,3.73407 -1.219665,-2.32782 c -1.179038,-2.25027 -3.854681,-3.07041 -5.300408,-1.62468 -0.386719,0.38671 -1.089844,0.75585 -1.5625,0.82031 -0.472656,0.0644 -1.28125,0.16992 -1.796875,0.23437 -0.515625,0.0645 -0.9375,1.33361 -0.9375,2.82035 0,1.98829 0.557835,2.87272 2.109375,3.34434 1.232306,0.37459 1.633304,0.83861 0.96441,1.116 -0.629731,0.26115 -3.026262,-1.09776 -5.325625,-3.01979 -4.028645,-3.36753 -4.125064,-3.56831 -2.651659,-5.52164 4.54027,-6.01918 14.612181,-10.8395 22.854479,-10.93795 5.234607,-0.0625 12.986376,1.57456 12.986713,2.74264 1.06e-4,0.36684 -0.928673,3.25724 -2.063953,6.42309 -1.983007,5.52984 -2.00219,5.89835 -0.488005,9.375 1.637892,3.76068 2.809154,13.57605 1.90209,15.93983 -0.413028,1.07633 -0.804133,0.95289 -1.889218,-0.59629 -0.752598,-1.07448 -3.562696,-3.19201 -6.244663,-4.70562 -3.374838,-1.90464 -4.923928,-3.38427 -5.030977,-4.80539 -0.222647,-2.95571 -2.468254,-4.87169 -4.830929,-4.12181 -2.345323,0.74438 -2.617766,3.86103 -0.590517,6.75534 1.146809,1.63729 1.172637,2.16269 0.148117,3.01296 -0.682498,0.56643 -1.430082,0.84069 -1.661298,0.60947 -0.231215,-0.23121 -0.476749,0.29979 -0.54563,1.18001 -0.222226,2.83979 -2.114474,6.88476 -2.972607,6.3544 -0.458373,-0.28329 -0.77557,0.21867 -0.70488,1.11546 0.07069,0.8968 -0.398817,1.52507 -1.043348,1.39617 -0.644531,-0.12891 -1.066406,0.24023 -0.9375,0.82031 0.128906,0.58008 -0.292969,1.24804 -0.9375,1.48437 -0.796864,0.29219 -1.171875,-0.62581 -1.171875,-2.86865 z m 18.496094,-17.11182 c -0.311524,-0.31152 -1.120118,-0.34483 -1.796875,-0.074 -0.747875,0.29927 -0.525728,0.52142 0.566406,0.5664 0.988281,0.0407 1.541992,-0.18087 1.230469,-0.49239 z m -2.324219,-19.74198 c -0.644531,-0.26007 -1.699219,-0.26007 -2.34375,0 -0.644531,0.26008 -0.117188,0.47286 1.171875,0.47286 1.289062,0 1.816406,-0.21278 1.171875,-0.47286 z m 6.041822,35.64709 c -0.358158,-0.35816 -0.651197,-1.72598 -0.651197,-3.03959 0,-2.19478 0.122265,-2.26613 1.508204,-0.88019 1.045124,1.04512 1.245067,1.9784 0.651197,3.03959 -0.471355,0.84226 -1.150045,1.23835 -1.508204,0.88019 z m -6.276197,-4.55745 c -0.662579,-0.79836 -0.993751,-1.6625 -0.735939,-1.92031 0.257813,-0.25781 1.01086,0.18445 1.673439,0.98281 0.662579,0.79836 0.993751,1.6625 0.735938,1.92031 -0.257812,0.25781 -1.010859,-0.18445 -1.673438,-0.98281 z m 21.163251,-3.99977 c -0.365532,-1.15169 -0.365532,-3.03627 0,-4.18796 l 0.664603,-2.09398 0.774613,2.09398 c 0.426036,1.15169 0.426036,3.03627 0,4.18796 l -0.774613,2.09398 -0.664603,-2.09398 z m 24.092736,-4.6376 c -1.344232,-2.05701 -1.649961,-4.4816 -1.598074,-12.67354 0.04341,-6.85213 0.447424,-10.50351 1.248618,-11.2845 0.953334,-0.9293 1.056106,0.69708 0.526691,8.3349 -0.451036,6.50707 -0.304984,10.55842 0.464713,12.89063 2.519743,7.63489 5.037716,2.25513 5.099704,-10.89574 0.02613,-5.54297 0.316764,-10.07813 0.645856,-10.07813 0.984874,0 1.825063,9.77085 1.260864,14.66301 -0.810342,7.02645 -1.228102,8.5268 -2.816481,10.11518 -2.048855,2.04886 -2.918641,1.85592 -4.831891,-1.07181 z m 10.759638,2.00822 c -0.386719,-0.39303 -0.703125,-6.10023 -0.703125,-12.68267 0,-10.90153 0.157491,-12.01806 1.767273,-12.52899 3.937293,-1.24965 8.545225,3.11075 8.545225,8.08618 0,1.06611 -1.11333,3.98394 -2.47406,6.48406 -2.352076,4.32154 -2.398304,4.6613 -0.9375,6.89076 1.78693,2.7272 1.89436,3.34856 0.57896,3.34856 -0.52668,0 -1.43814,-1.05469 -2.025476,-2.34375 -1.470131,-3.22658 -3.400313,-2.93953 -3.754399,0.55835 -0.161575,1.59615 -0.610179,2.58052 -0.996898,2.1875 z m 5.625003,-11.62864 c 2.62089,-3.86819 2.69129,-7.4828 0.19785,-10.15918 -3.724278,-3.99755 -4.650978,-2.80304 -4.650978,5.99509 0,8.91033 0.757425,9.61859 4.453128,4.16409 z m 7.40346,11.52063 c -0.31759,-0.3176 0.093,-1.06767 0.91238,-1.66683 1.35184,-0.9885 1.30709,-1.74061 -0.48332,-8.12125 -2.19511,-7.82289 -2.44479,-11.31049 -1.00267,-14.00514 1.10143,-2.05803 5.59202,-2.5134 5.59202,-0.56706 0,0.68953 -0.94235,1.21306 -2.10937,1.17188 -2.96486,-0.10463 -3.24229,4.43396 -0.76882,12.57733 1.06738,3.51411 1.94069,7.04725 1.94069,7.8514 0,1.58225 -3.13699,3.70359 -4.08091,2.75967 z m 8.76889,-1.04269 c -2.57631,-2.08617 -3.34898,-8.06972 -2.3789,-18.42203 1.01488,-10.83013 2.41096,-8.48834 1.78775,2.99876 -0.5404,9.96076 0.31313,15.23437 2.46567,15.23437 1.89598,0 2.91508,-5.16416 2.93012,-14.84811 0.0101,-6.51651 0.32749,-9.45678 0.95321,-8.83105 1.1659,1.16589 1.15228,17.954 -0.0171,21.02957 -1.4831,3.90084 -3.31206,4.80516 -5.7408,2.83849 z m 9.99953,1.0611 c -0.84264,-0.84263 -0.58661,-20.68536 0.31249,-24.21875 0.96566,-3.79501 1.05415,-2.79486 0.93971,10.62204 -0.0931,10.90975 0.009,11.58781 1.8246,12.06247 1.05776,0.27661 1.92319,0.8756 1.92319,1.33108 0,0.96213 -4.07543,1.12772 -4.99999,0.20316 z m 7.27027,-3.35937 c 0.26413,-1.67579 0.97744,-7.58204 1.58513,-13.125 0.76364,-6.9654 1.47409,-10.07813 2.30025,-10.07813 1.32453,0 1.60741,1.10194 3.66764,14.28678 1.66729,10.67027 1.72659,11.96322 0.5486,11.96322 -0.48295,0 -1.01029,-1.37109 -1.17187,-3.04687 -0.2196,-2.27755 -0.79767,-3.11876 -2.28938,-3.33155 -1.62529,-0.23185 -2.11159,0.33354 -2.62061,3.04688 -0.78601,4.1898 -2.67729,4.45636 -2.01976,0.28467 z m 5.64637,-9.84375 c -0.71294,-4.99384 -2.29165,-7.62564 -2.29165,-3.82032 0,1.32774 -0.26367,3.73242 -0.58594,5.34375 -0.5133,2.56657 -0.33189,2.92969 1.4637,2.92969 1.9094,0 2.00613,-0.30467 1.41389,-4.45312 z M 9.7021989,904.77784 c 2.1746671,-7.23247 2.1094451,-7.18852 5.3246811,-3.58827 3.280562,3.67339 2.849658,4.58586 -2.651044,5.61375 -3.4743415,0.64924 -3.4772191,0.64706 -2.6736371,-2.02548 z m 44.1204731,1.01925 c 0,-0.80387 0.428756,-1.19659 0.952792,-0.87272 0.524036,0.32387 0.710076,0.98158 0.413422,1.46158 -0.803663,1.30035 -1.366214,1.05788 -1.366214,-0.58886 z m -1.875,-7.91342 c 0,-1.03125 0.196094,-1.875 0.435765,-1.875 0.239671,0 0.887327,0.84375 1.439235,1.875 0.800918,1.49653 0.712959,1.875 -0.435765,1.875 -0.814235,0 -1.439235,-0.81423 -1.439235,-1.875 z m 2.8125,-7.27042 c 0,-0.51562 0.653986,-1.48026 1.453301,-2.14363 1.205342,-1.00034 1.725195,-0.91724 3.046875,0.48706 1.504944,1.59902 1.495718,1.65881 -0.165877,1.07516 -0.967699,-0.33991 -2.338793,-0.13721 -3.046875,0.45045 -0.770972,0.63985 -1.287424,0.69238 -1.287424,0.13096 z"
         id="path3487"
         inkscape:connector-curvature="0" />
      <path
         style="fill-opacity:1"
         d="m 84.115749,936.65444 c -2.589739,-3.95084 -2.419746,-17.0314 0.268389,-20.65185 2.253743,-3.0354 6.067182,-3.8922 7.83622,-1.76064 1.053745,1.26968 0.863418,1.38457 -1.508039,0.91027 -2.049466,-0.40989 -3.167801,-0.0413 -4.56744,1.50526 -2.686666,2.96873 -2.715356,16.63945 -0.04112,19.59445 1.620859,1.79103 1.962756,1.85218 3.236075,0.57887 0.876998,-0.877 1.573031,-3.76834 1.812503,-7.52919 0.328431,-5.15795 0.153581,-6.10544 -1.126701,-6.10544 -0.833506,0 -1.515465,-0.45122 -1.515465,-1.0027 0,-0.55149 0.949219,-0.8679 2.109375,-0.70313 1.823689,0.25901 2.146805,0.93882 2.385737,5.01943 0.151999,2.59592 -0.269876,6.39279 -0.9375,8.4375 -0.966821,2.96104 -1.726607,3.77687 -3.733285,4.00863 -1.897934,0.2192 -2.938611,-0.34852 -4.21875,-2.30146 z m 11.738173,-8.24669 c -0.08594,-5.96012 -0.191406,-11.57486 -0.234375,-12.4772 -0.133213,-2.79747 4.630583,-2.64215 7.517833,0.24511 2.11771,2.11771 2.40939,3.06272 2.01775,6.53741 -0.25181,2.23401 -1.38952,5.37027 -2.52824,6.96946 l -2.07041,2.90762 2.02206,3.27176 c 1.1488,1.85881 1.56534,3.27176 0.96449,3.27176 -0.58166,0 -1.77622,-1.26296 -2.65459,-2.80657 -1.938287,-3.40632 -3.003268,-3.59426 -3.003268,-0.53001 0,1.25863 -0.421875,2.54916 -0.9375,2.86783 -0.601116,0.37151 -0.993564,-3.30884 -1.09375,-10.25717 z m 6.905858,-3.08157 c 1.62126,-3.65675 1.6439,-4.18318 0.29231,-6.79688 -1.03135,-1.99442 -2.15178,-2.83313 -3.784743,-2.83313 -2.595441,0 -2.843466,1.59719 -1.7115,11.02147 0.513103,4.27185 0.781847,4.77096 2.019206,3.75 0.785037,-0.64775 2.218167,-2.9614 3.184727,-5.14146 z m 4.89533,7.71374 c 0.33016,-3.60937 0.98343,-9.24379 1.45172,-12.52092 1.49274,-10.44635 2.66165,-9.28506 4.85097,4.81935 1.94028,12.49995 2.03595,14.08897 0.80237,13.32657 -0.51562,-0.31867 -0.9375,-1.84948 -0.9375,-3.40178 0,-2.39067 -0.32264,-2.77655 -2.10937,-2.5228 -1.43526,0.20384 -2.20965,1.0486 -2.42314,2.64333 -0.17257,1.28906 -0.74611,2.76563 -1.27454,3.28125 -0.65514,0.63925 -0.76982,-1.15021 -0.36051,-5.625 z m 5.11915,-4.45312 c -0.16329,-4.48514 -1.24617,-8.81233 -1.9336,-7.72665 -0.51198,0.8086 -1.1178,7.94451 -0.85493,10.0704 0.0478,0.38671 0.71975,0.70312 1.49319,0.70312 0.98429,0 1.37297,-0.91424 1.29534,-3.04687 z m 5.73591,-1.5853 c 0,-7.51182 0.37733,-12.36537 0.99079,-12.74451 1.94504,-1.2021 5.56276,0.57748 7.06003,3.47287 1.76376,3.41075 1.27658,8.5541 -1.05422,11.1296 -1.22171,1.34998 -1.30873,2.07744 -0.44219,3.69659 1.47387,2.75396 -0.9864,6.57762 -4.23227,6.57762 l -2.32214,0 0,-12.13217 z m 4.58889,8.96975 c 1.29711,-1.56293 0.39648,-4.33758 -1.40794,-4.33758 -0.82605,0 -1.30595,1.0335 -1.30595,2.8125 0,3.02523 1.0017,3.58813 2.71389,1.52508 z m 2.38896,-11.24194 c 1.62641,-4.54503 -2.85611,-11.63938 -5.11518,-8.09564 -1.01078,1.58558 -1.19375,7.80804 -0.32497,11.0512 0.5235,1.9542 0.75162,2.02801 2.56532,0.83001 1.0949,-0.72321 2.38858,-2.42672 2.87483,-3.78557 z m 4.27215,4.6778 c 0,-13.03904 0.55534,-15.58594 3.39844,-15.58594 1.22461,0 2.22656,0.42188 2.22656,0.9375 0,0.51563 -0.84375,0.9375 -1.875,0.9375 -1.72666,0 -1.875,0.625 -1.875,7.90001 0,6.73549 0.24184,7.96321 1.64063,8.32875 1.5625,0.40832 1.5625,0.43392 0,0.53749 -2.09644,0.13896 -2.32403,4.79625 -0.23438,4.79625 0.77344,0 1.40625,0.42188 1.40625,0.9375 0,0.51563 -1.05469,0.9375 -2.34375,0.9375 l -2.34375,0 0,-9.72656 z m 8.48592,6.91406 c -0.1138,-1.80469 -0.27672,-7.5 -0.36204,-12.65625 l -0.15513,-9.375 2.5602,-0.29492 c 3.38706,-0.39016 7.28355,3.43164 7.28355,7.14393 0,1.49351 -1.05433,4.6984 -2.34295,7.12196 -2.22098,4.17708 -2.26618,4.55494 -0.86837,7.25801 2.01296,3.89263 1.07572,4.38607 -1.48917,0.78402 -2.22085,-3.1189 -3.31462,-2.85748 -3.9987,0.95575 -0.34007,1.89562 -0.46003,1.71637 -0.62739,-0.9375 z m 6.10715,-9.49454 c 2.64136,-5.10782 0.75382,-11.13046 -3.48837,-11.13046 -1.53406,0 -1.7297,0.83063 -1.7297,7.34375 0,4.03906 0.2776,7.62134 0.61687,7.96062 0.85982,0.85981 3.00399,-1.08525 4.6012,-4.17391 z m -17.17119,-17.37635 c -1.34611,-0.54316 -1.53456,-15.77849 -0.28223,-22.81661 0.56086,-3.15204 0.78034,-0.95935 0.86801,8.67188 0.11243,12.35079 0.19818,12.89062 2.04767,12.89062 1.06168,0 1.6696,0.42188 1.35092,0.9375 -0.61129,0.98911 -2.037,1.1024 -3.98437,0.31661 z m -43.528282,-2.36909 c -1.52711,-2.68241 -1.522033,-20.23825 0.0067,-22.86445 0.800782,-1.37573 0.930437,0.52599 0.548286,8.04193 -0.502631,9.88547 0.213564,15.0436 2.179772,15.699 2.21354,0.73785 3.43509,-4.02996 3.481416,-13.58824 0.02561,-5.2844 0.362975,-9.60862 0.749694,-9.60938 1.497284,-0.003 1.025103,18.17843 -0.559956,21.56112 -1.480398,3.15934 -4.814662,3.55493 -6.405823,0.76002 z m 11.284797,1.58373 c -0.330298,-0.51562 -0.667469,-6.07028 -0.749267,-12.34369 -0.13919,-10.6748 -0.02773,-11.44458 1.738162,-12.00506 2.280287,-0.72373 5.097,0.65987 7.06589,3.47085 2.03662,2.90771 1.8265,5.11539 -1.02291,10.74715 -2.354606,4.65379 -2.401012,5.0125 -0.9375,7.2461 1.77651,2.71129 1.89643,3.3534 0.62631,3.3534 -0.50239,0 -1.59297,-1.3141 -2.423534,-2.92022 -1.617685,-3.12826 -2.873063,-2.74025 -3.381693,1.04522 -0.173204,1.28906 -0.58516,1.92188 -0.915458,1.40625 z m 6.323835,-11.90436 c 1.84074,-3.55959 1.62961,-6.99505 -0.56473,-9.18939 -3.83412,-3.83412 -4.687498,-2.61294 -4.687498,6.7078 l 0,8.5828 1.970981,-1.78371 c 1.084041,-0.98104 2.560607,-2.92392 3.281247,-4.3175 z m 7.16965,11.72687 c 2.08422,-0.54467 2.05878,-1.61853 -0.23438,-9.89366 -1.03125,-3.72139 -1.875,-7.90467 -1.875,-9.29617 0,-2.91089 2.36786,-5.70053 4.48923,-5.28888 2.33526,0.45315 2.32659,2.31791 -0.0104,2.2334 -3.03471,-0.10973 -3.2902,4.62465 -0.71728,13.29159 2.26163,7.61828 2.01431,9.65231 -1.15403,9.49121 -1.58788,-0.0807 -1.71621,-0.21919 -0.49817,-0.53749 z m 7.14603,-0.9091 c -1.57481,-1.90366 -1.7388,-22.27376 -0.19178,-23.82079 0.68865,-0.68865 0.85733,2.34757 0.56034,10.08607 -0.34387,8.96003 -0.15198,11.42887 1.0062,12.94631 1.02332,1.34073 1.72257,1.58817 2.45398,0.86837 1.67067,-1.64415 2.93613,-11.66822 2.29914,-18.21212 -0.46658,-4.79326 -0.34798,-5.86095 0.55575,-5.00289 1.62238,1.54038 0.92347,21.03995 -0.82984,23.15256 -1.63771,1.97332 -4.21324,1.96561 -5.85379,-0.0175 z m 18.39507,-1.02278 c 0.22886,-1.41797 0.88232,-7.00782 1.45214,-12.42188 0.93835,-8.91568 1.93744,-12.39743 3.19625,-11.13863 0.45517,0.45517 4.2631,22.75443 4.26344,24.96676 4.2e-4,2.5898 -1.77597,0.9649 -2.04978,-1.875 -0.22263,-2.30897 -0.7917,-3.11774 -2.34975,-3.33946 -1.69691,-0.24148 -2.16539,0.29065 -2.68246,3.04687 -0.72857,3.88362 -2.44932,4.59956 -1.82984,0.76134 z m 5.60578,-10.90859 c -0.89742,-6.77945 -1.94494,-7.18492 -2.668,-1.03273 -0.68724,5.84723 -0.29192,7.20663 1.85597,6.38241 1.16453,-0.44687 1.32291,-1.49028 0.81203,-5.34968 z"
         id="path3485"
         inkscape:connector-curvature="0" />
      <path
         style="fill-opacity:1"
         d="m 84.11471,936.0868 c -2.104558,-3.93126 -2.274222,-15.03071 -0.289859,-18.96257 1.898652,-3.76203 6.00528,-5.22152 8.215681,-2.91985 1.550832,1.61486 1.528512,1.66382 -0.483485,1.06048 -5.202917,-1.56021 -7.734375,1.98053 -7.734375,10.81803 0,5.67738 1.938751,12.11328 3.649002,12.11328 3.657584,0 5.580052,-13.84308 2.210373,-15.91618 -1.41948,-0.8733 -1.324704,-0.97436 0.703125,-0.74971 2.285033,0.25314 2.338843,0.43288 2.147873,7.17453 -0.140964,4.97639 -0.641626,7.40744 -1.785925,8.67187 -2.372424,2.6215 -4.790215,2.15129 -6.63241,-1.28988 z m 11.895462,-9.55405 0,-12.71158 2.386359,0 c 3.391479,0 6.988639,3.91668 6.988639,7.6094 0,1.65391 -1.06878,4.83085 -2.37506,7.05986 -2.27394,3.88019 -2.31092,4.17679 -0.86838,6.96636 0.82869,1.60249 1.29576,3.12456 1.03795,3.38237 -0.25782,0.25782 -1.1435,-0.83608 -1.9682,-2.43087 -0.8247,-1.59479 -1.865364,-2.89962 -2.31258,-2.89962 -1.041891,0 -2.109019,2.73623 -1.470225,3.76982 0.267891,0.43347 0.05831,1.05311 -0.465712,1.37698 -0.627497,0.38781 -0.952791,-3.75105 -0.952791,-12.12272 z m 5.578128,1.71599 c 3.91338,-5.74537 2.58539,-12.55257 -2.448828,-12.55257 -2.231072,0 -2.263688,0.12325 -2.109131,7.96875 0.176634,8.96594 1.005412,9.79943 4.557959,4.58382 z m 6.11432,6.19743 c 2.03356,-19.0021 3.24192,-23.91426 4.55474,-18.51562 1.06733,4.38917 3.49111,22.52733 3.06696,22.95147 -0.24379,0.24378 -0.72833,-1.07643 -1.07678,-2.9338 -0.51748,-2.75842 -1.04377,-3.37705 -2.87295,-3.37705 -1.69311,0 -2.24292,0.51459 -2.25377,2.10938 -0.007,1.16015 -0.45438,2.74218 -0.99219,3.51562 -0.7055,1.01462 -0.82414,-0.0297 -0.42601,-3.75 z m 5.43179,-5.66343 c -0.88784,-9.32415 -2.55951,-11.08191 -3.3069,-3.47719 -0.54846,5.5805 -0.22949,6.56771 1.9732,6.10723 1.01731,-0.21268 1.47747,-1.12011 1.3337,-2.63004 z m 5.37576,-1.86599 c 0,-13.29163 0.55763,-14.61919 5.11594,-12.17965 4.30005,2.30131 5.50756,8.49401 2.42129,12.41756 -1.40811,1.79011 -1.70287,3.16768 -1.26078,5.89201 0.62005,3.8209 -1.08526,6.087 -4.58063,6.087 -1.54933,0 -1.69582,-1.05529 -1.69582,-12.21692 z m 5.02653,8.93567 c 0.73989,-1.92814 -0.26218,-4.21875 -1.84558,-4.21875 -0.82605,0 -1.30595,1.0335 -1.30595,2.8125 0,2.9871 2.17285,3.95665 3.15153,1.40625 z m 0.30368,-8.13217 c 2.79879,-2.62933 2.97213,-8.19487 0.32971,-10.58623 -3.24989,-2.94111 -4.72242,-1.25489 -4.72242,5.40773 0,7.80212 0.70957,8.63862 4.39271,5.1785 z m 6.23149,9.93597 c -0.66114,-1.72291 0.13653,-22.72077 0.89182,-23.47606 0.28077,-0.28077 1.49593,-0.31903 2.70036,-0.085 l 2.18987,0.42549 -2.10937,0.69711 c -1.96236,0.64852 -2.10938,1.24011 -2.10938,8.48777 0,6.63136 0.24414,7.85447 1.64063,8.21941 1.5625,0.40832 1.5625,0.43392 0,0.53749 -1.01746,0.0674 -1.64063,0.87071 -1.64063,2.11477 0,1.10332 0.73828,2.56646 1.64063,3.25144 1.51713,1.15167 1.47963,1.24765 -0.49817,1.27523 -1.17635,0.0164 -2.39394,-0.63504 -2.70576,-1.44764 z m 8.22857,-5.5538 c -0.0655,-4.125 -0.38405,-9.70594 -0.70791,-12.40209 -0.65308,-5.43688 0.37395,-6.61105 4.80894,-5.49793 5.10306,1.28078 6.28235,9.04593 2.24213,14.76349 -2.1497,3.04219 -2.19924,4.43374 -0.25655,7.20731 0.82603,1.17932 1.26108,2.38502 0.96677,2.67932 -0.2943,0.29431 -1.28655,-0.78476 -2.205,-2.39793 -1.97896,-3.47589 -3.32422,-3.3417 -4.13711,0.41267 -0.36443,1.6832 -0.63799,-0.14939 -0.71127,-4.76484 z m 5.28786,-4.19529 c 3.64161,-5.37468 2.16077,-12.21096 -2.64509,-12.21096 -1.64529,0 -1.80804,0.72434 -1.80804,8.04687 0,8.91033 0.75743,9.61859 4.45313,4.16409 z m -15.99413,-18.91768 c -1.30852,-0.73228 -1.56971,-2.30498 -1.50186,-9.04299 0.0452,-4.4861 0.41067,-10.26591 0.81223,-12.84404 0.56108,-3.6023 0.75911,-1.7183 0.85537,8.13792 0.12248,12.54055 0.17212,12.83226 2.23464,13.13347 1.61627,0.23603 1.7674,0.44761 0.6465,0.90507 -0.80458,0.32836 -2.17568,0.19812 -3.04688,-0.28943 z m -43.872111,-1.90826 c -1.363214,-2.53489 -1.42953,-18.7507 -0.09129,-22.32252 0.592008,-1.58009 0.73767,1.32181 0.447051,8.90625 -0.357797,9.33764 -0.177077,11.56873 1.063139,13.125 1.459464,1.83139 1.526024,1.8339 2.862003,0.10779 1.823045,-2.35541 2.685577,-8.61763 2.211795,-16.05824 -0.212958,-3.34444 -0.0508,-6.0808 0.36036,-6.0808 1.248886,0 0.842667,18.97525 -0.461607,21.5625 -1.594533,3.16303 -4.888511,3.55472 -6.39145,0.76002 z m 11.410316,2.05248 c -0.107602,-0.25781 -0.414549,-5.84766 -0.682105,-12.42187 l -0.486465,-11.95313 3.221636,0 c 6.550509,0 8.735009,5.96845 4.934079,13.48084 -2.440367,4.8233 -2.479592,5.12974 -1.01841,7.95535 1.96543,3.80073 0.53067,3.83576 -1.710501,0.0418 -1.825218,-3.08984 -2.961684,-2.77093 -3.642133,1.02205 -0.231255,1.28906 -0.5085,2.13281 -0.616101,1.875 z m 5.057035,-10.62924 c 1.31079,-2.23671 2.38326,-5.09596 2.38326,-6.3539 0,-3.06397 -2.4902,-6.45436 -4.740654,-6.45436 -1.669172,0 -1.821844,0.70707 -1.821844,8.4375 0,4.75245 0.392194,8.4375 0.897984,8.4375 0.493885,0 1.970447,-1.83003 3.281254,-4.06674 z m 8.71139,10.06583 c 1.64224,-0.74321 1.44538,-3.64315 -0.71522,-10.53574 -2.30926,-7.36683 -2.3342,-9.67362 -0.13393,-12.39083 1.27157,-1.57031 2.20165,-1.93568 3.51562,-1.38106 1.6315,0.68864 1.58311,0.80723 -0.5571,1.36557 -1.9345,0.50467 -2.39219,1.26189 -2.62118,4.33657 -0.1526,2.04882 0.49406,6.25076 1.43702,9.33764 2.20053,7.20377 2.15257,9.2697 -0.22209,9.56502 -1.03125,0.12825 -1.34765,-0.005 -0.70312,-0.29717 z m 6.62593,-1.48907 c -1.44102,-2.52702 -1.55673,-21.90735 -0.13926,-23.32482 0.5505,-0.5505 0.74397,3.25736 0.51511,10.13846 -0.30065,9.03986 -0.0993,11.35701 1.12054,12.89509 1.41965,1.79001 1.54602,1.79905 2.78782,0.19944 1.6653,-2.14511 2.77405,-12.39325 1.9415,-17.94512 -0.43611,-2.90812 -0.30712,-4.28557 0.40129,-4.28557 1.42635,0 1.28315,16.33196 -0.18085,20.625 -1.39133,4.07994 -4.60499,4.92622 -6.44615,1.69752 z m 18.99496,-1.39531 c -0.0719,-3.80297 1.33233,-16.28689 2.34278,-20.82844 0.83979,-3.77444 2.07145,-1.02885 3.53042,7.86998 2.38648,14.55605 2.56284,16.40625 1.56386,16.40625 -0.52172,0 -0.94858,-1.47656 -0.94858,-3.28125 0,-2.86828 -0.29273,-3.28125 -2.32589,-3.28125 -1.77448,0 -2.46069,0.6112 -2.8945,2.57813 -0.98623,4.47159 -1.19209,4.5587 -1.26809,0.53658 z m 4.82333,-10.12623 c -0.41143,-8.79975 -1.59791,-8.65695 -2.61291,0.31446 -0.62421,5.51723 -0.54463,5.92155 1.09945,5.58543 1.53436,-0.3137 1.73759,-1.10598 1.51346,-5.89989 z"
         id="path3483"
         inkscape:connector-curvature="0" />
      <path
         style="fill-opacity:1"
         d="m 84.367236,936.46778 c -3.328372,-6.43636 -2.609677,-17.769 1.379886,-21.75856 2.17961,-2.17961 3.657647,-2.29159 6.099491,-0.46211 1.677198,1.25658 1.550632,1.32147 -1.615083,0.82793 -3.161822,-0.49293 -3.562422,-0.28888 -5.039063,2.56663 -3.138474,6.06914 -1.219815,20.5545 2.722547,20.5545 1.971144,0 3.407658,-4.3369 3.407658,-10.28787 0,-4.46133 -0.312762,-5.59388 -1.640625,-5.94089 -1.234603,-0.32263 -1.118597,-0.45565 0.46875,-0.53749 2.00423,-0.10333 2.109375,0.23134 2.109375,6.7139 0,7.40874 -1.536929,10.98985 -4.716585,10.98985 -1.027346,0 -2.388548,-1.14245 -3.176351,-2.66589 z m 11.770605,-9.75598 c -0.127032,-12.82654 -0.117057,-12.89063 2.007478,-12.89063 7.429661,0 9.141581,8.95472 3.274321,17.12733 -0.98383,1.37041 -0.90387,2.18484 0.46022,4.6875 l 1.65094,3.02892 -2.32645,-2.79325 c -2.514662,-3.01926 -3.798606,-2.62513 -4.518372,1.387 -0.231253,1.28906 -0.477919,-3.45703 -0.548137,-10.54687 z m 6.937789,-0.779 c 1.27397,-2.82514 1.47888,-4.39955 0.81742,-6.28042 -0.87957,-2.50103 -4.753681,-5.2001 -6.189912,-4.31246 -0.906994,0.56056 -1.024163,15.71255 -0.128419,16.6083 0.994153,0.99415 3.649351,-1.90939 5.500911,-6.01542 z m 4.79656,10.85712 c 0.16494,-1.03125 0.36885,-3.77344 0.45315,-6.09375 0.10193,-2.80544 0.2841,-3.35506 0.54382,-1.64062 0.418,2.7593 2.74909,3.47004 4.76601,1.45312 0.875,-0.875 1.10856,-0.51042 1.05099,1.64063 -0.0407,1.52109 -0.2868,2.23828 -0.54688,1.59375 -0.26007,-0.64454 -1.41798,-1.17188 -2.57314,-1.17188 -1.55034,0 -2.34819,0.7978 -3.04706,3.04688 -0.52072,1.67578 -0.81182,2.20312 -0.64689,1.17187 z m 6.962,0.85938 c 0.045,-1.09214 0.26713,-1.31429 0.5664,-0.56641 0.27081,0.67676 0.23751,1.48535 -0.074,1.79687 -0.31153,0.31153 -0.5331,-0.24218 -0.49239,-1.23046 z m 4.084,0.25792 c -0.25884,-0.67455 -0.35107,-6.2593 -0.20495,-12.41055 0.23256,-9.78971 0.47058,-11.22337 1.90914,-11.49909 0.9039,-0.17324 2.9078,0.94937 4.45312,2.49469 3.33911,3.3391 3.67977,7.2199 0.93957,10.7035 -1.37263,1.745 -1.71419,3.15707 -1.28398,5.30812 0.42262,2.11307 0.11917,3.44665 -1.08769,4.78022 -1.92413,2.12614 -4.04131,2.40532 -4.72521,0.62311 z m 5.21698,-3.46105 c 0,-2.10955 -3.38404,-4.37914 -3.95874,-2.65503 -0.198,0.594 -0.18562,2.26813 0.0276,3.7203 0.33182,2.2608 0.64219,2.504 2.15937,1.69203 0.97448,-0.52155 1.77181,-1.76233 1.77181,-2.7573 z m 0,-6.5625 c 3.6721,-3.67209 1.60548,-12.1875 -2.9578,-12.1875 -1.52752,0 -1.7297,0.82188 -1.7297,7.03125 0,7.68839 1.02637,8.81739 4.6875,5.15625 z m 6.23567,9.87553 c -0.29009,-0.75596 -0.38573,-5.08018 -0.21255,-9.60937 0.17319,-4.5292 0.36539,-9.606 0.42714,-11.28178 0.099,-2.68723 0.41656,-3.03987 2.69037,-2.98746 2.47817,0.0571 2.49634,0.0923 0.46875,0.90729 -1.95444,0.78559 -2.10938,1.43038 -2.10938,8.77809 0,6.76426 0.24122,7.99325 1.64063,8.35896 1.5625,0.40832 1.5625,0.43392 0,0.53749 -1.16401,0.0772 -1.64063,0.90583 -1.64063,2.85251 0,1.82477 0.54951,2.88736 1.64063,3.1725 1.2941,0.33818 1.21628,0.45171 -0.36845,0.53749 -1.10499,0.0598 -2.24642,-0.50976 -2.53651,-1.26572 z m 13.02814,-1.35091 c -1.85775,-3.59248 -4.01115,-3.74532 -4.52982,-0.32149 -0.40338,2.66278 -1.17596,-18.22991 -0.78868,-21.32813 0.1551,-1.24083 2.2927,-1.18754 5.18266,0.12922 4.53163,2.06474 4.88719,8.08571 0.87829,14.87224 -1.64169,2.77917 -1.64362,3.01254 -0.0479,5.79291 0.91448,1.5934 1.4697,3.09009 1.2338,3.32598 -0.23589,0.23589 -1.10364,-0.87594 -1.92834,-2.47073 z m 0.4408,-8.08356 c 3.7037,-5.9927 2.40283,-12.62856 -2.47565,-12.62856 -2.17213,0 -2.22896,0.20319 -2.22896,7.96875 0,9.09155 1.21928,10.29921 4.70461,4.65981 z m -30.77184,-2.78481 c 0.0191,-1.54687 0.22922,-2.06619 0.46691,-1.15403 0.23769,0.91215 0.22207,2.17778 -0.0347,2.8125 -0.25685,0.63472 -0.45133,-0.11159 -0.43222,-1.65847 z m -3.33707,-5.15055 c 0.67875,-8.49122 1.58782,-9.15511 2.57526,-1.8807 0.38198,2.81409 0.29507,3.59445 -0.26102,2.34375 -0.91189,-2.05089 -1.43875,-1.31233 -2.34069,3.28125 -0.25311,1.28906 -0.24121,-0.39587 0.0264,-3.7443 z M 83.799468,906.72889 c -1.030688,-2.71092 -1.078187,-18.38228 -0.06659,-21.97022 0.363443,-1.28906 0.495966,2.71875 0.294495,8.90625 -0.294731,9.0517 -0.08692,11.61638 1.063447,13.125 1.37038,1.79713 1.499925,1.80582 3.119353,0.20922 1.422681,-1.40263 1.690911,-3.2902 1.697923,-11.94856 0.0046,-5.65553 0.370265,-10.28483 0.812633,-10.28734 1.365663,-0.008 0.298313,21.0708 -1.155671,22.82274 -1.926363,2.32112 -4.714835,1.9066 -5.765589,-0.85709 z m 11.37746,-2.75147 c -0.06467,-3.09375 -0.385612,-8.46284 -0.713201,-11.93131 -0.504345,-5.33995 -0.359344,-6.39697 0.946261,-6.89798 3.044603,-1.16832 6.300562,0.49945 7.750672,3.97007 1.32592,3.17337 1.27174,3.62142 -0.99928,8.2632 -2.822586,5.76917 -2.88163,6.39753 -0.88714,9.4415 0.83275,1.27093 1.09486,2.31077 0.58249,2.31077 -0.51237,0 -1.4624,-1.28152 -2.111192,-2.84783 -1.414322,-3.41448 -3.046904,-3.1685 -3.858821,0.58142 -0.424863,1.96227 -0.625431,1.14567 -0.709789,-2.88984 z m 5.018202,-4.90513 c 3.90274,-5.7434 2.50171,-13.37612 -2.455261,-13.37612 -1.553138,0 -1.729697,0.86126 -1.729697,8.4375 0,4.78963 0.390703,8.4375 0.903703,8.4375 0.497034,0 1.973597,-1.57449 3.281255,-3.49888 z m 8.70567,9.44049 c 1.64793,-0.66495 1.46348,-3.5277 -0.71523,-11.10084 -1.06838,-3.71361 -1.64543,-7.68144 -1.33005,-9.14544 0.66511,-3.08752 3.19236,-4.73575 5.14266,-3.35398 1.10132,0.78027 1.0482,0.86162 -0.28302,0.43348 -1.0771,-0.34641 -2.14723,0.24898 -3.12233,1.73716 -1.36772,2.0874 -1.33126,2.85183 0.46688,9.78878 2.43923,9.41013 2.51236,12.28708 0.30984,12.18772 -0.9801,-0.0442 -1.16882,-0.26439 -0.46875,-0.54688 z m 6.8603,-1.13559 c -1.08604,-2.0293 -1.2707,-20.19902 -0.23191,-22.8202 0.35048,-0.88436 0.49074,3.5651 0.3117,9.88768 -0.27734,9.79361 -0.0969,11.68539 1.21892,12.7774 1.31753,1.09344 1.76916,1.05709 3.07363,-0.24739 1.22007,-1.22006 1.54219,-3.61956 1.59358,-11.8705 0.0354,-5.68774 0.38081,-10.34228 0.76753,-10.34343 1.13341,-0.003 0.70247,17.03327 -0.52167,20.62292 -1.32691,3.89106 -4.62908,4.95081 -6.21178,1.99352 z m 10.98307,0.11586 c -0.51648,-2.00702 0.12399,-23.90487 0.71649,-24.49737 0.23349,-0.23348 0.42451,5.31177 0.42451,12.32279 0,12.47403 0.0452,12.756 2.10938,13.15358 1.88682,0.36341 1.8489,0.41975 -0.35941,0.53395 -1.63606,0.0846 -2.61119,-0.42572 -2.89097,-1.51295 z m 7.84549,-1.64063 c -0.096,-3.43475 0.88218,-12.14146 2.25198,-20.04399 0.75008,-4.32723 1.99485,-2.59738 2.61767,3.63774 0.28328,2.83594 0.30154,4.3125 0.0406,3.28125 -1.08382,-4.28286 -1.59315,-4.70244 -2.27607,-1.875 -0.37361,1.54688 -0.72921,4.63566 -0.79022,6.86397 -0.10649,3.88991 -0.008,4.03944 2.46721,3.75 2.28068,-0.26669 2.59528,0.023 2.72684,2.51103 0.10578,2.00065 0.0173,2.18765 -0.30683,0.64785 -0.35955,-1.70855 -0.9835,-2.10363 -2.96121,-1.875 -2.0466,0.23658 -2.61189,0.89082 -3.08539,3.5709 l -0.57971,3.28125 -0.10485,-3.75 z m 5.66578,-8.4375 c 0.0191,-1.54687 0.22922,-2.06619 0.46691,-1.15403 0.23769,0.91215 0.22207,2.17778 -0.0348,2.8125 -0.25676,0.63472 -0.45124,-0.11159 -0.43213,-1.65847 z"
         id="path3481"
         inkscape:connector-curvature="0" />
      <path
         style="fill-opacity:1"
         d="m 85.385357,937.43153 c -0.847229,-0.93618 -1.760871,-3.15102 -2.030316,-4.92188 -0.483273,-3.17618 -0.47389,-3.17038 0.693655,0.42914 1.399417,4.31438 3.819841,6.27402 5.577873,4.51598 1.740673,-1.74067 2.261636,-14.2619 0.636227,-15.29157 -1.009274,-0.63936 -0.932971,-0.81639 0.356751,-0.82767 1.413523,-0.0124 1.640625,0.93006 1.640625,6.80829 0,9.49314 -3.009472,13.55887 -6.874815,9.28771 z m 34.062313,0.86881 c 0,-0.45834 0.6799,-0.77474 1.51089,-0.70313 2.23028,0.19221 3.87771,-2.76748 2.63609,-4.73587 -1.56017,-2.47338 -3.13054,-2.52497 -4.08872,-0.13431 -0.63494,1.58418 -0.89331,-0.43197 -0.93633,-7.30669 -0.0688,-10.9965 0.93668,-13.00495 5.13398,-10.25479 4.25939,2.79086 5.23742,9.89671 1.75946,12.78317 -0.95615,0.79353 -1.1852,2.08584 -0.76587,4.32103 0.44192,2.35565 0.16372,3.66904 -1.06468,5.02641 -1.71036,1.88994 -4.18482,2.4837 -4.18482,1.00418 z m 5.86376,-12.37359 c 1.34331,-2.7464 1.45418,-3.91055 0.6045,-6.34792 -1.07667,-3.08856 -3.94519,-5.33135 -5.55014,-4.33944 -0.50496,0.31209 -0.91812,3.73594 -0.91812,7.60856 0,6.76567 0.0825,7.02941 2.10938,6.74155 1.33123,-0.18907 2.71622,-1.54025 3.75438,-3.66275 z m 5.51391,10.6288 c 0.1051,-2.1224 0.19816,-2.21545 0.52641,-0.52639 0.2193,1.12845 1.11107,2.23967 1.98169,2.46937 1.12157,0.2959 0.96814,0.44934 -0.52639,0.52639 -1.73069,0.0892 -2.08646,-0.35409 -1.98171,-2.46937 z M 96.370069,926.48892 c 0.09019,-10.08894 0.353006,-12.22279 1.533234,-12.44897 0.783413,-0.15014 2.259977,0.39531 3.281247,1.21209 1.80004,1.43961 1.79172,1.45346 -0.27188,0.45249 -1.170807,-0.56791 -2.541901,-0.77722 -3.046876,-0.46514 -1.16851,0.72218 -1.215056,17.33178 -0.04857,17.33178 0.478256,0 2.011425,-1.37109 3.407056,-3.04687 2.27982,-2.73747 2.37335,-2.77535 0.92113,-0.37306 -0.88901,1.47061 -1.39109,3.53528 -1.11576,4.58818 0.37577,1.43692 0.23313,1.64686 -0.57193,0.8418 -1.813612,-1.81361 -3.365915,-1.19712 -3.791005,1.50558 -0.223022,1.41796 -0.356513,-2.90108 -0.296644,-9.59788 z m 42.145341,3.7385 c 0.0232,-5.33834 0.16104,-6.45748 0.37507,-3.04687 0.18604,2.96484 0.6004,5.39062 0.92078,5.39062 0.32039,0 1.45222,-0.73828 2.51519,-1.64062 1.73898,-1.47622 1.80876,-1.48033 0.69623,-0.0411 -0.68003,0.87976 -0.98859,2.00057 -0.68567,2.4907 0.30722,0.49708 -0.24752,0.68238 -1.25452,0.41905 -1.41511,-0.37006 -1.89156,0.10471 -2.20457,2.1968 -0.21963,1.4679 -0.38275,-1.12797 -0.36251,-5.7686 z m -30.31774,0.99283 c 0,-2.87254 0.53432,-3.10459 1.2089,-0.52501 0.26954,1.03073 0.10781,2.11032 -0.35941,2.39907 -0.46722,0.28876 -0.84949,-0.55457 -0.84949,-1.87406 z m 5.15625,1.35092 c -0.31867,-0.51562 -0.13264,-0.9375 0.41342,-0.9375 0.54606,0 0.99283,0.42188 0.99283,0.9375 0,0.51563 -0.18604,0.9375 -0.41342,0.9375 -0.22738,0 -0.67415,-0.42187 -0.99283,-0.9375 z m 17.41777,-0.54687 c 0.045,-1.09214 0.26713,-1.31429 0.5664,-0.56641 0.27081,0.67676 0.23751,1.48535 -0.074,1.79687 -0.31153,0.31153 -0.5331,-0.24218 -0.49239,-1.23046 z m -21.5625,-9.375 c 0.045,-1.09214 0.26713,-1.31429 0.5664,-0.56641 0.27081,0.67676 0.23751,1.48535 -0.074,1.79687 -0.31153,0.31153 -0.5331,-0.24218 -0.49239,-1.23046 z m 21.6619,-3.4375 c -0.16231,-5.04534 -0.0383,-5.38366 1.93596,-5.28188 1.51219,0.078 1.65819,0.22757 0.51567,0.52846 -1.17961,0.31065 -1.68263,1.68305 -1.93596,5.28187 l -0.34225,4.86217 -0.17342,-5.39062 z m -47.502857,1.23339 c 0.476743,-3.21998 2.765422,-6.62402 4.4536,-6.62402 0.492833,0 0.02695,0.73828 -1.035298,1.64063 -1.062246,0.90234 -2.373178,3.11718 -2.913184,4.92187 l -0.981827,3.28125 0.476709,-3.21973 z m 27.876317,-0.68241 c -1.32192,-0.53341 -1.62639,-5.00411 -0.34078,-5.00411 0.4571,0 1.01685,1.26563 1.24388,2.8125 0.22703,1.54688 0.38038,2.77919 0.34078,2.73849 -0.0396,-0.0407 -0.59935,-0.2868 -1.24388,-0.54688 z m 32.84599,-2.84734 c -1.14172,-1.18622 -1.73446,-2.15677 -1.31716,-2.15677 0.9142,0 4.325,3.64517 3.77792,4.03752 -0.21168,0.15181 -1.31902,-0.69453 -2.46076,-1.88075 z m -53.705368,-2.15677 c -1.211894,-0.78319 -1.187149,-0.91077 0.179046,-0.92314 0.871914,-0.008 1.84603,0.40752 2.164704,0.92314 0.733296,1.1865 -0.507776,1.1865 -2.34375,0 z m 48.499998,-0.11633 c 0.63594,-0.64071 1.39241,-0.92876 1.68106,-0.64011 0.28865,0.28864 -0.23167,0.81286 -1.15625,1.16492 -1.33612,0.50876 -1.4438,0.40108 -0.52481,-0.52481 z m -54.504481,-7.54072 c -1.137386,-1.62385 -1.455507,-4.16185 -1.328441,-10.59842 l 0.167077,-8.46328 0.536048,8.90625 c 0.553232,9.19175 1.157641,11.25 3.303575,11.25 1.990592,0 2.622752,-2.5941 3.312675,-13.59375 l 0.646825,-10.3125 0.0992,8.90625 c 0.147439,13.2375 -2.858729,19.4424 -6.736956,13.90545 z m 10.555672,-9.21795 c -0.255985,-6.44531 -0.08384,-12.14062 0.382542,-12.65625 0.541937,-0.59916 0.77961,-0.42998 0.658543,0.46875 -0.104187,0.77344 -0.139444,4.91515 -0.07835,9.2038 0.106872,7.50232 0.186518,7.77361 2.103481,7.16519 1.143815,-0.36303 1.763447,-0.26191 1.454831,0.23743 -0.295659,0.47839 0.335231,2.305 1.401982,4.05912 1.33646,2.19764 1.4784,2.8066 0.45646,1.95848 -0.81569,-0.67696 -1.746139,-2.05972 -2.067673,-3.07279 -0.813844,-2.56418 -2.662191,-1.65903 -3.307819,1.61986 -0.296216,1.50434 -0.748013,-2.53828 -1.004,-8.98359 z m 14.396219,9.93831 c 0.66487,-0.72144 1.35655,-1.17138 1.5371,-0.99988 0.55607,0.52825 -0.85326,2.31157 -1.8268,2.31157 -0.50552,0 -0.37515,-0.59026 0.2897,-1.31169 z m 8.93296,0.65141 c 1.38965,-0.26808 2.39087,-1.41315 2.96232,-3.38795 0.47476,-1.64066 0.90126,-2.217 0.94776,-1.28076 0.14254,2.8697 -1.72316,5.33718 -3.9328,5.20132 l -2.0764,-0.12767 2.09912,-0.40494 z m 8.88777,-12.69909 0.20563,-13.35938 0.28916,12.8269 c 0.25251,11.20142 0.49376,12.88059 1.90374,13.25062 1.18341,0.31057 1.05127,0.45277 -0.49479,0.53248 -2.10297,0.10842 -2.10875,0.0681 -1.90374,-13.25062 z m 7.45196,9.89907 c -0.17052,-4.25102 0.56686,-5.34142 2.69967,-3.9922 1.14004,0.7212 1.10384,0.86362 -0.22255,0.87564 -1.13658,0.0103 -1.68791,1.00743 -1.95178,3.52999 l -0.36774,3.51562 -0.1576,-3.92905 z m -24.45858,-1.77407 c 0.045,-1.09214 0.26713,-1.31429 0.5664,-0.56641 0.27081,0.67676 0.23751,1.48535 -0.074,1.79687 -0.31153,0.31153 -0.5331,-0.24218 -0.49239,-1.23046 z m 4.7615,-0.39063 c 0,-1.28906 0.2128,-1.81641 0.47287,-1.17187 0.26007,0.64453 0.26007,1.69921 0,2.34375 -0.26007,0.64453 -0.47287,0.11718 -0.47287,-1.17188 z m 24.69573,-1.875 c 0.31868,-0.51562 0.76545,-0.9375 0.99283,-0.9375 0.22738,0 0.41342,0.42188 0.41342,0.9375 0,0.51563 -0.44677,0.9375 -0.99283,0.9375 -0.54606,0 -0.73209,-0.42187 -0.41342,-0.9375 z m -17.01618,-7.5 c 0,-4.38281 0.1615,-6.17578 0.35888,-3.98437 0.19737,2.1914 0.19737,5.77734 0,7.96875 -0.19738,2.1914 -0.35888,0.39843 -0.35888,-3.98438 z m -21.8148,4.6875 c 1.3667,-2.86972 1.79973,-3.40157 1.79973,-2.21043 0,0.50301 -0.65608,1.73348 -1.45797,2.73437 -1.374722,1.71591 -1.394241,1.686 -0.34176,-0.52394 z m 34.82973,-2.8125 c 0,-1.80469 0.19294,-2.54297 0.42875,-1.64062 0.2358,0.90234 0.2358,2.3789 0,3.28125 -0.23581,0.90234 -0.42875,0.16406 -0.42875,-1.64063 z m 3.60652,-4.29687 c 0.045,-1.09214 0.26713,-1.31429 0.5664,-0.56641 0.27081,0.67676 0.23751,1.48535 -0.074,1.79687 -0.31153,0.31153 -0.5331,-0.24218 -0.49239,-1.23046 z m -24.23152,-2.26563 c 0,-1.80469 0.19294,-2.54297 0.42875,-1.64062 0.2358,0.90234 0.2358,2.3789 0,3.28125 -0.23581,0.90234 -0.42875,0.16406 -0.42875,-1.64063 z m -12.33098,0.39063 c 0.045,-1.09214 0.26713,-1.31429 0.5664,-0.56641 0.27081,0.67676 0.23751,1.48535 -0.074,1.79687 -0.31153,0.31153 -0.5331,-0.24218 -0.49239,-1.23046 z m 33.84345,-0.39063 c 0.0107,-1.28906 0.3199,-3.39844 0.68715,-4.6875 l 0.66771,-2.34375 0.69945,2.72357 c 0.3847,1.49797 0.31637,2.97453 -0.15184,3.28125 -0.46821,0.30672 -1.09218,1.19049 -1.3866,1.96393 -0.31755,0.8342 -0.5274,0.45282 -0.51587,-0.9375 z m -37.667468,-3.75 c -0.844959,-0.54606 -0.960591,-0.91452 -0.289706,-0.92314 0.6141,-0.008 1.377281,0.40752 1.695954,0.92314 0.71935,1.16393 0.3948,1.16393 -1.406248,0 z"
         id="path3479"
         inkscape:connector-curvature="0" />
      <path
         style="fill-opacity:1"
         d="m 90.081275,937.25867 c 0.424955,-0.77344 1.019181,-4.57031 1.320501,-8.4375 l 0.547855,-7.03125 0.15527,6.61769 c 0.112792,4.80721 -0.248474,7.11556 -1.320501,8.4375 -0.811676,1.0009 -1.128082,1.187 -0.703125,0.41356 z m 5.94325,-3.98437 c 0.0097,-2.07155 0.273084,-2.63853 0.822591,-1.77123 0.737156,1.16346 0.374925,4.8181 -0.477535,4.8181 -0.197672,0 -0.35295,-1.37109 -0.345056,-3.04687 z m 28.258665,1.17187 c 0,-1.28906 0.2128,-1.81641 0.47287,-1.17187 0.26007,0.64453 0.26007,1.69921 0,2.34375 -0.26007,0.64453 -0.47287,0.11718 -0.47287,-1.17188 z m 13.9885,-1.48437 c 0.045,-1.09214 0.26713,-1.31429 0.5664,-0.56641 0.27081,0.67676 0.23751,1.48535 -0.074,1.79687 -0.31153,0.31153 -0.5331,-0.24218 -0.49239,-1.23046 z m -42.187502,-13.125 c 0.045,-1.09214 0.267131,-1.31429 0.5664,-0.56641 0.270815,0.67676 0.237515,1.48535 -0.07397,1.79687 -0.311531,0.31153 -0.5331,-0.24218 -0.492394,-1.23046 z m 29.210362,-2.04092 c -1.09459,-2.33495 -1.06857,-2.41069 0.34319,-0.99893 0.84016,0.84016 1.37313,1.97709 1.18437,2.5265 -0.18875,0.54941 -0.87616,-0.138 -1.52756,-1.52757 z m -15.20752,0.01 c 0.008,-0.38672 0.4233,-1.33594 0.92314,-2.10938 0.73488,-1.13715 0.91153,-1.0026 0.92315,0.70313 0.008,1.16015 -0.40752,2.10937 -0.92315,2.10937 -0.51562,0 -0.93104,-0.31641 -0.92314,-0.70312 z M 96.084188,916.0868 c 0.045,-1.09214 0.267131,-1.31429 0.5664,-0.56641 0.270815,0.67676 0.237515,1.48535 -0.07397,1.79687 -0.311531,0.31153 -0.5331,-0.24218 -0.492394,-1.23046 z m -11.324016,0.19291 c 0,-0.19468 0.738281,-0.93296 1.640625,-1.64062 1.486927,-1.16613 1.520087,-1.13297 0.353958,0.35396 -1.224721,1.56163 -1.994583,2.05826 -1.994583,1.28666 z M 95.146685,904.8368 c 0.04498,-1.09214 0.267132,-1.31429 0.566406,-0.56641 0.270817,0.67676 0.23751,1.48535 -0.07402,1.79687 -0.311524,0.31153 -0.533101,-0.24218 -0.492394,-1.23046 z m 32.056325,-2.26563 c 0,-2.32031 0.18283,-3.26953 0.40628,-2.10937 0.22347,1.16015 0.22347,3.05859 0,4.21875 -0.22345,1.16015 -0.40628,0.21093 -0.40628,-2.10938 z m -36.562497,-4.6875 c 0,-2.32031 0.182828,-3.26953 0.406284,-2.10937 0.223456,1.16015 0.223456,3.05859 0,4.21875 -0.223456,1.16015 -0.406284,0.21093 -0.406284,-2.10938 z m -0.01892,-8.90625 c 0.01041,-2.0625 0.202393,-2.79586 0.426636,-1.62969 0.224243,1.16616 0.21573,2.85366 -0.01892,3.75 -0.23465,0.89633 -0.418123,-0.0578 -0.407718,-2.12031 z m 36.594217,-0.9375 c 0.007,-2.57812 0.18911,-3.52154 0.40459,-2.09648 0.2155,1.42505 0.20973,3.53443 -0.0127,4.6875 -0.22257,1.15306 -0.39887,-0.0129 -0.39184,-2.59102 z m 10.19238,-2.34375 c 0,-1.28906 0.2128,-1.81641 0.47287,-1.17187 0.26007,0.64453 0.26007,1.69921 0,2.34375 -0.26007,0.64453 -0.47287,0.11718 -0.47287,-1.17188 z"
         id="path3477"
         inkscape:connector-curvature="0" />
    </g>
  </g>
</svg>
