<?xml version="1.0" encoding="UTF-8" standalone="no"?>
<!-- Created with Inkscape (http://www.inkscape.org/) -->

<svg
   xmlns:dc="http://purl.org/dc/elements/1.1/"
   xmlns:cc="http://creativecommons.org/ns#"
   xmlns:rdf="http://www.w3.org/1999/02/22-rdf-syntax-ns#"
   xmlns:svg="http://www.w3.org/2000/svg"
   xmlns="http://www.w3.org/2000/svg"
   xmlns:sodipodi="http://sodipodi.sourceforge.net/DTD/sodipodi-0.dtd"
   xmlns:inkscape="http://www.inkscape.org/namespaces/inkscape"
   width="138.75"
   height="61.937099"
   viewBox="0 0 138.75 61.937099"
   id="svg2"
   version="1.1"
   inkscape:version="0.91 r13725"
   sodipodi:docname="logo_top_white.svg"
   shape-rendering="crispEdges">
  <defs
     id="defs4" />
  <sodipodi:namedview
     id="base"
     pagecolor="$theme-light-color"
     bordercolor="#666666"
     borderopacity="1.0"
     inkscape:pageopacity="0"
     inkscape:pageshadow="2"
     inkscape:zoom="5.6"
     inkscape:cx="85.309992"
     inkscape:cy="45.605031"
     inkscape:document-units="px"
     inkscape:current-layer="layer1"
     showgrid="false"
     units="px"
     borderlayer="true"
     showborder="true"
     inkscape:window-width="1920"
     inkscape:window-height="1026"
     inkscape:window-x="0"
     inkscape:window-y="0"
     inkscape:window-maximized="1"
     fit-margin-top="0"
     fit-margin-left="0"
     fit-margin-right="0"
     fit-margin-bottom="0" />
  <metadata
     id="metadata7">
    <rdf:RDF>
      <cc:Work
         rdf:about="">
        <dc:format>image/svg+xml</dc:format>
        <dc:type
           rdf:resource="http://purl.org/dc/dcmitype/StillImage" />
        <dc:title></dc:title>
      </cc:Work>
    </rdf:RDF>
  </metadata>
  <g
     inkscape:label="Layer 1"
     inkscape:groupmode="layer"
     id="layer1"
     transform="translate(-13.620896,-975.27727)">
    <g
       id="g3467"
       transform="translate(4.7982245,93.691649)"
       style="fill:#ffffff">
      <path
         style="fill:#ffffff;fill-opacity:1"
         d="m 33.666422,943.21181 c -4.826174,-1.11532 -6.699839,-2.34652 -6.632053,-4.35798 0.04791,-1.42166 -0.553564,-2.15277 -1.932872,-2.34947 -2.711459,-0.38668 -3.962396,-5.83446 -1.656603,-7.21444 4.014041,-2.40233 6.746877,-5.37048 8.361876,-9.08186 0.967649,-2.22373 1.876848,-4.20837 2.020441,-4.41032 0.337004,-0.47397 3.985668,3.89372 4.026771,4.82031 0.01716,0.38671 -0.52099,0.70312 -1.195876,0.70312 -0.674886,0 -2.02949,0.58675 -3.010232,1.30388 -1.491358,1.09051 -1.806144,2.62469 -1.923577,9.375 -0.07723,4.43912 0.03949,8.07112 0.259365,8.07112 0.219876,0 1.225487,-0.44191 2.234691,-0.98202 1.634339,-0.87467 1.768254,-1.63266 1.225086,-6.93429 -0.552126,-5.38908 -0.426939,-6.05016 1.323069,-6.98673 2.799458,-1.49823 6.453085,-1.26893 7.111277,0.44629 0.312521,0.81442 0.304859,3.12771 -0.01703,5.14065 -0.459998,2.87667 -0.259191,3.78502 0.938334,4.24455 1.691929,0.64926 2.061559,3.6909 0.561214,4.61817 -0.5293,0.32712 -0.845706,1.30124 -0.703125,2.1647 0.21106,1.27817 -0.6119,1.59713 -4.428263,1.71628 -2.578125,0.0805 -5.53125,-0.0486 -6.5625,-0.28696 z m 16.228319,-4.54689 c 0.433928,-3.71692 0.756338,-3.89683 3.13144,-1.74739 1.520271,1.37583 1.752646,1.38338 2.255385,0.0733 0.829327,-2.16119 -1.239111,-5.35712 -3.467181,-5.35712 -1.388879,0 -1.779596,-0.42405 -1.371238,-1.48821 0.314092,-0.81851 0.838717,-3.16193 1.165831,-5.20759 0.617289,-3.86031 3.860233,-9.55841 5.494944,-9.65504 0.515625,-0.0305 1.948313,4.0459 3.183753,9.0586 1.902123,7.71773 2.052807,9.3471 0.983564,10.63546 -1.176592,1.41771 -10.099356,6.94091 -11.244691,6.96048 -0.283181,0.005 -0.342494,-1.46776 -0.131807,-3.27245 z m 35.576147,-0.20138 c -4.004864,-4.42532 -4.903008,-16.27404 -1.639345,-21.62698 2.178528,-3.57314 3.773738,-4.38327 7.024475,-3.56739 3.393138,0.85163 2.875746,2.47592 -0.699559,2.19619 -2.638256,-0.20641 -3.25915,0.19682 -4.686043,3.04331 -3.115536,6.21514 -1.151986,19.33365 2.780465,18.57633 1.808334,-0.34826 2.78587,-3.61823 2.960871,-9.90445 0.08509,-3.05658 -0.234733,-3.98438 -1.373455,-3.98438 -0.816407,0 -1.308594,-0.52734 -1.09375,-1.17187 0.214844,-0.64454 1.199219,-1.17188 2.1875,-1.17188 1.56052,0 1.830243,0.80155 2.050557,6.09375 0.397414,9.54636 -3.662298,15.77093 -7.511716,11.51737 z m 10.381447,-3.78299 c -0.08681,-2.44922 -0.192279,-8.03907 -0.234375,-12.42188 l -0.07654,-7.96875 2.675766,-0.30607 c 6.617864,-0.75698 9.553904,8.24733 4.917144,15.07998 l -2.25085,3.31681 1.83261,3.0135 c 1.00794,1.65742 1.60914,3.23697 1.336,3.51011 -0.74206,0.74207 -3.2011,-1.56061 -3.85004,-3.60524 -0.875043,-2.757 -2.31688,-2.12089 -2.31688,1.02216 0,4.66128 -1.862756,3.15792 -2.032837,-1.64062 z m 6.313405,-7.85392 c 2.65538,-5.13494 0.75109,-11.13046 -3.535246,-11.13046 -1.536825,0 -1.714856,0.53769 -1.31925,3.98438 0.251531,2.1914 0.483562,5.82899 0.515625,8.08354 0.05137,3.61119 0.233062,3.95412 1.526372,2.88078 0.807429,-0.67011 2.073059,-2.38832 2.812499,-3.81824 z m 5.16618,8.32267 c 0.0395,-2.19141 0.5668,-7.78125 1.17187,-12.42188 0.83265,-6.38606 1.44204,-8.4375 2.50638,-8.4375 1.0114,0 1.71487,1.84266 2.50536,6.5625 2.01942,12.05755 2.48033,18.28125 1.35386,18.28125 -0.5757,0 -1.04672,-1.24073 -1.04672,-2.75717 0,-3.08872 -0.98582,-4.0877 -3.19665,-3.23932 -0.88742,0.34053 -1.49085,1.66988 -1.49085,3.28429 0,1.49171 -0.42187,2.7122 -0.9375,2.7122 -0.51562,0 -0.90521,-1.79297 -0.86575,-3.98437 z m 5.54293,-5.625 c -0.006,-0.64454 -0.27709,-2.78643 -0.60314,-4.75976 -0.72508,-4.38839 -2.16339,-2.7978 -2.18468,2.41601 -0.0102,2.50638 0.38934,3.51562 1.39189,3.51562 0.77344,0 1.40161,-0.52734 1.39593,-1.17187 z m 5.22116,0.36069 c -0.86058,-12.13859 -0.15078,-16.06382 2.90487,-16.06382 1.25511,0 3.31753,1.03551 4.58315,2.30114 2.88342,2.88341 3.14016,8.6425 0.52903,11.8671 -1.35409,1.67224 -1.56935,2.72172 -0.91259,4.44915 1.13645,2.98908 -1.21466,6.69511 -4.24739,6.69511 -2.11709,0 -2.22648,-0.3541 -2.85707,-9.24868 z m 5.0248,5.6423 c 0.63752,-1.19122 0.58931,-2.06867 -0.15451,-2.8125 -1.77995,-1.77994 -2.58113,-1.24253 -2.58113,1.73138 0,3.16226 1.33871,3.69131 2.73564,1.08112 z m 1.42996,-8.78972 c 0.80266,-1.14598 1.4594,-3.16148 1.4594,-4.4789 0,-2.88174 -2.39601,-6.5625 -4.2719,-6.5625 -1.05027,0 -1.3531,1.46876 -1.3531,6.5625 0,7.12987 1.31696,8.54589 4.1656,4.4789 z m 5.2222,1.84923 c 0.0157,-12.96302 0.42811,-14.76563 3.37779,-14.76563 1.22892,0 2.23441,0.42188 2.23441,0.9375 0,0.51563 -0.84375,0.9375 -1.875,0.9375 -1.71935,0 -1.875,0.625 -1.875,7.52942 0,5.82799 0.31778,7.65137 1.40625,8.06906 0.77344,0.29679 1.40625,0.91636 1.40625,1.37682 0,0.46046 -0.63281,0.8372 -1.40625,0.8372 -0.78124,0 -1.40625,0.83333 -1.40625,1.875 0,1.03125 0.60791,1.875 1.35092,1.875 0.74301,0 1.61166,0.42188 1.93033,0.9375 0.33805,0.54696 -0.61526,0.9375 -2.28842,0.9375 l -2.86783,0 0.0129,-10.54687 z m 8.12782,9.9375 c -0.35234,-0.35235 -0.64062,-6.05469 -0.64062,-12.67188 l 0,-12.03125 2.85511,0 c 3.86587,0 7.45739,3.66474 7.45739,7.6094 0,1.65391 -1.08056,4.85096 -2.40124,7.10454 l -2.40126,4.09742 2.00897,3.25057 c 1.47841,2.39213 1.67076,3.25057 0.72838,3.25057 -0.70433,0 -2.10746,-1.37109 -3.11809,-3.04687 -1.82785,-3.03087 -1.83919,-3.03457 -2.15652,-0.70313 -0.36552,2.68548 -1.3975,4.07523 -2.33212,3.14063 z m 7.4294,-15.09789 c 0.70217,-3.70833 -1.59121,-7.73024 -4.40795,-7.73024 -1.75487,0 -1.89921,0.50194 -1.6811,5.84616 0.13123,3.21538 0.43567,6.8771 0.67654,8.13714 l 0.43796,2.29098 2.19842,-2.74651 c 1.20913,-1.51059 2.45839,-4.11948 2.77613,-5.79753 z m -129.729677,8.65237 c -3.438896,-4.17969 -6.7778411,-12.24134 -6.7778411,-16.36462 0,-1.75231 0.7433307,-3.24482 2.0835991,-4.18358 2.576053,-1.80434 5.416401,-1.89471 5.416401,-0.17233 0,0.70789 0.888073,3.29471 1.973496,5.74849 1.738915,3.9311 1.87821,5.30756 1.171875,11.57991 l -0.801621,7.1185 -3.065909,-3.72637 z m 48.563105,-6.16115 c -0.582185,-2.27024 -1.245642,-4.68178 -1.474348,-5.35897 -0.228706,-0.67719 0.256185,-2.5308 1.077537,-4.11911 0.821351,-1.58832 1.491789,-4.19831 1.489864,-5.79999 -0.0051,-4.24186 -2.822441,-10.61669 -4.936325,-11.16948 -3.320789,-0.86841 -1.824349,-5.11985 1.952658,-5.54757 1.884611,-0.21342 2.733446,0.58959 4.950599,4.68335 1.56911,2.89722 2.894874,7.06184 3.205183,10.06844 0.616343,5.97179 -1.090321,15.09607 -3.515042,18.79234 l -1.691607,2.57871 -1.058519,-4.12772 z m -41.278446,-3.43077 c 0,-1.42138 -0.401359,-3.98378 -0.891909,-5.69422 -0.823425,-2.87112 -0.571477,-3.50331 3.28125,-8.23342 2.295238,-2.81793 4.173159,-5.51814 4.173159,-6.00046 0,-0.48232 1.258939,-1.52796 2.797641,-2.32366 3.632186,-1.87827 9.389859,-7.65071 9.389859,-9.41393 0,-2.1533 -1.116075,-1.64774 -5.15625,2.33569 -2.0625,2.03353 -4.076848,3.71802 -4.476329,3.74332 -0.399481,0.0253 -1.12732,-1.0087 -1.617421,-2.29776 -1.036201,-2.72541 -2.342425,-2.90223 -6.418464,-0.86884 -3.486245,1.73917 -3.82287,4.25457 -0.847161,6.33032 1.443098,1.00665 1.66519,1.47812 0.703125,1.49262 -0.773438,0.0117 -3.272285,-1.59175 -5.552994,-3.56313 l -4.146743,-3.58433 4.234072,-4.23407 c 7.285991,-7.28599 20.576396,-10.54752 30.07504,-7.38056 3.950721,1.31722 4.434141,3.09364 2.080476,7.64512 -1.715062,3.31657 -2.03355,8.19839 -0.701464,10.75213 1.266318,2.42766 2.422098,12.12811 1.711707,14.36635 -0.502118,1.58203 -0.899805,1.4426 -4.009492,-1.40576 -1.898647,-1.73909 -4.841689,-3.66448 -6.540094,-4.27863 -2.413861,-0.87286 -3.088008,-1.64859 -3.088008,-3.5533 0,-4.75331 -4.099629,-6.35495 -5.673112,-2.21638 -0.70769,1.86137 -0.594659,2.99614 0.458551,4.60354 1.267005,1.93369 1.225487,2.35224 -0.443842,4.47445 -1.012879,1.28767 -1.841597,2.91683 -1.841597,3.62036 0,1.53703 -5.398218,8.26886 -6.630754,8.26886 -0.478085,0 -0.869246,-1.16294 -0.869246,-2.58431 z m 22.213697,-1.76449 c -0.358158,-0.35816 -0.651197,-1.72598 -0.651197,-3.03959 0,-2.19478 0.122265,-2.26613 1.508204,-0.88019 1.045124,1.04512 1.245067,1.9784 0.651197,3.03959 -0.471355,0.84226 -1.150045,1.23835 -1.508204,0.88019 z m -6.739746,-5.02045 c -0.936129,-1.03441 -1.266449,-1.88075 -0.734044,-1.88075 1.179609,0 3.517877,2.67972 2.88794,3.30965 -0.248513,0.24852 -1.217766,-0.39449 -2.153896,-1.4289 z m 21.739746,-2.47955 c -1.001278,-1.00128 -0.771784,-6.9012 0.268442,-6.9012 1.337307,0 2.205046,4.29614 1.222397,6.05204 -0.461804,0.82519 -1.13268,1.20732 -1.490839,0.84916 z m 24.103479,-5.12764 c -1.536618,-1.70054 -1.784647,-3.46204 -1.776763,-12.61854 0.0059,-6.82357 0.40013,-11.03306 1.098774,-11.73171 0.827817,-0.82781 1.050864,1.63113 0.928337,10.23429 -0.134205,9.42324 0.09874,11.58509 1.387831,12.88003 1.442773,1.4493 1.628813,1.40718 2.710325,-0.61364 0.709901,-1.32646 1.17526,-6.10575 1.197348,-12.29687 0.01987,-5.56992 0.324171,-10.12712 0.676224,-10.12712 1.019073,0 1.878258,9.67156 1.302607,14.66301 -0.810342,7.02645 -1.228102,8.5268 -2.816481,10.11518 -1.929071,1.92907 -2.571288,1.86024 -4.708202,-0.50463 z m 10.635949,1.44104 c -1.117219,-1.13545 -0.850486,-24.57537 0.287658,-25.27878 1.56757,-0.96881 5.345045,0.33678 7.420765,2.56481 2.57343,2.76224 2.38989,6.62854 -0.57311,12.07255 -2.352076,4.32154 -2.398304,4.6613 -0.9375,6.89076 1.78693,2.7272 1.89436,3.34856 0.57896,3.34856 -0.52668,0 -1.43814,-1.05469 -2.025476,-2.34375 -1.470131,-3.22658 -3.400313,-2.93953 -3.754399,0.55835 -0.161575,1.59615 -0.610179,2.58052 -0.996898,2.1875 z m 5.123681,-10.79569 c 2.780782,-3.72457 3.114502,-8.44634 0.772822,-10.93453 -3.808934,-4.04726 -4.724628,-2.8965 -4.724628,5.93749 0,8.58568 0.654553,9.41335 3.951806,4.99704 z m 7.937762,10.72066 c -0.33573,-0.33573 0.0577,-1.09894 0.8742,-1.69601 1.34412,-0.98284 1.29837,-1.68865 -0.48331,-7.45708 -3.29483,-10.66738 -2.21297,-17.04478 2.77207,-16.34114 1.26017,0.17788 2.12109,0.74529 1.91315,1.26091 -0.20794,0.51563 -1.14307,0.8079 -2.07806,0.6495 -2.86724,-0.48574 -3.12589,3.82115 -0.77671,12.93314 1.77824,6.89743 1.93974,8.5889 0.93562,9.79879 -1.30848,1.57663 -2.19342,1.81543 -3.15696,0.85189 z m 8.23489,-1.2997 c -2.06266,-2.27921 -2.83974,-10.20118 -1.87987,-19.16432 1.05789,-9.87843 2.55104,-7.34393 1.83115,3.10824 -0.43354,6.29474 -0.27533,10.31144 0.49853,12.65625 2.50869,7.60138 4.73823,2.35136 4.73823,-11.15732 0,-9.93591 1.36857,-13.45774 2.07107,-5.32959 0.64423,7.45402 -0.69599,17.88447 -2.56311,19.94761 -2.09225,2.31191 -2.55407,2.30593 -4.696,-0.0609 z m 10.50055,1.28513 c -0.84264,-0.84263 -0.58661,-20.68536 0.31249,-24.21875 0.92426,-3.63227 0.97865,-3.14805 1.21088,10.78006 0.15659,9.39167 0.459,11.71779 1.5235,11.71875 0.73046,6.5e-4 1.5039,0.52853 1.71875,1.17307 0.41028,1.23084 -3.61925,1.69325 -4.76562,0.54687 z m 7.30619,-3.82812 c 0.24934,-1.9336 0.9346,-7.83985 1.52279,-13.125 0.78533,-7.05656 1.41501,-9.60938 2.37023,-9.60938 0.71543,0 1.30358,0.10547 1.307,0.23438 0.004,0.1289 0.84437,5.08593 1.86878,11.01562 2.10491,12.18397 2.2809,15 0.9375,15 -0.51562,0 -0.9375,-0.80925 -0.9375,-1.79832 0,-3.0385 -1.05508,-4.76418 -2.9128,-4.76418 -1.12448,0 -1.7747,0.65888 -1.7747,1.79832 0,2.45916 -0.96106,4.76418 -1.98638,4.76418 -0.46655,0 -0.64427,-1.58203 -0.39492,-3.51562 z m 5.52309,-9.375 c -0.7034,-5.47281 -2.19929,-7.49694 -2.21708,-3 -0.007,1.7789 -0.26719,4.18359 -0.5781,5.34375 -0.45471,1.69673 -0.18061,2.10937 1.40112,2.10937 1.80122,0 1.91832,-0.37409 1.39406,-4.45312 z M 8.8226719,907.52598 c 0,-1.97423 3.0522841,-9.64231 3.8381271,-9.64231 0.467155,0 0.849373,0.4027 0.849373,0.89489 0,0.49218 1.077399,1.97228 2.394222,3.28911 2.749479,2.74947 2.451228,3.85333 -1.210872,4.48157 -1.42428,0.24434 -3.327881,0.75999 -4.230225,1.14589 -0.9023438,0.3859 -1.6406251,0.30979 -1.6406251,-0.16915 z m 45.0000001,-1.26014 c 0,-1.06168 0.40345,-1.68098 0.896556,-1.37622 0.493105,0.30475 0.658906,1.1734 0.368447,1.93032 -0.743649,1.93792 -1.265003,1.70956 -1.265003,-0.5541 z m -1.375516,-6.81915 c -0.274717,-0.85966 -0.697181,-2.19583 -0.938811,-2.96927 -0.649172,-2.07795 0.738031,-1.70692 2.165785,0.57928 0.86551,1.3859 0.942896,2.28262 0.256247,2.96927 -0.68665,0.68664 -1.134582,0.5117 -1.483221,-0.57928 z m 2.844319,-9.90665 c 1.219149,-1.2848 2.522668,-1.81736 3.515625,-1.43633 2.070113,0.79438 2.028717,2.18181 -0.06255,2.09652 -0.902344,-0.0368 -2.484375,0.25904 -3.515625,0.6574 -1.833098,0.70812 -1.8317,0.67868 0.06255,-1.31759 z"
         id="path3473"
         inkscape:connector-curvature="0" />
      <path
         style="fill:#ffffff;fill-opacity:1"
         d="m 84.236873,936.21568 c -4.445177,-8.59602 -1.306245,-23.33201 4.969982,-23.33201 0.450972,0 1.638863,0.61355 2.639758,1.36344 1.677198,1.25658 1.550632,1.32147 -1.615083,0.82793 -3.11922,-0.48628 -3.571549,-0.27123 -4.921875,2.34001 -2.738249,5.29519 -1.127128,20.78112 2.162019,20.78112 2.184967,0 3.850998,-4.31914 3.850998,-9.98361 0,-4.75111 -0.300488,-5.89493 -1.640625,-6.24515 -1.294106,-0.33818 -1.216286,-0.45171 0.368448,-0.53749 2.674805,-0.14479 3.359845,2.01909 2.622817,8.28483 -1.078086,9.16523 -5.354578,12.4606 -8.436439,6.50093 z m 11.773299,-9.58201 0,-12.8125 2.386359,0 c 1.314235,0 3.471379,1.085 4.801389,2.41502 2.04654,2.04654 2.33678,2.99826 1.90229,6.23766 -0.282,2.10245 -1.44038,5.07737 -2.57419,6.61092 -1.98769,2.68849 -2.00553,2.9056 -0.49848,6.06591 1.96964,4.13038 1.21869,5.19239 -0.84699,1.19782 -1.673212,-3.23565 -3.747684,-3.36116 -3.792291,-0.22944 -0.01547,1.08745 -0.331893,2.28091 -0.703125,2.65214 -0.371231,0.37124 -0.674962,-5.09066 -0.674962,-12.13753 z m 5.475458,1.95313 c 1.03311,-1.67579 2.16871,-4.21011 2.52356,-5.63183 0.86377,-3.46079 -1.61601,-7.2588 -4.739377,-7.2588 -2.289057,0 -2.322141,0.11353 -2.322141,7.96875 0,8.97494 1.222106,10.30044 4.537958,4.92188 z m 5.7889,10.54112 c -0.0591,-1.95089 2.91767,-24.80129 3.27775,-25.16136 0.25184,-0.25184 0.65696,-0.25882 0.90027,-0.0155 0.69925,0.69925 4.39759,24.40515 3.88707,24.91567 -0.25219,0.2522 -0.74363,-1.06113 -1.09208,-2.9185 -0.51748,-2.75842 -1.04377,-3.37705 -2.87295,-3.37705 -1.69311,0 -2.24292,0.51459 -2.25377,2.10938 -0.0117,1.7218 -1.79853,6.02592 -1.84629,4.44737 z m 5.85988,-10.34518 c -0.47215,-4.95851 -1.30622,-8.39907 -2.03613,-8.39907 -0.91555,0 -2.13387,9.27774 -1.37878,10.49951 1.10186,1.78285 3.63624,0.22401 3.41491,-2.10044 z m 5.78378,9.12448 c -0.25884,-0.67455 -0.35107,-6.2644 -0.20495,-12.42188 0.2513,-10.5895 0.37311,-11.21075 2.25058,-11.47869 2.62027,-0.37394 6.92135,4.72018 6.92135,8.19752 0,1.43778 -0.82699,3.6655 -1.83777,4.95049 -1.40811,1.79011 -1.70287,3.16768 -1.26078,5.89201 0.45636,2.81218 0.21508,3.8203 -1.1539,4.82133 -2.19125,1.60227 -4.1086,1.61823 -4.71453,0.0392 z m 4.74557,-2.51516 c 0.70859,-2.23257 -0.074,-3.75839 -1.92767,-3.75839 -0.87602,0 -1.35092,0.9887 -1.35092,2.8125 0,3.24026 2.33644,3.91433 3.27859,0.94589 z m 0.29464,-7.54491 c 3.86131,-3.59735 1.90361,-12.15098 -2.78103,-12.15098 -1.51252,0 -1.7297,0.80438 -1.7297,6.40625 0,8.21567 0.78516,9.21562 4.51073,5.74473 z m 6.11347,9.80907 c -0.66114,-1.72291 0.13653,-22.72077 0.89182,-23.47606 0.28077,-0.28077 1.49593,-0.31903 2.70036,-0.085 l 2.18987,0.42549 -2.10937,0.69711 c -1.96236,0.64852 -2.10938,1.24011 -2.10938,8.48777 0,6.63136 0.24414,7.85447 1.64063,8.21941 1.5625,0.40832 1.5625,0.43392 0,0.53749 -1.08655,0.072 -1.64063,0.88457 -1.64063,2.40592 0,1.26344 0.73828,2.72717 1.64063,3.25274 1.46047,0.85065 1.40577,0.95871 -0.49817,0.98408 -1.17635,0.0157 -2.39394,-0.63634 -2.70576,-1.44894 z m 8.04922,-7.19442 c -0.5571,-17.06407 -0.66755,-16.13972 1.9652,-16.44722 2.78909,-0.32577 6.26781,2.57902 7.11075,5.93761 0.39432,1.57105 -0.26206,4.05959 -2.01661,7.64576 -2.52291,5.15666 -2.55338,5.39991 -1.01269,8.0844 0.87366,1.52228 1.37754,2.97871 1.11973,3.23653 -0.25781,0.25781 -1.2202,-0.85112 -2.13865,-2.46429 -1.97896,-3.47589 -3.32422,-3.3417 -4.13711,0.41267 -0.35609,1.64467 -0.71118,-0.90916 -0.89062,-6.40546 z m 5.46721,-2.55467 c 2.71449,-4.00633 2.86873,-9.86359 0.296,-11.24047 -4.23182,-2.26481 -4.74913,-1.494 -4.74913,7.07638 0,8.91033 0.75743,9.61859 4.45313,4.16409 z m -15.99413,-18.91768 c -1.29918,-0.72706 -1.56733,-2.26879 -1.49128,-8.57424 0.051,-4.22828 0.41347,-10.0081 0.8055,-12.84404 0.56424,-4.08163 0.7403,-2.4833 0.84478,7.66917 0.12905,12.5382 0.17924,12.83232 2.24138,13.13347 1.61627,0.23603 1.7674,0.44761 0.6465,0.90507 -0.80458,0.32836 -2.17568,0.19812 -3.04688,-0.28943 z m -43.775287,-1.73786 c -1.249978,-2.3356 -1.351635,-19.32655 -0.135274,-22.60934 0.516876,-1.39498 0.664192,1.97678 0.39421,9.02267 -0.357797,9.33764 -0.177077,11.56873 1.063139,13.125 1.459464,1.83139 1.526024,1.8339 2.862003,0.10779 1.823045,-2.35541 2.685577,-8.61763 2.211795,-16.05824 -0.212958,-3.34444 -0.0508,-6.0808 0.36036,-6.0808 1.248886,0 0.842667,18.97525 -0.461607,21.5625 -1.546277,3.0673 -4.886748,3.56106 -6.294626,0.93042 z m 11.349596,0.94458 c -0.06932,-0.77344 -0.392384,-6.36328 -0.717924,-12.42187 l -0.591889,-11.01563 3.2742,0 c 7.245844,0 8.976834,8.28232 3.369324,16.12137 -0.911827,1.2747 -0.822296,2.25102 0.45134,4.92187 0.87385,1.83247 1.20912,3.33176 0.74505,3.33176 -0.46406,0 -1.40429,-1.26635 -2.089392,-2.8141 -1.496738,-3.38136 -2.917013,-3.17239 -3.722471,0.54769 -0.325713,1.50434 -0.648919,2.10235 -0.718238,1.32891 z m 5.026651,-9.12388 c 3.90274,-5.7434 2.50171,-13.37612 -2.455261,-13.37612 -1.553138,0 -1.729697,0.86126 -1.729697,8.4375 0,4.78963 0.390703,8.4375 0.903703,8.4375 0.497034,0 1.973597,-1.57449 3.281255,-3.49888 z m 8.70567,9.44049 c 1.54655,-0.62405 1.4836,-3.88484 -0.16521,-8.55807 -2.51559,-7.12994 -2.76246,-11.74415 -0.76061,-14.21633 1.33761,-1.65189 2.26875,-2.03441 3.59229,-1.47575 1.63147,0.68863 1.58308,0.80721 -0.5571,1.36523 -3.14354,0.81965 -3.47445,5.0816 -1.10332,14.21032 1.93191,7.43777 1.80048,9.33863 -0.63761,9.22148 -0.97268,-0.0467 -1.10846,-0.24828 -0.36844,-0.54688 z m 6.69203,-1.43159 c -1.31607,-2.4384 -1.47675,-20.40035 -0.20285,-22.67728 0.43251,-0.77305 0.64095,3.46231 0.47055,9.56162 -0.24812,8.88228 -0.0269,11.30337 1.17188,12.82439 1.41887,1.80027 1.53024,1.80735 2.79457,0.1775 1.63425,-2.10669 2.8344,-13.30947 1.97244,-18.41144 -0.42309,-2.50422 -0.29425,-3.79731 0.37835,-3.79731 1.40293,0 1.24014,16.38759 -0.20489,20.625 -1.39089,4.07866 -4.62975,4.94042 -6.38005,1.69752 z m 18.97825,-0.78461 c -0.12662,-3.39199 1.36665,-17.42543 2.28129,-21.43914 0.92408,-4.05507 2.23526,-0.75415 3.70173,9.31917 0.78474,5.39045 1.67537,11.01374 1.97918,12.49622 0.37764,1.84268 0.22408,2.49251 -0.48536,2.05405 -0.57076,-0.35275 -1.03775,-1.91012 -1.03775,-3.46081 0,-2.52267 -0.27137,-2.78822 -2.57812,-2.5228 -2.12788,0.24484 -2.67937,0.86969 -3.15784,3.5779 l -0.57971,3.28125 -0.12342,-3.30584 z m 4.77394,-10.73693 c -0.41258,-8.82447 -1.75236,-8.63209 -2.69504,0.38699 -0.56933,5.44705 -0.48323,5.85299 1.16969,5.51518 1.54862,-0.31649 1.75006,-1.09594 1.52535,-5.90217 z"
         id="path3471"
         inkscape:connector-curvature="0" />
      <path
         style="fill:#ffffff;fill-opacity:1"
         d="m 90.081275,937.25867 c 0.424955,-0.77344 1.019181,-4.57031 1.320501,-8.4375 l 0.547855,-7.03125 0.15527,6.61769 c 0.112792,4.80721 -0.248474,7.11556 -1.320501,8.4375 -0.811676,1.0009 -1.128082,1.187 -0.703125,0.41356 z m 5.94325,-3.98437 c 0.0097,-2.07155 0.273084,-2.63853 0.822591,-1.77123 0.737156,1.16346 0.374925,4.8181 -0.477535,4.8181 -0.197672,0 -0.35295,-1.37109 -0.345056,-3.04687 z m 28.258665,1.17187 c 0,-1.28906 0.2128,-1.81641 0.47287,-1.17187 0.26007,0.64453 0.26007,1.69921 0,2.34375 -0.26007,0.64453 -0.47287,0.11718 -0.47287,-1.17188 z m 13.9885,-1.48437 c 0.045,-1.09214 0.26713,-1.31429 0.5664,-0.56641 0.27081,0.67676 0.23751,1.48535 -0.074,1.79687 -0.31153,0.31153 -0.5331,-0.24218 -0.49239,-1.23046 z m -42.187502,-13.125 c 0.045,-1.09214 0.267131,-1.31429 0.5664,-0.56641 0.270815,0.67676 0.237515,1.48535 -0.07397,1.79687 -0.311531,0.31153 -0.5331,-0.24218 -0.492394,-1.23046 z m 29.210362,-2.04092 c -1.09459,-2.33495 -1.06857,-2.41069 0.34319,-0.99893 0.84016,0.84016 1.37313,1.97709 1.18437,2.5265 -0.18875,0.54941 -0.87616,-0.138 -1.52756,-1.52757 z m -15.20752,0.01 c 0.008,-0.38672 0.4233,-1.33594 0.92314,-2.10938 0.73488,-1.13715 0.91153,-1.0026 0.92315,0.70313 0.008,1.16015 -0.40752,2.10937 -0.92315,2.10937 -0.51562,0 -0.93104,-0.31641 -0.92314,-0.70312 z M 96.084188,916.0868 c 0.045,-1.09214 0.267131,-1.31429 0.5664,-0.56641 0.270815,0.67676 0.237515,1.48535 -0.07397,1.79687 -0.311531,0.31153 -0.5331,-0.24218 -0.492394,-1.23046 z m -11.324016,0.19291 c 0,-0.19468 0.738281,-0.93296 1.640625,-1.64062 1.486927,-1.16613 1.520087,-1.13297 0.353958,0.35396 -1.224721,1.56163 -1.994583,2.05826 -1.994583,1.28666 z M 95.146685,904.8368 c 0.04498,-1.09214 0.267132,-1.31429 0.566406,-0.56641 0.270817,0.67676 0.23751,1.48535 -0.07402,1.79687 -0.311524,0.31153 -0.533101,-0.24218 -0.492394,-1.23046 z m 32.056325,-2.26563 c 0,-2.32031 0.18283,-3.26953 0.40628,-2.10937 0.22347,1.16015 0.22347,3.05859 0,4.21875 -0.22345,1.16015 -0.40628,0.21093 -0.40628,-2.10938 z m -36.562497,-4.6875 c 0,-2.32031 0.182828,-3.26953 0.406284,-2.10937 0.223456,1.16015 0.223456,3.05859 0,4.21875 -0.223456,1.16015 -0.406284,0.21093 -0.406284,-2.10938 z m -0.01892,-8.90625 c 0.01041,-2.0625 0.202393,-2.79586 0.426636,-1.62969 0.224243,1.16616 0.21573,2.85366 -0.01892,3.75 -0.23465,0.89633 -0.418123,-0.0578 -0.407718,-2.12031 z m 36.594217,-0.9375 c 0.007,-2.57812 0.18911,-3.52154 0.40459,-2.09648 0.2155,1.42505 0.20973,3.53443 -0.0127,4.6875 -0.22257,1.15306 -0.39887,-0.0129 -0.39184,-2.59102 z m 10.19238,-2.34375 c 0,-1.28906 0.2128,-1.81641 0.47287,-1.17187 0.26007,0.64453 0.26007,1.69921 0,2.34375 -0.26007,0.64453 -0.47287,0.11718 -0.47287,-1.17188 z"
         id="path3469"
         inkscape:connector-curvature="0" />
    </g>
  </g>
</svg>
