<?xml version="1.0" encoding="UTF-8" standalone="no"?>
<!-- Created with Inkscape (http://www.inkscape.org/) -->

<svg
   xmlns:dc="http://purl.org/dc/elements/1.1/"
   xmlns:cc="http://creativecommons.org/ns#"
   xmlns:rdf="http://www.w3.org/1999/02/22-rdf-syntax-ns#"
   xmlns:svg="http://www.w3.org/2000/svg"
   xmlns="http://www.w3.org/2000/svg"
   xmlns:sodipodi="http://sodipodi.sourceforge.net/DTD/sodipodi-0.dtd"
   xmlns:inkscape="http://www.inkscape.org/namespaces/inkscape"
   width="141.30109"
   height="61.936859"
   viewBox="0 0 141.30109 61.936858"
   id="svg2"
   version="1.1"
   inkscape:version="0.91 r13725"
   sodipodi:docname="traced_logos.svg">
  <defs
     id="defs4" />
  <sodipodi:namedview
     id="base"
     pagecolor="#ffffff"
     bordercolor="#666666"
     borderopacity="1.0"
     inkscape:pageopacity="0.0"
     inkscape:pageshadow="2"
     inkscape:zoom="2.8"
     inkscape:cx="1.6173605"
     inkscape:cy="80.5395"
     inkscape:document-units="px"
     inkscape:current-layer="layer1"
     showgrid="false"
     units="px"
     borderlayer="true"
     showborder="true"
     inkscape:window-width="1920"
     inkscape:window-height="1026"
     inkscape:window-x="0"
     inkscape:window-y="0"
     inkscape:window-maximized="1"
     fit-margin-top="0"
     fit-margin-left="0"
     fit-margin-right="0"
     fit-margin-bottom="0" />
  <metadata
     id="metadata7">
    <rdf:RDF>
      <cc:Work
         rdf:about="">
        <dc:format>image/svg+xml</dc:format>
        <dc:type
           rdf:resource="http://purl.org/dc/dcmitype/StillImage" />
        <dc:title></dc:title>
      </cc:Work>
    </rdf:RDF>
  </metadata>
  <g
     inkscape:label="Layer 1"
     inkscape:groupmode="layer"
     id="layer1"
     transform="translate(-5.0375696,-973.44341)">
    <g
       id="g3467"
       transform="translate(-1.5152288,-74.49875)">
      <path
         style="fill:$theme-light-color;fill-opacity:1"
         d="m 31.396548,1109.5684 c -4.82618,-1.1154 -6.69984,-2.3466 -6.63206,-4.358 0.0479,-1.4217 -0.55356,-2.1528 -1.93287,-2.3495 -2.71146,-0.3867 -3.96239,-5.8345 -1.6566,-7.2144 4.01404,-2.4024 6.74688,-5.3705 8.36188,-9.0819 0.96764,-2.2237 1.87684,-4.2084 2.02044,-4.4103 0.337,-0.474 3.98566,3.8937 4.02677,4.8203 0.0172,0.3867 -0.52099,0.7031 -1.19588,0.7031 -0.67488,0 -2.02949,0.5868 -3.01023,1.3039 -1.49136,1.0905 -1.80614,2.6247 -1.92358,9.375 -0.0772,4.4391 0.0395,8.0711 0.25937,8.0711 0.21987,0 1.22548,-0.4419 2.23469,-0.982 1.63434,-0.8747 1.76825,-1.6327 1.22508,-6.9343 -0.55212,-5.3891 -0.42693,-6.0502 1.32307,-6.9867 2.79946,-1.4983 6.45309,-1.269 7.11128,0.4463 0.31252,0.8144 0.30486,3.1277 -0.017,5.1406 -0.46,2.8767 -0.25919,3.785 0.93833,4.2446 1.69193,0.6492 2.06156,3.6909 0.56122,4.6181 -0.5293,0.3272 -0.84571,1.3013 -0.70313,2.1647 0.21106,1.2782 -0.6119,1.5972 -4.42826,1.7163 -2.57812,0.08 -5.53125,-0.049 -6.56249,-0.2869 z m 16.22832,-4.5469 c 0.43392,-3.717 0.75633,-3.8969 3.13144,-1.7474 1.52027,1.3758 1.75264,1.3834 2.25538,0.073 0.82933,-2.1612 -1.23911,-5.3571 -3.46718,-5.3571 -1.38888,0 -1.7796,-0.4241 -1.37124,-1.4883 0.31409,-0.8185 0.83872,-3.1619 1.16583,-5.2075 0.61729,-3.8604 3.86024,-9.5585 5.49495,-9.6551 0.51562,-0.03 1.94831,4.0459 3.18375,9.0586 1.90212,7.7177 2.05281,9.3471 0.98356,10.6355 -1.17659,1.4177 -10.09935,6.9409 -11.24469,6.9605 -0.28318,0 -0.34249,-1.4678 -0.1318,-3.2725 z m -34.29423,-6.5862 c -3.4388996,-4.1797 -6.7778396,-12.2413 -6.7778396,-16.3646 0,-1.7523 0.74333,-3.2448 2.0836,-4.1836 2.5760496,-1.8043 5.4163996,-1.8947 5.4163996,-0.1723 0,0.7079 0.88807,3.2947 1.97349,5.7485 1.73892,3.9311 1.87821,5.3075 1.17188,11.5799 l -0.80162,7.1185 z m 48.5631,-6.1611 c -0.58218,-2.2703 -1.24564,-4.6818 -1.47434,-5.359 -0.22871,-0.6772 0.25618,-2.5308 1.07753,-4.1191 0.82135,-1.5883 1.49179,-4.1983 1.48987,-5.8 -0.005,-4.2419 -2.82244,-10.6167 -4.93633,-11.1695 -3.32079,-0.8684 -1.82435,-5.1198 1.95266,-5.5475 1.88461,-0.2135 2.73345,0.5895 4.9506,4.6833 1.56911,2.8972 2.89487,7.0618 3.20518,10.0684 0.61634,5.9718 -1.09032,15.0961 -3.51504,18.7924 l -1.69161,2.5787 z m -41.27844,-3.4308 c 0,-1.4214 -0.40136,-3.9838 -0.89191,-5.6942 -0.82343,-2.8711 -0.57148,-3.5033 3.28125,-8.2334 2.29524,-2.818 4.17316,-5.5182 4.17316,-6.0005 0,-0.4823 1.25894,-1.528 2.79764,-2.3237 3.63218,-1.8782 9.38986,-7.6507 9.38986,-9.4139 0,-2.1533 -1.11608,-1.6477 -5.15625,2.3357 -2.0625,2.0335 -4.07685,3.718 -4.47633,3.7433 -0.39948,0.025 -1.12732,-1.0087 -1.61742,-2.2977 -1.0362,-2.7254 -2.34243,-2.9023 -6.41847,-0.8689 -3.48624,1.7392 -3.82287,4.2546 -0.84716,6.3303 1.4431,1.0067 1.66519,1.4782 0.70313,1.4927 -0.77344,0.012 -3.27229,-1.5918 -5.553,-3.5632 l -4.14674,-3.5843 4.23407,-4.2341 c 7.28599,-7.286 20.5764,-10.5475 30.07504,-7.3805 3.95072,1.3172 4.43414,3.0936 2.08048,7.6451 -1.71506,3.3166 -2.03355,8.1984 -0.70147,10.7521 1.26632,2.4277 2.4221,12.1281 1.71171,14.3664 -0.50212,1.582 -0.8998,1.4426 -4.00949,-1.4058 -1.89865,-1.7391 -4.84169,-3.6645 -6.54009,-4.2786 -2.41387,-0.8729 -3.08801,-1.6486 -3.08801,-3.5533 0,-4.7533 -4.09963,-6.355 -5.67311,-2.2164 -0.70769,1.8614 -0.59466,2.9961 0.45855,4.6035 1.267,1.9337 1.22548,2.3523 -0.44385,4.4745 -1.01287,1.2877 -1.84159,2.9168 -1.84159,3.6204 0,1.537 -5.39822,8.2688 -6.63076,8.2688 -0.47808,0 -0.86924,-1.1629 -0.86924,-2.5843 z m 22.21369,-1.7645 c -0.35815,-0.3581 -0.65119,-1.726 -0.65119,-3.0396 0,-2.1948 0.12226,-2.2661 1.5082,-0.8802 1.04513,1.0452 1.24507,1.9784 0.6512,3.0396 -0.47136,0.8423 -1.15005,1.2384 -1.50821,0.8802 z m -6.73974,-5.0204 c -0.93613,-1.0344 -1.26645,-1.8808 -0.73405,-1.8808 1.17961,0 3.51788,2.6797 2.88794,3.3097 -0.24851,0.2485 -1.21776,-0.3945 -2.15389,-1.4289 z m 21.73974,-2.4796 c -1.00127,-1.0013 -0.77178,-6.9012 0.26845,-6.9012 1.3373,0 2.20504,4.2962 1.22239,6.0521 -0.4618,0.8251 -1.13268,1.2073 -1.49084,0.8491 z m -51.2761896,-5.6964 c 0,-1.9742 3.05228,-9.6423 3.8381196,-9.6423 0.46716,0 0.84938,0.4027 0.84938,0.8949 0,0.4922 1.0774,1.9723 2.39422,3.2891 2.74948,2.7495 2.45123,3.8533 -1.21087,4.4816 -1.42428,0.2443 -3.3278796,0.76 -4.2302296,1.1459 -0.90234,0.3859 -1.64062,0.3098 -1.64062,-0.1692 z m 44.9999996,-1.2601 c 0,-1.0617 0.40345,-1.681 0.89655,-1.3762 0.49311,0.3047 0.65891,1.1734 0.36845,1.9303 -0.74365,1.9379 -1.265,1.7095 -1.265,-0.5541 z m -1.37552,-6.8192 c -0.27472,-0.8596 -0.69718,-2.1958 -0.93881,-2.9692 -0.64917,-2.078 0.73803,-1.707 2.16579,0.5792 0.86551,1.3859 0.94289,2.2827 0.25624,2.9693 -0.68665,0.6867 -1.13458,0.5117 -1.48322,-0.5793 z m 2.84432,-9.9066 c 1.21915,-1.2848 2.52267,-1.8174 3.51563,-1.4363 2.07011,0.7943 2.02871,2.1818 -0.0625,2.0965 -0.90235,-0.037 -2.48438,0.259 -3.51563,0.6574 -1.8331,0.7081 -1.8317,0.6787 0.0626,-1.3176 z"
         id="path3473-3"
         inkscape:connector-curvature="0"
         sodipodi:nodetypes="cssssscsssssssssssssccssssscsscccsssssscsssssssssscsssssssssssscscssssssssssssssssssssscssssssssssssscssssssssssss" />
    </g>
    <g
       id="g3461"
       transform="translate(-1.234013,93.472036)">
      <path
         style="fill-opacity:1"
         d="m 84.115749,936.65444 c -2.589739,-3.95084 -2.419746,-17.0314 0.268389,-20.65185 2.253743,-3.0354 6.067182,-3.8922 7.83622,-1.76064 1.053745,1.26968 0.863418,1.38457 -1.508039,0.91027 -2.049466,-0.40989 -3.167801,-0.0413 -4.56744,1.50526 -2.686666,2.96873 -2.715356,16.63945 -0.04112,19.59445 1.620859,1.79103 1.962756,1.85218 3.236075,0.57887 0.876998,-0.877 1.573031,-3.76834 1.812503,-7.52919 0.328431,-5.15795 0.153581,-6.10544 -1.126701,-6.10544 -0.833506,0 -1.515465,-0.45122 -1.515465,-1.0027 0,-0.55149 0.949219,-0.8679 2.109375,-0.70313 1.823689,0.25901 2.146805,0.93882 2.385737,5.01943 0.151999,2.59592 -0.269876,6.39279 -0.9375,8.4375 -0.966821,2.96104 -1.726607,3.77687 -3.733285,4.00863 -1.897934,0.2192 -2.938611,-0.34852 -4.21875,-2.30146 z m 11.738173,-8.24669 c -0.08594,-5.96012 -0.191406,-11.57486 -0.234375,-12.4772 -0.133213,-2.79747 4.630583,-2.64215 7.517833,0.24511 2.11771,2.11771 2.40939,3.06272 2.01775,6.53741 -0.25181,2.23401 -1.38952,5.37027 -2.52824,6.96946 l -2.07041,2.90762 2.02206,3.27176 c 1.1488,1.85881 1.56534,3.27176 0.96449,3.27176 -0.58166,0 -1.77622,-1.26296 -2.65459,-2.80657 -1.938287,-3.40632 -3.003268,-3.59426 -3.003268,-0.53001 0,1.25863 -0.421875,2.54916 -0.9375,2.86783 -0.601116,0.37151 -0.993564,-3.30884 -1.09375,-10.25717 z m 6.905858,-3.08157 c 1.62126,-3.65675 1.6439,-4.18318 0.29231,-6.79688 -1.03135,-1.99442 -2.15178,-2.83313 -3.784743,-2.83313 -2.595441,0 -2.843466,1.59719 -1.7115,11.02147 0.513103,4.27185 0.781847,4.77096 2.019206,3.75 0.785037,-0.64775 2.218167,-2.9614 3.184727,-5.14146 z m 4.89533,7.71374 c 0.33016,-3.60937 0.98343,-9.24379 1.45172,-12.52092 1.49274,-10.44635 2.66165,-9.28506 4.85097,4.81935 1.94028,12.49995 2.03595,14.08897 0.80237,13.32657 -0.51562,-0.31867 -0.9375,-1.84948 -0.9375,-3.40178 0,-2.39067 -0.32264,-2.77655 -2.10937,-2.5228 -1.43526,0.20384 -2.20965,1.0486 -2.42314,2.64333 -0.17257,1.28906 -0.74611,2.76563 -1.27454,3.28125 -0.65514,0.63925 -0.76982,-1.15021 -0.36051,-5.625 z m 5.11915,-4.45312 c -0.16329,-4.48514 -1.24617,-8.81233 -1.9336,-7.72665 -0.51198,0.8086 -1.1178,7.94451 -0.85493,10.0704 0.0478,0.38671 0.71975,0.70312 1.49319,0.70312 0.98429,0 1.37297,-0.91424 1.29534,-3.04687 z m 5.73591,-1.5853 c 0,-7.51182 0.37733,-12.36537 0.99079,-12.74451 1.94504,-1.2021 5.56276,0.57748 7.06003,3.47287 1.76376,3.41075 1.27658,8.5541 -1.05422,11.1296 -1.22171,1.34998 -1.30873,2.07744 -0.44219,3.69659 1.47387,2.75396 -0.9864,6.57762 -4.23227,6.57762 l -2.32214,0 0,-12.13217 z m 4.58889,8.96975 c 1.29711,-1.56293 0.39648,-4.33758 -1.40794,-4.33758 -0.82605,0 -1.30595,1.0335 -1.30595,2.8125 0,3.02523 1.0017,3.58813 2.71389,1.52508 z m 2.38896,-11.24194 c 1.62641,-4.54503 -2.85611,-11.63938 -5.11518,-8.09564 -1.01078,1.58558 -1.19375,7.80804 -0.32497,11.0512 0.5235,1.9542 0.75162,2.02801 2.56532,0.83001 1.0949,-0.72321 2.38858,-2.42672 2.87483,-3.78557 z m 4.27215,4.6778 c 0,-13.03904 0.55534,-15.58594 3.39844,-15.58594 1.22461,0 2.22656,0.42188 2.22656,0.9375 0,0.51563 -0.84375,0.9375 -1.875,0.9375 -1.72666,0 -1.875,0.625 -1.875,7.90001 0,6.73549 0.24184,7.96321 1.64063,8.32875 1.5625,0.40832 1.5625,0.43392 0,0.53749 -2.09644,0.13896 -2.32403,4.79625 -0.23438,4.79625 0.77344,0 1.40625,0.42188 1.40625,0.9375 0,0.51563 -1.05469,0.9375 -2.34375,0.9375 l -2.34375,0 0,-9.72656 z m 8.48592,6.91406 c -0.1138,-1.80469 -0.27672,-7.5 -0.36204,-12.65625 l -0.15513,-9.375 2.5602,-0.29492 c 3.38706,-0.39016 7.28355,3.43164 7.28355,7.14393 0,1.49351 -1.05433,4.6984 -2.34295,7.12196 -2.22098,4.17708 -2.26618,4.55494 -0.86837,7.25801 2.01296,3.89263 1.07572,4.38607 -1.48917,0.78402 -2.22085,-3.1189 -3.31462,-2.85748 -3.9987,0.95575 -0.34007,1.89562 -0.46003,1.71637 -0.62739,-0.9375 z m 6.10715,-9.49454 c 2.64136,-5.10782 0.75382,-11.13046 -3.48837,-11.13046 -1.53406,0 -1.7297,0.83063 -1.7297,7.34375 0,4.03906 0.2776,7.62134 0.61687,7.96062 0.85982,0.85981 3.00399,-1.08525 4.6012,-4.17391 z m -17.17119,-17.37635 c -1.34611,-0.54316 -1.53456,-15.77849 -0.28223,-22.81661 0.56086,-3.15204 0.78034,-0.95935 0.86801,8.67188 0.11243,12.35079 0.19818,12.89062 2.04767,12.89062 1.06168,0 1.6696,0.42188 1.35092,0.9375 -0.61129,0.98911 -2.037,1.1024 -3.98437,0.31661 z m -43.528282,-2.36909 c -1.52711,-2.68241 -1.522033,-20.23825 0.0067,-22.86445 0.800782,-1.37573 0.930437,0.52599 0.548286,8.04193 -0.502631,9.88547 0.213564,15.0436 2.179772,15.699 2.21354,0.73785 3.43509,-4.02996 3.481416,-13.58824 0.02561,-5.2844 0.362975,-9.60862 0.749694,-9.60938 1.497284,-0.003 1.025103,18.17843 -0.559956,21.56112 -1.480398,3.15934 -4.814662,3.55493 -6.405823,0.76002 z m 11.284797,1.58373 c -0.330298,-0.51562 -0.667469,-6.07028 -0.749267,-12.34369 -0.13919,-10.6748 -0.02773,-11.44458 1.738162,-12.00506 2.280287,-0.72373 5.097,0.65987 7.06589,3.47085 2.03662,2.90771 1.8265,5.11539 -1.02291,10.74715 -2.354606,4.65379 -2.401012,5.0125 -0.9375,7.2461 1.77651,2.71129 1.89643,3.3534 0.62631,3.3534 -0.50239,0 -1.59297,-1.3141 -2.423534,-2.92022 -1.617685,-3.12826 -2.873063,-2.74025 -3.381693,1.04522 -0.173204,1.28906 -0.58516,1.92188 -0.915458,1.40625 z m 6.323835,-11.90436 c 1.84074,-3.55959 1.62961,-6.99505 -0.56473,-9.18939 -3.83412,-3.83412 -4.687498,-2.61294 -4.687498,6.7078 l 0,8.5828 1.970981,-1.78371 c 1.084041,-0.98104 2.560607,-2.92392 3.281247,-4.3175 z m 7.16965,11.72687 c 2.08422,-0.54467 2.05878,-1.61853 -0.23438,-9.89366 -1.03125,-3.72139 -1.875,-7.90467 -1.875,-9.29617 0,-2.91089 2.36786,-5.70053 4.48923,-5.28888 2.33526,0.45315 2.32659,2.31791 -0.0104,2.2334 -3.03471,-0.10973 -3.2902,4.62465 -0.71728,13.29159 2.26163,7.61828 2.01431,9.65231 -1.15403,9.49121 -1.58788,-0.0807 -1.71621,-0.21919 -0.49817,-0.53749 z m 7.14603,-0.9091 c -1.57481,-1.90366 -1.7388,-22.27376 -0.19178,-23.82079 0.68865,-0.68865 0.85733,2.34757 0.56034,10.08607 -0.34387,8.96003 -0.15198,11.42887 1.0062,12.94631 1.02332,1.34073 1.72257,1.58817 2.45398,0.86837 1.67067,-1.64415 2.93613,-11.66822 2.29914,-18.21212 -0.46658,-4.79326 -0.34798,-5.86095 0.55575,-5.00289 1.62238,1.54038 0.92347,21.03995 -0.82984,23.15256 -1.63771,1.97332 -4.21324,1.96561 -5.85379,-0.0175 z m 18.39507,-1.02278 c 0.22886,-1.41797 0.88232,-7.00782 1.45214,-12.42188 0.93835,-8.91568 1.93744,-12.39743 3.19625,-11.13863 0.45517,0.45517 4.2631,22.75443 4.26344,24.96676 4.2e-4,2.5898 -1.77597,0.9649 -2.04978,-1.875 -0.22263,-2.30897 -0.7917,-3.11774 -2.34975,-3.33946 -1.69691,-0.24148 -2.16539,0.29065 -2.68246,3.04687 -0.72857,3.88362 -2.44932,4.59956 -1.82984,0.76134 z m 5.60578,-10.90859 c -0.89742,-6.77945 -1.94494,-7.18492 -2.668,-1.03273 -0.68724,5.84723 -0.29192,7.20663 1.85597,6.38241 1.16453,-0.44687 1.32291,-1.49028 0.81203,-5.34968 z"
         id="path3465"
         inkscape:connector-curvature="0" />
      <path
         style="fill-opacity:1"
         d="m 90.081275,937.25867 c 0.424955,-0.77344 1.019181,-4.57031 1.320501,-8.4375 l 0.547855,-7.03125 0.15527,6.61769 c 0.112792,4.80721 -0.248474,7.11556 -1.320501,8.4375 -0.811676,1.0009 -1.128082,1.187 -0.703125,0.41356 z m 5.94325,-3.98437 c 0.0097,-2.07155 0.273084,-2.63853 0.822591,-1.77123 0.737156,1.16346 0.374925,4.8181 -0.477535,4.8181 -0.197672,0 -0.35295,-1.37109 -0.345056,-3.04687 z m 28.258665,1.17187 c 0,-1.28906 0.2128,-1.81641 0.47287,-1.17187 0.26007,0.64453 0.26007,1.69921 0,2.34375 -0.26007,0.64453 -0.47287,0.11718 -0.47287,-1.17188 z m 13.9885,-1.48437 c 0.045,-1.09214 0.26713,-1.31429 0.5664,-0.56641 0.27081,0.67676 0.23751,1.48535 -0.074,1.79687 -0.31153,0.31153 -0.5331,-0.24218 -0.49239,-1.23046 z m -42.187502,-13.125 c 0.045,-1.09214 0.267131,-1.31429 0.5664,-0.56641 0.270815,0.67676 0.237515,1.48535 -0.07397,1.79687 -0.311531,0.31153 -0.5331,-0.24218 -0.492394,-1.23046 z m 29.210362,-2.04092 c -1.09459,-2.33495 -1.06857,-2.41069 0.34319,-0.99893 0.84016,0.84016 1.37313,1.97709 1.18437,2.5265 -0.18875,0.54941 -0.87616,-0.138 -1.52756,-1.52757 z m -15.20752,0.01 c 0.008,-0.38672 0.4233,-1.33594 0.92314,-2.10938 0.73488,-1.13715 0.91153,-1.0026 0.92315,0.70313 0.008,1.16015 -0.40752,2.10937 -0.92315,2.10937 -0.51562,0 -0.93104,-0.31641 -0.92314,-0.70312 z M 96.084188,916.0868 c 0.045,-1.09214 0.267131,-1.31429 0.5664,-0.56641 0.270815,0.67676 0.237515,1.48535 -0.07397,1.79687 -0.311531,0.31153 -0.5331,-0.24218 -0.492394,-1.23046 z m -11.324016,0.19291 c 0,-0.19468 0.738281,-0.93296 1.640625,-1.64062 1.486927,-1.16613 1.520087,-1.13297 0.353958,0.35396 -1.224721,1.56163 -1.994583,2.05826 -1.994583,1.28666 z M 95.146685,904.8368 c 0.04498,-1.09214 0.267132,-1.31429 0.566406,-0.56641 0.270817,0.67676 0.23751,1.48535 -0.07402,1.79687 -0.311524,0.31153 -0.533101,-0.24218 -0.492394,-1.23046 z m 32.056325,-2.26563 c 0,-2.32031 0.18283,-3.26953 0.40628,-2.10937 0.22347,1.16015 0.22347,3.05859 0,4.21875 -0.22345,1.16015 -0.40628,0.21093 -0.40628,-2.10938 z m -36.562497,-4.6875 c 0,-2.32031 0.182828,-3.26953 0.406284,-2.10937 0.223456,1.16015 0.223456,3.05859 0,4.21875 -0.223456,1.16015 -0.406284,0.21093 -0.406284,-2.10938 z m -0.01892,-8.90625 c 0.01041,-2.0625 0.202393,-2.79586 0.426636,-1.62969 0.224243,1.16616 0.21573,2.85366 -0.01892,3.75 -0.23465,0.89633 -0.418123,-0.0578 -0.407718,-2.12031 z m 36.594217,-0.9375 c 0.007,-2.57812 0.18911,-3.52154 0.40459,-2.09648 0.2155,1.42505 0.20973,3.53443 -0.0127,4.6875 -0.22257,1.15306 -0.39887,-0.0129 -0.39184,-2.59102 z m 10.19238,-2.34375 c 0,-1.28906 0.2128,-1.81641 0.47287,-1.17187 0.26007,0.64453 0.26007,1.69921 0,2.34375 -0.26007,0.64453 -0.47287,0.11718 -0.47287,-1.17188 z"
         id="path3463"
         inkscape:connector-curvature="0" />
    </g>
  </g>
</svg>
