<?xml version="1.0" encoding="UTF-8" standalone="no"?>
<!-- Generator: Adobe Illustrator 16.0.0, SVG Export Plug-In . SVG Version: 6.00 Build 0)  -->

<svg
   xmlns:dc="http://purl.org/dc/elements/1.1/"
   xmlns:cc="http://creativecommons.org/ns#"
   xmlns:rdf="http://www.w3.org/1999/02/22-rdf-syntax-ns#"
   xmlns:svg="http://www.w3.org/2000/svg"
   xmlns="http://www.w3.org/2000/svg"
   xmlns:sodipodi="http://sodipodi.sourceforge.net/DTD/sodipodi-0.dtd"
   xmlns:inkscape="http://www.inkscape.org/namespaces/inkscape"
   version="1.1"
   id="Layer_1"
   x="0px"
   y="0px"
   width="68px"
   height="67.5px"
   viewBox="-22.5 0 68 67.5"
   enable-background="new -22.5 0 68 67.5"
   xml:space="preserve"
   inkscape:version="0.91 r13725"
   sodipodi:docname="logo.svg"><metadata
     id="metadata3541"><rdf:RDF><cc:Work
         rdf:about=""><dc:format>image/svg+xml</dc:format><dc:type
           rdf:resource="http://purl.org/dc/dcmitype/StillImage" /><dc:title></dc:title></cc:Work></rdf:RDF></metadata><defs
     id="defs3539" /><sodipodi:namedview
     pagecolor="#ffffff"
     bordercolor="#666666"
     borderopacity="1"
     objecttolerance="10"
     gridtolerance="10"
     guidetolerance="10"
     inkscape:pageopacity="0"
     inkscape:pageshadow="2"
     inkscape:window-width="1920"
     inkscape:window-height="1026"
     id="namedview3537"
     showgrid="false"
     inkscape:snap-text-baseline="true"
     inkscape:zoom="6.237037"
     inkscape:cx="29.15798"
     inkscape:cy="57.964506"
     inkscape:window-x="0"
     inkscape:window-y="0"
     inkscape:window-maximized="1"
     inkscape:current-layer="Layer_1" /><g
     id="g3493"
     transform="translate(2.0041568,0.5611639)"><g
       style="font-style:normal;font-weight:normal;font-size:12.5px;line-height:125%;font-family:sans-serif;letter-spacing:0px;word-spacing:0px;fill:#444444;fill-opacity:1;stroke:none;stroke-width:1px;stroke-linecap:butt;stroke-linejoin:miter;stroke-opacity:1"
       id="text3543"><path
         d="m 1.4310863,49.455404 q 0,3.95 -3.3625,3.95 -3.3625,0 -3.3625,-3.95 l 0,-5.175 0.75,0 0,5.15 q 0,1.5875 0.6375,2.475 0.6375,0.875 1.975,0.875 1.33750005,0 1.97500005,-0.875 0.6375,-0.8875 0.6375,-2.475 l 0,-5.15 0.74999995,0 0,5.175 z"
         style="font-style:normal;font-variant:normal;font-weight:normal;font-stretch:normal;font-family:Laksaman;-inkscape-font-specification:Laksaman;letter-spacing:-0.90000004px;writing-mode:lr-tb;fill:#444444;fill-opacity:1"
         id="path3427" /><path
         d="m 5.4463206,47.355404 q -0.075,-0.025 -0.225,-0.025 -0.825,0 -1.4,0.675 -0.5625,0.6625 -0.5625,1.7875 l 0,3.4375 -0.75,0 0,-4.3 q 0,-1.4125 -0.1875,-2.0875 l 0.6375,0 q 0.2,0.4 0.2,1.275 0.6,-1.4125 1.925,-1.4125 0.175,0 0.3625,0.0375 l 0,0.6125 z"
         style="font-style:normal;font-variant:normal;font-weight:normal;font-stretch:normal;font-family:Laksaman;-inkscape-font-specification:Laksaman;letter-spacing:-0.90000004px;writing-mode:lr-tb;fill:#444444;fill-opacity:1"
         id="path3429" /><path
         d="m 7.473469,47.330404 q -0.525,0 -0.875,0.3 -0.35,0.2875 -0.35,0.7625 0,0.35 0.3625,0.6875 0.375,0.3375 1.05,0.575 1.7125,0.5875 1.7125,1.8875 0,0.875 -0.6625,1.375 -0.65,0.4875 -1.65,0.4875 -0.925,0 -1.8,-0.5125 l 0.275,-0.6 q 0.9,0.4875 1.5875,0.4875 1.5,0 1.5,-1.1875 0,-0.4375 -0.3625,-0.7875 -0.35,-0.3625 -1.05,-0.575 -1.7125,-0.525 -1.7125,-1.7375 0,-0.8125 0.6,-1.3 0.6125,-0.4875 1.5125,-0.4875 0.9875,0 1.575,0.4375 l -0.3,0.6375 q -0.5625,-0.45 -1.4125,-0.45 z"
         style="font-style:normal;font-variant:normal;font-weight:normal;font-stretch:normal;font-family:Laksaman;-inkscape-font-specification:Laksaman;letter-spacing:-0.90000004px;writing-mode:lr-tb;fill:#444444;fill-opacity:1"
         id="path3431" /><path
         d="m 15.783821,53.205404 -0.7,0.1625 q -0.225,-0.6375 -0.3,-1.25 -0.8375,1.2875 -2.4,1.2875 -2.3,0 -2.3,-2.975 l 0,-3.5875 0.75,0 0,3.45 q 0,2.4875 1.7125,2.4875 0.8875,0 1.525,-0.6 0.6375,-0.6125 0.6375,-1.475 l 0,-3.8625 0.75,0 0,4.825 q 0,0.675 0.325,1.5375 z"
         style="font-style:normal;font-variant:normal;font-weight:normal;font-stretch:normal;font-family:Laksaman;-inkscape-font-specification:Laksaman;letter-spacing:-0.90000004px;writing-mode:lr-tb;fill:#444444;fill-opacity:1"
         id="path3433" /><path
         d="m 18.958039,52.780404 -0.075,0.625 q -2.375,-0.1125 -2.375,-3.3875 l 0,-6.2875 0.75,0 0,6.025 q 0,0.7125 0.0625,1.2 0.0625,0.4875 0.225,0.9375 0.175,0.45 0.525,0.675 0.35,0.2125 0.8875,0.2125 z"
         style="font-style:normal;font-variant:normal;font-weight:normal;font-stretch:normal;font-family:Laksaman;-inkscape-font-specification:Laksaman;letter-spacing:-0.90000004px;writing-mode:lr-tb;fill:#444444;fill-opacity:1"
         id="path3435" /><path
         d="m 20.917805,53.405404 q -0.85,0 -1.45,-0.4875 -0.5875,-0.5 -0.5875,-1.2875 0,-2.3875 4.25,-2.3875 0,-0.9125 -0.4375,-1.4125 -0.4375,-0.5 -1.2875,-0.5 -0.6875,0 -2.0375,0.425 l -0.0875,-0.7125 q 1.05,-0.3375 2.175,-0.3375 2.425,0 2.425,2.675 l 0,2.2875 q 0,0.7875 0.225,1.5625 l -0.65,0.1375 -0.2625,-1.0375 q -0.8625,1.075 -2.275,1.075 z m -1.2875,-1.9 q 0,0.5875 0.3625,0.9375 0.3625,0.3375 0.95,0.3375 0.75,0 1.4625,-0.4625 0.725,-0.475 0.725,-1.15 l 0,-1.3 q -3.5,0 -3.5,1.6375 z"
         style="font-style:normal;font-variant:normal;font-weight:normal;font-stretch:normal;font-family:Laksaman;-inkscape-font-specification:Laksaman;letter-spacing:-0.90000004px;writing-mode:lr-tb;fill:#444444;fill-opacity:1"
         id="path3437" /></g><g
       style="font-style:normal;font-weight:normal;font-size:6.25px;line-height:125%;font-family:sans-serif;letter-spacing:0px;word-spacing:0px;fill:#444444;fill-opacity:1;stroke:none;stroke-width:1px;stroke-linecap:butt;stroke-linejoin:miter;stroke-opacity:1"
       id="text3551"><path
         d="m -0.74575953,59.067865 q -0.24,0 -0.47249997,-0.09 -0.2325,-0.09 -0.2325,-0.2925 0,-0.1275 0.1125,-0.195 0.1125,-0.0675 0.255,-0.1125 0.14249997,-0.045 0.17999997,-0.1125 0.0375,-0.06 0.2625,-0.06 0.2925,0 0.69,0.09 0.3975,0.09 0.525,0.195 0.2175,0.18 0.33,0.9075 0.12000003,0.7275 0.12000003,1.6725 0,0.495 -0.13500003,0.585 -0.06,0.0525 -0.135,0.0525 -0.075,0 -0.1575,-0.075 -0.15,-0.1425 -0.15,-0.975 l 0,-0.855 -0.24,0.3975 q -0.4275,0.705 -0.9675,1.1025 -0.53999997,0.39 -1.04249997,0.39 -0.2925,0 -0.5475,-0.1425 -0.195,-0.105 -0.2925,-0.2475 -0.09,-0.15 -0.1875,-0.5175 -0.1125,-0.39 -0.1125,-0.7125 0,-0.225 0.045,-0.5925 0.075,-0.6 0.21,-0.945 0.1425,-0.345 0.5475,-0.945 0.285,-0.42 0.6225,-0.72 0.3375,-0.3 0.57749997,-0.4125 0.2475,-0.1125 0.4425,-0.21 0.2025,-0.105 0.2475,-0.18 0.075,-0.1275 0.3825,-0.1275 0.33,0 0.54,0.1425 0.2175,0.135 0.2175,0.2775 0,0.09 -0.09,0.27 -0.09,0.1725 -0.1875,0.1725 -0.0825,0 -0.135,-0.1725 -0.0525,-0.18 -0.165,-0.18 -0.1125,0 -0.285,0.045 -0.1725,0.045 -0.4425,0.1875 -0.2625,0.1425 -0.5325,0.3525 -0.26249997,0.21 -0.56999997,0.5925 -0.3075,0.375 -0.555,0.855 -0.225,0.435 -0.2775,0.6525 -0.0525,0.2175 -0.0525,0.7275 0,0.735 0.1275,1.005 0.1275,0.2625 0.48,0.2625 0.75,0 1.23749997,-0.645 0.24,-0.3225 0.4125,-0.6975 0.1725,-0.375 0.1725,-0.57 0,-0.12 -0.0975,-0.21 -0.09,-0.0975 -0.1875,-0.0975 -0.06,0 -0.165,0.0825 -0.0975,0.075 -0.3225,0.075 z"
         style="font-style:normal;font-variant:normal;font-weight:normal;font-stretch:normal;font-size:7.5px;font-family:Purisa;-inkscape-font-specification:Purisa"
         id="path3440" /><path
         d="m 4.7683811,58.002865 q 0.1275,0 0.225,0.0825 0.0975,0.075 0.0975,0.1275 0,0.09 -0.285,0.2025 -0.465,0.1875 -0.9525,0.9075 -0.48,0.7125 -0.585,1.38 -0.12,0.7575 -0.195,0.99 -0.075,0.24 -0.195,0.24 -0.105,0 -0.165,-0.075 -0.0525,-0.075 -0.075,-0.165 -0.015,-0.09 -0.0375,-0.33 -0.0075,-0.045 -0.0075,-0.0675 -0.18,-1.89 -0.18,-2.985 0,-0.39 0.03,-0.48 0.0825,-0.24 0.21,-0.24 0.12,0 0.12,0.2025 0,0.3375 0.105,1.0875 0.105,0.75 0.1575,0.75 0.0675,0 0.2775,-0.4125 0.2625,-0.4875 0.6975,-0.8475 0.4425,-0.3675 0.7575,-0.3675 z"
         style="font-style:normal;font-variant:normal;font-weight:normal;font-stretch:normal;font-size:7.5px;font-family:Purisa;-inkscape-font-specification:Purisa"
         id="path3442" /><path
         d="m 8.3188108,57.912865 q -0.345,0 -0.735,0.1425 -0.3825,0.1425 -0.6825,0.2925 -0.3,0.1425 -0.435,0.1425 -0.09,0 -0.09,-0.075 0,-0.105 0.045,-0.18 0.045,-0.075 0.165,-0.1425 0.12,-0.0675 0.225,-0.1125 0.1125,-0.045 0.3525,-0.1275 0.24,-0.09 0.4125,-0.165 0.405,-0.1575 0.6825,-0.1575 0.495,0 0.7725,0.54 0.135,0.2625 0.1575,0.4875 0.0225,0.2175 0.0375,1.2375 0.0075,0.57 0.0225,0.96 0.015,0.3825 0.03,0.4875 l 0.015,0.0975 q 0,0.105 -0.0975,0.225 -0.09,0.12 -0.135,0.12 -0.15,0 -0.2325,-0.4725 -0.0825,-0.48 -0.09,-0.48 -0.0225,0 -0.0675,0.0825 -0.15,0.2475 -0.6075,0.5475 -0.45,0.2925 -0.7575,0.2925 -0.1875,0 -0.4425,-0.0675 -0.2475,-0.075 -0.36,-0.1575 -0.0825,-0.0675 -0.1425,-0.27 -0.0525,-0.2025 -0.0525,-0.4125 0,-0.315 0.165,-0.54 0.1725,-0.2325 0.6075,-0.4725 0.4725,-0.2775 0.915,-0.2775 0.18,0 0.3,0.06 0.12,0.06 0.18,0.1275 0.06,0.06 0.0975,0.06 0.0375,0 0.1425,0.0825 0.1125,0.075 0.12,0.075 0.03,0 0.03,-0.165 0,-1.005 -0.1425,-1.395 -0.135,-0.39 -0.405,-0.39 z m 0.3375,2.325 q 0,-0.03 -0.0225,-0.0675 -0.015,-0.045 -0.075,-0.0975 -0.0525,-0.06 -0.1425,-0.105 -0.0825,-0.0525 -0.2325,-0.0825 -0.15,-0.0375 -0.3375,-0.0375 -0.3225,0 -0.57,0.1125 -0.24,0.1125 -0.36,0.285 -0.12,0.1725 -0.18,0.3225 -0.0525,0.1425 -0.0525,0.255 0,0.1875 0.03,0.255 0.0375,0.0675 0.1725,0.1425 0.165,0.0825 0.3,0.0825 0.255,0 0.63,-0.18 0.3825,-0.1875 0.3825,-0.27 0,-0.06 0.225,-0.285 0.2325,-0.2325 0.2325,-0.33 z"
         style="font-style:normal;font-variant:normal;font-weight:normal;font-stretch:normal;font-size:7.5px;font-family:Purisa;-inkscape-font-specification:Purisa"
         id="path3444" /><path
         d="m 13.333615,57.582865 q 0.105,0 0.24,0.0675 0.1425,0.06 0.3,0.195 0.1575,0.1275 0.2625,0.3975 0.105,0.2625 0.105,0.615 0,0.525 -0.24,1.095 -0.2325,0.5625 -0.6525,0.9825 -0.315,0.315 -0.8325,0.6 -0.51,0.285 -0.7575,0.285 -0.2475,0 -0.555,-0.1725 -0.3075,-0.1725 -0.345,-0.3225 -0.0225,-0.0825 -0.0825,-1.515 -0.06,-1.44 -0.1575,-2.04 -0.2025,-1.275 -0.2025,-2.04 0,-0.2775 0.105,-0.3825 0.1125,-0.1125 0.18,-0.1125 0.1125,0 0.15,0.2775 0.045,0.2775 0.09,0.915 0.045,0.6375 0.12,1.1175 0.0975,0.63 0.135,1.035 l 0.0375,0.4125 0.585,-0.5775 q 0.585,-0.585 0.9825,-0.7125 0.3825,-0.12 0.5325,-0.12 z m 0.4725,1.3125 q 0,-0.8325 -0.495,-0.8325 -0.135,0 -0.3675,0.045 -0.1575,0.03 -0.525,0.36 -0.3675,0.3225 -0.6675,0.6975 -0.1875,0.24 -0.3,0.6375 -0.105,0.3975 -0.105,0.78 0,0.4275 0.1275,0.63 0.1275,0.195 0.285,0.195 0.0825,0 0.375,-0.09 0.33,-0.105 0.69,-0.42 0.3675,-0.315 0.6375,-0.7275 0.345,-0.5325 0.345,-1.275 z"
         style="font-style:normal;font-variant:normal;font-weight:normal;font-stretch:normal;font-size:7.5px;font-family:Purisa;-inkscape-font-specification:Purisa"
         id="path3446" /><path
         d="m 18.945842,60.035365 q 0.0375,0 0.0375,0.06 0,0.135 -0.2025,0.435 -0.195,0.3 -0.42,0.495 -0.7875,0.6975 -1.575,0.6975 -0.3,0 -0.6,-0.135 -0.2925,-0.1425 -0.5475,-0.3975 -0.255,-0.255 -0.4125,-0.6825 -0.1575,-0.4275 -0.1575,-0.9525 0,-0.3225 0.075,-0.5475 0.15,-0.4575 0.6375,-0.9675 0.495,-0.51 0.93,-0.51 0.12,0 0.36,0.0225 0.36,0.03 0.5025,0.075 0.15,0.045 0.3375,0.1875 0.24,0.18 0.4125,0.465 0.18,0.2775 0.18,0.465 0,0.24 -0.1875,0.3675 -0.1875,0.12 -0.7275,0.24 -0.6975,0.1575 -1.38,0.195 l -0.6975,0.0375 0,0.3 q 0,0.555 0.5175,1.05 0.39,0.375 0.81,0.375 0.3225,0 0.6825,-0.195 0.3675,-0.2025 0.6225,-0.4425 0.255,-0.24 0.4875,-0.435 0.2325,-0.2025 0.315,-0.2025 z m -1.2075,-1.83 q -0.2325,-0.21 -0.3525,-0.2625 -0.1125,-0.06 -0.3,-0.06 -0.375,0 -0.5625,0.075 -0.18,0.0675 -0.3675,0.285 -0.57,0.6525 -0.57,0.87 0,0.0975 0.18,0.0975 0.6825,0 1.935,-0.285 0.375,-0.09 0.375,-0.315 0,-0.105 -0.3375,-0.405 z"
         style="font-style:normal;font-variant:normal;font-weight:normal;font-stretch:normal;font-size:7.5px;font-family:Purisa;-inkscape-font-specification:Purisa"
         id="path3448" /><path
         d="m 22.419748,58.002865 q 0.1275,0 0.225,0.0825 0.0975,0.075 0.0975,0.1275 0,0.09 -0.285,0.2025 -0.465,0.1875 -0.9525,0.9075 -0.48,0.7125 -0.585,1.38 -0.12,0.7575 -0.195,0.99 -0.075,0.24 -0.195,0.24 -0.105,0 -0.165,-0.075 -0.0525,-0.075 -0.075,-0.165 -0.015,-0.09 -0.0375,-0.33 -0.0075,-0.045 -0.0075,-0.0675 -0.18,-1.89 -0.18,-2.985 0,-0.39 0.03,-0.48 0.0825,-0.24 0.21,-0.24 0.12,0 0.12,0.2025 0,0.3375 0.105,1.0875 0.105,0.75 0.1575,0.75 0.0675,0 0.2775,-0.4125 0.2625,-0.4875 0.6975,-0.8475 0.4425,-0.3675 0.7575,-0.3675 z"
         style="font-style:normal;font-variant:normal;font-weight:normal;font-stretch:normal;font-size:7.5px;font-family:Purisa;-inkscape-font-specification:Purisa"
         id="path3450" /></g><g
       id="g3665"
       transform="matrix(0.03996028,0,0,0.03996028,-21.611264,-10.952034)"><g
         id="layer101"
         style="fill:#d00401;stroke:none"><path
           id="path3500"
           d="m 443,1280 c -39,-23 -67,-64 -59,-85 4,-11 2,-14 -6,-9 -8,5 -9,0 -5,-17 4,-13 7,-30 7,-37 0,-7 13,-18 29,-23 16,-6 37,-21 45,-34 8,-13 29,-26 45,-30 16,-3 37,-15 47,-26 10,-11 25,-17 34,-14 10,3 23,-1 30,-10 9,-11 16,-12 25,-5 10,8 14,2 19,-25 6,-28 2,-41 -16,-65 -13,-16 -28,-27 -35,-25 -6,2 -14,-7 -17,-19 -4,-15 -20,-28 -46,-39 -24,-9 -40,-22 -40,-32 0,-9 4,-14 9,-11 11,7 8,-47 -4,-56 -5,-4 -17,0 -26,8 -15,13 -17,12 -23,-18 -8,-41 11,-62 58,-60 38,1 103,31 131,59 19,18 35,24 73,27 14,0 20,6 17,14 -9,25 6,32 26,14 15,-15 19,-33 21,-95 1,-70 -8,-110 -19,-81 -3,8 -14,7 -37,-4 -31,-14 -33,-17 -26,-49 8,-33 39,-78 47,-69 3,2 18,0 34,-4 22,-6 37,-4 59,8 34,20 35,23 15,62 -14,27 -21,32 -41,29 -8,-1 -24,23 -24,36 0,6 4,4 9,-4 13,-20 20,28 17,120 l -2,76 48,-25 c 26,-14 48,-30 48,-36 0,-6 16,-22 35,-34 25,-18 42,-22 63,-17 29,6 43,-7 46,-40 1,-5 21,-12 46,-15 52,-7 95,-29 95,-49 0,-18 42,-34 47,-18 3,7 1,23 -3,37 l -7,25 -2,-25 -2,-25 -10,28 c -9,24 -19,32 -40,28 -5,0 -8,6 -8,14 0,20 44,20 60,0 17,-21 25,-19 40,10 10,20 11,27 0,40 -7,8 -17,12 -22,9 -12,-8 -49,26 -42,37 7,12 -64,81 -76,74 -6,-4 -10,-1 -10,4 0,6 -13,11 -30,11 -16,0 -30,4 -30,9 0,9 -57,27 -73,23 -5,-2 -17,8 -27,20 -11,13 -19,19 -20,15 0,-12 -50,44 -51,57 0,6 -5,0 -11,-14 -9,-21 -12,-22 -15,-7 -7,26 16,87 33,87 8,0 14,5 14,11 0,5 5,7 12,3 8,-5 9,-2 5,10 -5,12 -3,16 5,14 7,-3 18,1 25,8 18,18 16,24 -4,18 -13,-4 -14,-3 -5,3 7,6 10,18 6,29 -4,15 -4,16 4,5 6,-8 18,-16 27,-17 24,-4 32,-14 10,-14 -10,0 -16,-2 -13,-5 8,-8 108,17 102,26 -4,8 28,22 59,25 9,1 22,2 28,3 6,0 9,7 6,15 -4,10 1,13 16,10 l 22,-5 -21,10 c -12,5 -25,14 -29,20 -3,6 -16,11 -28,11 -18,0 -19,2 -7,10 11,7 6,10 -22,10 -20,0 -40,5 -43,11 -4,6 -14,7 -24,4 -18,-8 -76,-17 -103,-16 -10,0 -18,-3 -18,-7 0,-10 -192,-9 -208,1 -16,11 -102,-30 -103,-49 -1,-8 -3,-18 -4,-24 -1,-5 -3,-14 -4,-20 0,-5 -8,-10 -16,-10 -21,0 -19,28 5,75 28,55 25,76 -13,103 -35,23 -57,28 -57,13 0,-5 -11,-11 -25,-13 -20,-4 -23,-3 -14,8 16,20 -1,17 -38,-6 z m 105,-47 c 2,-8 -6,-13 -22,-13 -24,0 -25,-2 -14,-20 7,-11 19,-20 26,-20 7,0 10,-5 7,-10 -4,-7 -14,-6 -27,1 -44,24 -48,32 -25,57 22,24 47,26 55,5 z M 841,935 c 10,7 13,-8 3,-18 -12,-12 -36,23 -28,41 6,15 8,14 11,-6 3,-12 9,-20 14,-17 z"
           inkscape:connector-curvature="0" /></g><g
         id="layer102"
         style="fill:#783699;stroke:none"><path
           id="path3503"
           d="m 443,1280 c -39,-23 -67,-64 -59,-85 4,-11 2,-14 -6,-9 -8,5 -9,0 -5,-17 4,-13 7,-30 7,-37 0,-7 13,-18 29,-23 16,-6 37,-21 45,-34 8,-13 29,-26 45,-30 16,-3 37,-15 47,-26 10,-11 25,-17 34,-14 10,3 23,-1 30,-10 9,-11 16,-12 25,-5 10,8 14,2 19,-25 6,-28 2,-41 -16,-65 -13,-16 -28,-27 -35,-25 -6,2 -14,-7 -17,-19 -4,-15 -20,-28 -46,-39 -24,-9 -40,-22 -40,-32 0,-9 4,-14 9,-11 11,7 8,-47 -4,-56 -5,-4 -17,0 -26,8 -15,13 -17,12 -23,-18 -8,-41 11,-62 58,-60 38,1 103,31 131,59 19,18 35,24 73,27 14,0 20,6 17,14 -9,25 6,32 26,14 15,-15 19,-33 21,-95 1,-70 -8,-110 -19,-81 -3,8 -14,7 -37,-4 -31,-14 -33,-17 -26,-49 8,-33 39,-78 47,-69 3,2 18,0 34,-4 22,-6 37,-4 59,8 34,20 35,23 15,62 -14,27 -21,32 -41,29 -8,-1 -24,23 -24,36 0,6 4,4 9,-4 13,-20 20,28 17,120 l -2,76 48,-25 c 26,-14 48,-30 48,-36 0,-6 16,-22 35,-34 25,-18 42,-22 63,-17 29,6 43,-7 46,-40 1,-5 21,-12 46,-15 52,-7 95,-29 95,-49 0,-18 42,-34 47,-18 3,7 1,23 -3,37 l -7,25 -2,-25 -2,-25 -10,28 c -9,24 -19,32 -40,28 -5,0 -8,6 -8,14 0,20 44,20 60,0 17,-21 25,-19 40,10 10,20 11,27 0,40 -7,8 -17,12 -22,9 -12,-8 -49,26 -42,37 7,12 -64,81 -76,74 -6,-4 -10,-1 -10,4 0,6 -13,11 -30,11 -16,0 -30,4 -30,9 0,9 -57,27 -73,23 -5,-2 -17,8 -27,20 -11,13 -19,19 -20,15 0,-12 -50,44 -51,57 0,6 -5,0 -11,-14 -9,-21 -12,-22 -15,-7 -7,26 16,87 33,87 8,0 14,5 14,11 0,5 5,7 10,4 6,-3 10,-1 10,4 0,14 -11,13 -32,-3 -25,-19 -105,-4 -153,28 -25,17 -46,24 -59,21 -15,-5 -17,-4 -7,3 11,8 11,11 0,16 -8,3 -4,3 7,1 17,-5 23,0 27,24 9,42 41,60 128,71 l 74,9 -83,-4 c -45,-2 -94,0 -108,6 -21,7 -36,5 -70,-12 -24,-11 -45,-27 -45,-35 -1,-8 -3,-18 -4,-24 -1,-5 -3,-14 -4,-20 0,-5 -8,-10 -16,-10 -21,0 -19,28 5,75 28,55 25,76 -13,103 -35,23 -57,28 -57,13 0,-5 -11,-11 -25,-13 -20,-4 -23,-3 -14,8 16,20 -1,17 -38,-6 z m 105,-47 c 2,-8 -6,-13 -22,-13 -24,0 -25,-2 -14,-20 7,-11 19,-20 26,-20 7,0 10,-5 7,-10 -4,-7 -14,-6 -27,1 -44,24 -48,32 -25,57 22,24 47,26 55,5 z M 841,935 c 10,7 13,-8 3,-18 -12,-12 -36,23 -28,41 6,15 8,14 11,-6 3,-12 9,-20 14,-17 z"
           inkscape:connector-curvature="0" /><path
           id="path3505"
           d="m 1037,1224 c -6,-6 -68,-16 -99,-15 -10,0 -18,-4 -18,-9 0,-5 35,-8 78,-7 89,2 173,-18 165,-39 -3,-8 -20,-14 -40,-14 -22,0 -41,-7 -49,-17 -18,-24 -17,-33 2,-33 8,0 13,4 9,9 -6,10 26,24 63,26 13,1 27,7 30,12 4,6 14,13 22,16 13,4 12,6 -1,6 -9,1 -22,8 -29,16 -7,8 -22,15 -34,15 -17,0 -18,2 -6,10 11,7 6,10 -22,10 -20,0 -40,5 -43,10 -7,11 -19,13 -28,4 z"
           inkscape:connector-curvature="0" /><path
           id="path3507"
           d="m 936,1094 c -15,-45 -5,-64 21,-38 18,18 16,24 -4,18 -13,-4 -14,-3 -5,3 7,6 10,18 6,29 -5,15 -4,16 5,4 6,-8 15,-16 21,-16 31,-4 33,-6 15,-14 -24,-10 -1,-11 35,-1 24,7 24,7 -8,20 -18,7 -32,17 -32,21 0,4 -9,10 -19,13 -16,4 -23,-4 -35,-39 z"
           inkscape:connector-curvature="0" /><path
           id="path3509"
           d="m 798,1124 c -22,-22 33,-74 58,-54 11,10 11,16 -4,36 -16,22 -42,31 -54,18 z"
           inkscape:connector-curvature="0" /></g><g
         id="layer103"
         style="fill:#cacc04;stroke:none"><path
           id="path3512"
           d="m 443,1280 c -39,-23 -67,-64 -59,-85 4,-11 2,-14 -6,-9 -8,5 -9,0 -5,-17 4,-13 7,-30 7,-37 0,-7 13,-18 29,-23 16,-6 37,-21 45,-34 8,-13 29,-26 45,-30 16,-3 37,-15 47,-26 10,-11 25,-17 34,-14 10,3 23,-1 30,-10 10,-12 16,-13 26,-4 11,9 14,7 14,-10 0,-11 4,-21 10,-21 5,0 7,6 4,14 -3,8 -1,17 5,21 6,3 11,15 11,25 0,10 4,21 9,25 11,6 61,-15 61,-27 0,-4 12,-8 28,-9 15,0 21,-3 15,-6 -10,-3 -10,-8 1,-18 7,-8 11,-25 9,-38 -5,-24 12,-45 25,-32 3,3 0,10 -7,15 -9,5 -11,14 -6,26 8,17 9,17 12,-4 3,-13 9,-20 15,-16 7,5 9,1 5,-9 -3,-10 -2,-17 3,-17 6,0 10,8 10,19 0,32 22,81 36,81 8,0 14,5 14,11 0,5 5,7 10,4 6,-3 10,-1 10,4 0,14 -11,13 -32,-3 -25,-19 -105,-4 -153,28 -25,17 -46,24 -59,21 -15,-5 -17,-4 -7,3 11,8 11,11 0,16 -8,3 -4,3 7,1 17,-5 23,0 27,24 9,42 41,60 128,71 l 74,9 -83,-4 c -45,-2 -94,0 -108,6 -21,7 -36,5 -70,-12 -24,-11 -45,-27 -45,-35 -1,-8 -3,-18 -4,-24 -1,-5 -3,-14 -4,-20 0,-5 -8,-10 -16,-10 -21,0 -19,28 5,75 28,55 25,76 -13,103 -35,23 -57,28 -57,13 0,-5 -11,-11 -25,-13 -20,-4 -23,-3 -14,8 16,20 -1,17 -38,-6 z m 105,-47 c 2,-8 -6,-13 -22,-13 -24,0 -25,-2 -14,-20 7,-11 19,-20 26,-20 7,0 10,-5 7,-10 -4,-7 -14,-6 -27,1 -44,24 -48,32 -25,57 22,24 47,26 55,5 z"
           inkscape:connector-curvature="0" /><path
           id="path3514"
           d="m 1037,1224 c -6,-6 -68,-16 -99,-15 -10,0 -18,-4 -18,-9 0,-5 35,-8 78,-7 89,2 173,-18 165,-39 -3,-8 -20,-14 -40,-14 -22,0 -41,-7 -49,-17 -18,-24 -17,-33 2,-33 8,0 13,4 9,9 -6,10 26,24 63,26 13,1 27,7 30,12 4,6 14,13 22,16 13,4 12,6 -1,6 -9,1 -22,8 -29,16 -7,8 -22,15 -34,15 -17,0 -18,2 -6,10 11,7 6,10 -22,10 -20,0 -40,5 -43,10 -7,11 -19,13 -28,4 z"
           inkscape:connector-curvature="0" /><path
           id="path3516"
           d="m 936,1094 c -15,-45 -5,-64 21,-38 18,18 16,24 -4,18 -13,-4 -14,-3 -5,3 7,6 10,18 6,29 -5,15 -4,16 5,4 6,-8 15,-16 21,-16 31,-4 33,-6 15,-14 -24,-10 -1,-11 35,-1 24,7 24,7 -8,20 -18,7 -32,17 -32,21 0,4 -9,10 -19,13 -16,4 -23,-4 -35,-39 z"
           inkscape:connector-curvature="0" /><path
           id="path3518"
           d="m 798,1124 c -22,-22 33,-74 58,-54 11,10 11,16 -4,36 -16,22 -42,31 -54,18 z"
           inkscape:connector-curvature="0" /><path
           id="path3520"
           d="m 877,931 c -3,-14 0,-21 8,-21 8,0 21,-7 29,-16 9,-8 16,-11 16,-5 0,5 -6,14 -13,18 -8,4 -18,16 -24,27 -10,17 -10,17 -16,-3 z"
           inkscape:connector-curvature="0" /><path
           id="path3522"
           d="m 633,897 c -12,-16 -26,-26 -32,-23 -5,3 -12,-5 -15,-17 -4,-16 -19,-29 -46,-40 -24,-9 -40,-22 -40,-32 0,-9 4,-14 9,-11 11,7 8,-47 -4,-56 -5,-4 -17,0 -26,8 -15,13 -17,12 -23,-18 -8,-41 11,-62 58,-60 38,1 103,31 131,59 18,18 35,24 71,27 19,1 21,7 20,43 -1,47 17,65 34,33 8,-15 6,-21 -7,-29 -17,-9 -17,-10 0,-23 13,-10 17,-29 19,-91 1,-70 -8,-110 -19,-81 -3,8 -14,7 -37,-4 -31,-14 -33,-17 -26,-49 8,-33 39,-78 47,-69 3,2 18,0 34,-4 22,-6 37,-4 59,8 34,20 35,23 15,62 -14,27 -21,32 -41,29 -8,-1 -24,23 -24,36 0,6 4,4 9,-4 13,-20 20,28 17,121 -1,42 1,75 6,72 19,-12 -4,40 -29,65 -13,12 -13,15 1,23 35,20 13,26 -23,7 -23,-12 -38,-26 -35,-33 3,-7 -2,-13 -11,-13 -8,0 -15,5 -15,10 0,5 -11,6 -24,3 -23,-6 -25,-3 -28,36 l -3,43 -22,-28 z"
           inkscape:connector-curvature="0" /><path
           id="path3524"
           d="m 983,848 c -3,-6 -2,-8 4,-5 5,3 22,-1 37,-9 33,-16 36,-17 36,-6 0,14 -69,32 -77,20 z"
           inkscape:connector-curvature="0" /><path
           id="path3526"
           d="m 1070,809 c 0,-5 4,-8 9,-4 5,3 12,1 16,-5 7,-12 25,-4 25,11 0,5 -11,9 -25,9 -14,0 -25,-5 -25,-11 z"
           inkscape:connector-curvature="0" /><path
           id="path3528"
           d="m 1126,801 c -3,-5 6,-17 19,-27 14,-10 25,-22 25,-27 0,-4 14,-20 32,-36 33,-29 32,-51 -3,-51 -11,0 -31,-7 -45,-16 -17,-11 -37,-15 -64,-11 -23,3 -38,1 -34,-4 3,-5 22,-9 42,-9 42,-1 97,-28 97,-49 0,-18 42,-34 47,-18 3,7 1,23 -3,37 l -7,25 -2,-25 -2,-25 -10,28 c -9,24 -19,32 -40,28 -5,0 -8,6 -8,14 0,20 44,20 60,0 17,-21 25,-19 40,10 10,20 11,27 0,40 -7,8 -17,12 -22,9 -12,-8 -49,26 -42,37 3,5 -11,25 -30,44 -39,38 -42,39 -50,26 z"
           inkscape:connector-curvature="0" /><path
           id="path3530"
           d="m 974,784 c 4,-12 2,-15 -9,-10 -13,5 -13,2 1,-19 9,-14 24,-25 33,-24 21,1 60,17 44,18 -7,1 -13,7 -13,15 0,8 -14,19 -31,25 -27,9 -30,9 -25,-5 z"
           inkscape:connector-curvature="0" /><path
           id="path3532"
           d="m 1064,753 c 3,-30 -1,-37 -28,-54 -36,-22 -70,-18 -103,13 -13,12 -23,17 -23,12 0,-5 16,-20 35,-33 25,-17 42,-21 61,-17 19,5 30,2 39,-11 12,-16 13,-15 8,10 -5,25 -1,29 36,45 22,9 41,22 41,27 0,6 -16,18 -35,27 l -35,16 4,-35 z"
           inkscape:connector-curvature="0" /><path
           id="path3534"
           d="m 844,772 c 9,-14 66,-33 66,-21 0,5 -4,9 -10,9 -18,0 -25,2 -44,12 -12,7 -16,7 -12,0 z"
           inkscape:connector-curvature="0" /></g><g
         id="layer104"
         style="fill:#69999a;stroke:none"><path
           id="path3537"
           d="m 444,1281 c -32,-19 -64,-57 -64,-75 0,-6 11,6 25,24 14,19 40,43 58,52 18,9 28,17 22,18 -5,0 -24,-9 -41,-19 z"
           inkscape:connector-curvature="0" /><path
           id="path3539"
           d="m 550,1282 c 34,-17 35,-20 32,-67 -2,-45 -1,-48 13,-30 25,34 18,68 -18,93 -18,12 -40,22 -48,22 -8,-1 2,-9 21,-18 z"
           inkscape:connector-curvature="0" /><path
           id="path3541"
           d="m 1037,1224 c -6,-6 -68,-16 -99,-15 -10,0 -18,-4 -18,-9 0,-5 35,-8 78,-7 89,2 173,-18 165,-39 -3,-8 -20,-14 -40,-14 -22,0 -41,-7 -49,-17 -18,-24 -17,-33 2,-33 8,0 13,4 9,9 -6,10 26,24 63,26 13,1 27,7 30,12 4,6 14,13 22,16 13,4 12,6 -1,6 -9,1 -22,8 -29,16 -7,8 -22,15 -34,15 -17,0 -18,2 -6,10 11,7 6,10 -22,10 -20,0 -40,5 -43,10 -7,11 -19,13 -28,4 z"
           inkscape:connector-curvature="0" /><path
           id="path3543"
           d="m 512,1201 c 16,-25 41,-28 36,-3 -2,9 -14,18 -26,20 -21,3 -22,2 -10,-17 z"
           inkscape:connector-curvature="0" /><path
           id="path3545"
           d="m 650,1189 c -19,-10 -38,-28 -42,-39 -10,-26 4,-26 20,0 16,27 32,17 32,-21 0,-16 4,-29 9,-29 5,0 16,-2 24,-6 10,-3 16,4 20,25 9,42 41,60 128,70 l 74,9 -90,-1 c -49,-1 -101,1 -115,5 -16,4 -38,-1 -60,-13 z"
           inkscape:connector-curvature="0" /><path
           id="path3547"
           d="m 380,1137 c 0,-11 11,-22 29,-28 16,-6 37,-21 46,-35 8,-13 19,-24 24,-24 5,0 -5,16 -22,35 -17,19 -36,35 -43,35 -7,0 -18,8 -23,18 -10,16 -10,16 -11,-1 z"
           inkscape:connector-curvature="0" /><path
           id="path3549"
           d="m 936,1094 c -15,-45 -5,-64 21,-38 18,18 16,24 -4,18 -13,-4 -14,-3 -5,3 7,6 10,18 6,29 -5,15 -4,16 5,4 6,-8 15,-16 21,-16 31,-4 33,-6 15,-14 -24,-10 -1,-11 35,-1 24,7 24,7 -8,20 -18,7 -32,17 -32,21 0,4 -9,10 -19,13 -16,4 -23,-4 -35,-39 z"
           inkscape:connector-curvature="0" /><path
           id="path3551"
           d="m 798,1124 c -22,-22 33,-74 58,-54 11,10 11,16 -4,36 -16,22 -42,31 -54,18 z"
           inkscape:connector-curvature="0" /><path
           id="path3553"
           d="m 680,1080 c 8,-5 10,-10 4,-10 -6,0 -21,-18 -33,-41 l -23,-40 -22,19 c -11,11 -26,18 -33,15 -6,-2 -14,1 -18,6 -3,6 -11,11 -17,11 -6,0 -3,-9 7,-20 11,-12 26,-18 35,-15 10,3 23,-1 30,-10 10,-12 16,-13 26,-4 11,9 14,7 14,-10 0,-11 4,-21 10,-21 5,0 7,6 4,14 -3,8 -1,17 5,21 6,3 11,15 11,25 0,10 4,21 9,25 11,6 61,-15 61,-27 0,-4 12,-8 28,-9 15,0 21,-3 15,-6 -10,-3 -10,-8 1,-18 7,-8 11,-25 9,-38 -5,-24 12,-45 25,-32 3,3 0,10 -7,15 -9,5 -11,14 -6,26 8,17 9,17 12,-4 3,-13 9,-20 15,-16 7,5 9,1 5,-9 -3,-10 -2,-17 3,-17 6,0 10,8 10,19 0,32 22,81 36,81 8,0 14,5 14,11 0,5 5,7 10,4 6,-3 10,-1 10,4 0,14 -11,13 -32,-3 -22,-16 -112,-5 -137,17 -18,17 -76,47 -88,47 -4,0 -1,-5 7,-10 z"
           inkscape:connector-curvature="0" /><path
           id="path3555"
           d="m 877,931 c -3,-14 0,-21 8,-21 8,0 21,-7 29,-16 9,-8 16,-11 16,-5 0,5 -6,14 -13,18 -8,4 -18,16 -24,27 -10,17 -10,17 -16,-3 z"
           inkscape:connector-curvature="0" /><path
           id="path3557"
           d="m 633,897 c -12,-16 -26,-26 -32,-23 -5,3 -12,-5 -15,-17 -4,-16 -19,-29 -46,-40 -24,-9 -40,-22 -40,-32 0,-9 4,-14 9,-11 11,7 8,-47 -4,-56 -5,-4 -17,0 -26,8 -15,13 -17,12 -23,-18 -8,-41 11,-62 58,-60 38,1 103,31 131,59 18,18 35,24 71,27 19,1 21,7 20,43 -1,47 17,65 34,33 8,-15 6,-21 -7,-29 -17,-9 -17,-10 0,-23 13,-10 17,-29 19,-91 1,-70 -8,-110 -19,-81 -3,8 -14,7 -37,-4 -31,-14 -33,-17 -26,-49 8,-33 39,-78 47,-69 3,2 18,0 34,-4 22,-6 37,-4 59,8 34,20 35,23 15,62 -14,27 -21,32 -41,29 -8,-1 -24,23 -24,36 0,6 4,4 9,-4 13,-20 20,28 17,121 -1,42 1,75 6,72 19,-12 -4,40 -29,65 -13,12 -13,15 1,23 35,20 13,26 -23,7 -23,-12 -38,-26 -35,-33 3,-7 -2,-13 -11,-13 -8,0 -15,5 -15,10 0,5 -11,6 -24,3 -23,-6 -25,-3 -28,36 l -3,43 -22,-28 z"
           inkscape:connector-curvature="0" /><path
           id="path3559"
           d="m 983,848 c -3,-6 -2,-8 4,-5 5,3 22,-1 37,-9 33,-16 36,-17 36,-6 0,14 -69,32 -77,20 z"
           inkscape:connector-curvature="0" /><path
           id="path3561"
           d="m 1070,809 c 0,-5 4,-8 9,-4 5,3 12,1 16,-5 7,-12 25,-4 25,11 0,5 -11,9 -25,9 -14,0 -25,-5 -25,-11 z"
           inkscape:connector-curvature="0" /><path
           id="path3563"
           d="m 1126,801 c -3,-5 6,-17 19,-27 14,-10 25,-22 25,-27 0,-4 14,-20 32,-36 33,-29 32,-51 -3,-51 -11,0 -31,-7 -45,-16 -17,-11 -37,-15 -64,-11 -23,3 -38,1 -34,-4 3,-5 22,-9 42,-9 42,-1 97,-28 97,-49 0,-18 42,-34 47,-18 3,7 1,23 -3,37 l -7,25 -2,-25 -2,-25 -10,28 c -9,24 -19,32 -40,28 -5,0 -8,6 -8,14 0,20 44,20 60,0 17,-21 25,-19 40,10 10,20 11,27 0,40 -7,8 -17,12 -22,9 -12,-8 -49,26 -42,37 3,5 -11,25 -30,44 -39,38 -42,39 -50,26 z"
           inkscape:connector-curvature="0" /><path
           id="path3565"
           d="m 974,784 c 4,-12 2,-15 -9,-10 -13,5 -13,2 1,-19 9,-14 24,-25 33,-24 21,1 60,17 44,18 -7,1 -13,7 -13,15 0,8 -14,19 -31,25 -27,9 -30,9 -25,-5 z"
           inkscape:connector-curvature="0" /><path
           id="path3567"
           d="m 1064,753 c 3,-30 -1,-37 -28,-54 -36,-22 -70,-18 -103,13 -13,12 -23,17 -23,12 0,-5 16,-20 35,-33 25,-17 42,-21 61,-17 19,5 30,2 39,-11 12,-16 13,-15 8,10 -5,25 -1,29 36,45 22,9 41,22 41,27 0,6 -16,18 -35,27 l -35,16 4,-35 z"
           inkscape:connector-curvature="0" /><path
           id="path3569"
           d="m 844,772 c 9,-14 66,-33 66,-21 0,5 -4,9 -10,9 -18,0 -25,2 -44,12 -12,7 -16,7 -12,0 z"
           inkscape:connector-curvature="0" /></g><g
         id="layer105"
         style="fill:#ae6392;stroke:none"><path
           id="path3572"
           d="m 444,1281 c -32,-19 -64,-57 -64,-75 0,-6 11,6 25,24 14,19 40,43 58,52 18,9 28,17 22,18 -5,0 -24,-9 -41,-19 z"
           inkscape:connector-curvature="0" /><path
           id="path3574"
           d="m 550,1282 c 34,-17 35,-20 32,-67 -2,-45 -1,-48 13,-30 25,34 18,68 -18,93 -18,12 -40,22 -48,22 -8,-1 2,-9 21,-18 z"
           inkscape:connector-curvature="0" /><path
           id="path3576"
           d="m 1037,1224 c -6,-6 -68,-16 -99,-15 -10,0 -18,-4 -18,-9 0,-5 35,-8 78,-7 89,2 173,-18 165,-39 -3,-8 -20,-14 -40,-14 -22,0 -41,-7 -49,-17 -18,-24 -17,-33 2,-33 8,0 13,4 9,9 -6,10 26,24 63,26 13,1 27,7 30,12 4,6 14,13 22,16 13,4 12,6 -1,6 -9,1 -22,8 -29,16 -7,8 -22,15 -34,15 -17,0 -18,2 -6,10 11,7 6,10 -22,10 -20,0 -40,5 -43,10 -7,11 -19,13 -28,4 z"
           inkscape:connector-curvature="0" /><path
           id="path3578"
           d="m 512,1201 c 16,-25 41,-28 36,-3 -2,9 -14,18 -26,20 -21,3 -22,2 -10,-17 z"
           inkscape:connector-curvature="0" /><path
           id="path3580"
           d="m 650,1189 c -19,-10 -38,-28 -42,-39 -10,-26 4,-26 20,0 16,27 32,17 32,-21 0,-16 4,-29 9,-29 5,0 16,-2 24,-6 10,-3 16,4 20,25 9,42 41,60 128,70 l 74,9 -90,-1 c -49,-1 -101,1 -115,5 -16,4 -38,-1 -60,-13 z"
           inkscape:connector-curvature="0" /><path
           id="path3582"
           d="m 380,1137 c 0,-11 11,-22 29,-28 16,-6 37,-21 46,-35 8,-13 19,-24 24,-24 5,0 -5,16 -22,35 -17,19 -36,35 -43,35 -7,0 -18,8 -23,18 -10,16 -10,16 -11,-1 z"
           inkscape:connector-curvature="0" /><path
           id="path3584"
           d="m 936,1094 c -15,-45 -5,-64 21,-38 18,18 16,24 -4,18 -13,-4 -14,-3 -5,3 7,6 10,18 6,29 -5,15 -4,16 5,4 6,-8 15,-16 21,-16 31,-4 33,-6 15,-14 -24,-10 -1,-11 35,-1 24,7 24,7 -8,20 -18,7 -32,17 -32,21 0,4 -9,10 -19,13 -16,4 -23,-4 -35,-39 z"
           inkscape:connector-curvature="0" /><path
           id="path3586"
           d="m 798,1124 c -22,-22 33,-74 58,-54 11,10 11,16 -4,36 -16,22 -42,31 -54,18 z"
           inkscape:connector-curvature="0" /><path
           id="path3588"
           d="m 683,1079 c 9,-6 14,-15 11,-21 -4,-7 -2,-8 4,-4 7,4 12,3 12,-2 0,-5 15,-16 33,-23 37,-16 38,-16 72,-18 24,-1 25,-3 19,-43 -6,-33 -4,-39 6,-33 10,6 12,4 7,-8 -3,-10 -2,-17 3,-17 6,0 10,8 10,19 0,32 22,81 36,81 8,0 14,5 14,11 0,5 5,7 10,4 6,-3 10,-1 10,4 0,14 -11,13 -32,-3 -22,-16 -112,-5 -137,17 -19,17 -76,47 -88,47 -4,0 0,-5 10,-11 z"
           inkscape:connector-curvature="0" /><path
           id="path3590"
           d="m 545,1020 c 11,-12 26,-18 35,-15 10,3 23,-1 30,-10 10,-12 16,-13 26,-4 8,6 14,16 14,22 0,6 -6,3 -13,-7 -12,-16 -14,-16 -31,3 -10,11 -24,17 -31,15 -7,-3 -16,-1 -20,5 -3,6 -11,11 -17,11 -6,0 -3,-9 7,-20 z"
           inkscape:connector-curvature="0" /><path
           id="path3592"
           d="m 877,931 c -3,-14 0,-21 8,-21 8,0 21,-7 29,-16 9,-8 16,-11 16,-5 0,5 -6,14 -13,18 -8,4 -18,16 -24,27 -10,17 -10,17 -16,-3 z"
           inkscape:connector-curvature="0" /><path
           id="path3594"
           d="m 790,890 c -8,-5 -11,-12 -7,-16 4,-4 13,-2 19,4 15,15 7,24 -12,12 z"
           inkscape:connector-curvature="0" /><path
           id="path3596"
           d="m 983,848 c -3,-6 -2,-8 4,-5 5,3 22,-1 37,-9 33,-16 36,-17 36,-6 0,14 -69,32 -77,20 z"
           inkscape:connector-curvature="0" /><path
           id="path3598"
           d="m 790,825 c 0,-8 5,-15 11,-15 5,0 8,-4 5,-9 -3,-5 1,-11 9,-15 18,-7 18,-4 3,29 -12,28 -28,33 -28,10 z"
           inkscape:connector-curvature="0" /><path
           id="path3600"
           d="m 1070,809 c 0,-5 4,-8 9,-4 5,3 12,1 16,-5 7,-12 25,-4 25,11 0,5 -11,9 -25,9 -14,0 -25,-5 -25,-11 z"
           inkscape:connector-curvature="0" /><path
           id="path3602"
           d="m 1126,801 c -3,-5 6,-17 19,-27 14,-10 25,-22 25,-27 0,-5 13,-20 30,-34 22,-18 29,-30 24,-47 -3,-14 1,-27 11,-36 13,-11 18,-10 30,6 8,10 15,24 15,30 0,15 -25,36 -33,27 -11,-10 -46,28 -40,43 3,8 -1,14 -10,14 -9,0 -19,9 -22,20 -7,23 -41,44 -49,31 z"
           inkscape:connector-curvature="0" /><path
           id="path3604"
           d="m 974,784 c 4,-12 2,-15 -9,-10 -13,5 -13,2 1,-19 9,-14 24,-25 33,-24 21,1 60,17 44,18 -7,1 -13,7 -13,15 0,8 -14,19 -31,25 -27,9 -30,9 -25,-5 z"
           inkscape:connector-curvature="0" /><path
           id="path3606"
           d="m 1064,753 c 3,-30 -1,-37 -28,-54 -36,-22 -70,-18 -103,13 -13,12 -23,17 -23,12 0,-5 16,-20 35,-33 25,-17 42,-21 61,-17 19,5 30,2 39,-11 12,-16 13,-15 8,10 -5,25 -1,29 36,45 22,9 41,22 41,27 0,6 -16,18 -35,27 l -35,16 4,-35 z"
           inkscape:connector-curvature="0" /><path
           id="path3608"
           d="m 782,687 c 1,-87 -8,-132 -19,-101 -3,8 -14,7 -37,-4 -31,-14 -33,-17 -26,-49 8,-33 39,-78 47,-69 3,2 18,0 34,-4 22,-6 37,-4 59,8 34,20 35,23 15,62 -14,27 -21,32 -41,29 -8,-1 -24,23 -24,36 0,6 5,3 10,-5 9,-13 10,-13 11,0 7,57 3,182 -5,187 -5,3 -6,1 -2,-5 4,-7 3,-12 -3,-12 -5,0 -12,6 -14,13 -3,6 -5,-32 -5,-86 z"
           inkscape:connector-curvature="0" /><path
           id="path3610"
           d="m 844,772 c 9,-14 66,-33 66,-21 0,5 -4,9 -10,9 -18,0 -25,2 -44,12 -12,7 -16,7 -12,0 z"
           inkscape:connector-curvature="0" /><path
           id="path3612"
           d="m 1155,644 c -14,-11 -34,-14 -62,-11 -24,2 -40,1 -37,-4 3,-5 22,-9 42,-9 42,-1 97,-28 97,-49 0,-18 42,-34 47,-18 3,7 1,23 -3,37 l -7,25 -2,-25 -2,-25 -10,28 c -9,24 -19,32 -40,28 -20,-3 -5,28 15,32 19,4 19,4 2,5 -11,1 -29,-6 -40,-14 z"
           inkscape:connector-curvature="0" /></g><g
         id="layer106"
         style="fill:#c69798;stroke:none"><path
           id="path3615"
           d="m 444,1281 c -32,-19 -64,-57 -64,-75 0,-6 11,6 25,24 14,19 40,43 58,52 18,9 28,17 22,18 -5,0 -24,-9 -41,-19 z"
           inkscape:connector-curvature="0" /><path
           id="path3617"
           d="m 550,1282 c 34,-17 35,-20 32,-67 -2,-45 -1,-48 13,-30 25,34 18,68 -18,93 -18,12 -40,22 -48,22 -8,-1 2,-9 21,-18 z"
           inkscape:connector-curvature="0" /><path
           id="path3619"
           d="m 1037,1224 c -6,-6 -68,-16 -99,-15 -10,0 -18,-4 -18,-9 0,-5 35,-8 78,-7 89,2 173,-18 165,-39 -3,-8 -20,-14 -40,-14 -22,0 -41,-7 -49,-17 -18,-24 -17,-33 2,-33 8,0 13,4 9,9 -6,10 26,24 63,26 13,1 27,7 30,12 4,6 14,13 22,16 13,4 12,6 -1,6 -9,1 -22,8 -29,16 -7,8 -22,15 -34,15 -17,0 -18,2 -6,10 11,7 6,10 -22,10 -20,0 -40,5 -43,10 -7,11 -19,13 -28,4 z"
           inkscape:connector-curvature="0" /><path
           id="path3621"
           d="m 512,1201 c 16,-25 41,-28 36,-3 -2,9 -14,18 -26,20 -21,3 -22,2 -10,-17 z"
           inkscape:connector-curvature="0" /><path
           id="path3623"
           d="m 650,1189 c -19,-10 -38,-28 -42,-39 -10,-26 4,-26 20,0 16,27 32,17 32,-21 0,-16 4,-29 9,-29 5,0 16,-2 24,-6 10,-3 16,4 20,25 9,42 41,60 128,70 l 74,9 -90,-1 c -49,-1 -101,1 -115,5 -16,4 -38,-1 -60,-13 z"
           inkscape:connector-curvature="0" /><path
           id="path3625"
           d="m 380,1137 c 0,-11 11,-22 29,-28 16,-6 37,-21 46,-35 8,-13 19,-24 24,-24 5,0 -5,16 -22,35 -17,19 -36,35 -43,35 -7,0 -18,8 -23,18 -10,16 -10,16 -11,-1 z"
           inkscape:connector-curvature="0" /><path
           id="path3627"
           d="m 936,1094 c -15,-45 -5,-64 21,-38 18,18 16,24 -4,18 -13,-4 -14,-3 -5,3 7,6 10,18 6,29 -5,15 -4,16 5,4 6,-8 15,-16 21,-16 31,-4 33,-6 15,-14 -24,-10 -1,-11 35,-1 24,7 24,7 -8,20 -18,7 -32,17 -32,21 0,4 -9,10 -19,13 -16,4 -23,-4 -35,-39 z"
           inkscape:connector-curvature="0" /><path
           id="path3629"
           d="m 798,1124 c -12,-12 6,-45 28,-50 36,-9 47,4 27,31 -17,23 -43,32 -55,19 z"
           inkscape:connector-curvature="0" /><path
           id="path3631"
           d="m 691,1071 c 26,-20 84,-51 95,-51 11,0 -38,35 -73,54 -42,21 -51,20 -22,-3 z"
           inkscape:connector-curvature="0" /><path
           id="path3633"
           d="m 545,1020 c 11,-12 26,-18 35,-15 10,3 23,-1 30,-10 10,-12 16,-13 26,-4 8,6 14,16 14,22 0,6 -6,3 -13,-7 -12,-16 -14,-16 -31,3 -10,11 -24,17 -31,15 -7,-3 -16,-1 -20,5 -3,6 -11,11 -17,11 -6,0 -3,-9 7,-20 z"
           inkscape:connector-curvature="0" /><path
           id="path3635"
           d="m 902,1028 c -6,-6 -33,-11 -59,-11 -27,1 -38,-1 -25,-4 20,-4 21,-8 15,-45 -5,-33 -3,-39 7,-33 10,6 12,4 7,-8 -3,-10 -2,-17 3,-17 6,0 10,8 10,19 0,32 22,81 36,81 8,0 14,5 14,11 0,5 5,7 10,4 6,-3 10,-1 10,4 0,14 -13,14 -28,-1 z"
           inkscape:connector-curvature="0" /><path
           id="path3637"
           d="m 878,933 c -4,-15 2,-22 26,-31 25,-9 28,-9 15,1 -8,7 -20,20 -26,31 -10,18 -10,18 -15,-1 z"
           inkscape:connector-curvature="0" /><path
           id="path3639"
           d="m 983,847 c -3,-7 -3,-9 2,-5 4,4 23,1 41,-7 19,-8 34,-10 34,-6 0,14 -69,30 -77,18 z"
           inkscape:connector-curvature="0" /><path
           id="path3641"
           d="m 790,825 c 0,-8 5,-15 11,-15 5,0 8,-4 5,-9 -3,-5 1,-11 9,-15 18,-7 18,-4 3,29 -12,28 -28,33 -28,10 z"
           inkscape:connector-curvature="0" /><path
           id="path3643"
           d="m 1109,797 c 24,-13 49,-31 55,-42 6,-10 23,-30 38,-43 20,-17 26,-30 22,-46 -3,-14 1,-27 11,-36 13,-11 18,-10 30,6 8,10 15,24 15,30 0,15 -25,36 -33,27 -11,-10 -46,28 -40,43 3,8 -1,14 -9,14 -8,0 -20,11 -26,25 -10,23 -23,30 -44,26 -5,0 -8,4 -8,9 0,6 -12,10 -27,10 -26,-1 -24,-2 16,-23 z"
           inkscape:connector-curvature="0" /><path
           id="path3645"
           d="m 972,773 c -1,-39 32,-53 49,-21 12,22 -5,42 -28,33 -6,-2 -14,1 -16,8 -2,7 -4,-2 -5,-20 z"
           inkscape:connector-curvature="0" /><path
           id="path3647"
           d="m 1064,764 c 2,-16 5,-34 5,-41 1,-8 8,-8 30,0 34,12 33,17 -10,48 l -30,21 5,-28 z"
           inkscape:connector-curvature="0" /><path
           id="path3649"
           d="m 782,687 c 1,-87 -8,-132 -19,-101 -3,8 -14,7 -37,-4 -31,-14 -33,-17 -26,-49 8,-33 39,-78 47,-69 3,2 18,0 34,-4 22,-6 37,-4 59,8 34,20 35,23 15,62 -14,27 -21,32 -41,29 -8,-1 -24,23 -24,36 0,6 5,3 10,-5 9,-13 10,-13 11,0 7,57 3,182 -5,187 -5,3 -6,1 -2,-5 4,-7 3,-12 -3,-12 -5,0 -12,6 -14,13 -3,6 -5,-32 -5,-86 z"
           inkscape:connector-curvature="0" /><path
           id="path3651"
           d="m 844,771 c 3,-5 20,-14 38,-20 38,-13 26,0 -15,17 -16,7 -26,8 -23,3 z"
           inkscape:connector-curvature="0" /><path
           id="path3653"
           d="m 910,723 c 0,-15 69,-55 87,-50 15,4 14,5 -4,6 -12,0 -35,13 -52,27 -17,14 -31,22 -31,17 z"
           inkscape:connector-curvature="0" /><path
           id="path3655"
           d="m 1034,692 c -8,-5 -6,-13 6,-25 17,-17 17,-17 13,8 -3,14 -6,25 -7,25 0,0 -6,-4 -12,-8 z"
           inkscape:connector-curvature="0" /><path
           id="path3657"
           d="m 1144,641 -31,-17 42,-17 c 26,-11 42,-24 41,-34 -1,-19 40,-37 46,-20 3,7 1,23 -3,37 l -7,25 -2,-25 -2,-25 -10,28 c -9,24 -19,32 -40,28 -20,-3 -5,28 15,32 18,3 18,4 2,4 -11,0 -34,-7 -51,-16 z"
           inkscape:connector-curvature="0" /></g></g></g><path
     fill-rule="evenodd"
     clip-rule="evenodd"
     d="M68.403,222.8c-0.243-0.011-0.487-0.021-0.73-0.032  c0.002-0.082,0.004-0.166,0.006-0.249c0.243,0,0.487,0,0.73,0C68.407,222.612,68.405,222.706,68.403,222.8z"
     id="path3519" /><path
     fill-rule="evenodd"
     clip-rule="evenodd"
     fill="#FFFFFF"
     d="M12.202,26.225c0,0.04,0,0.081,0,0.12c-0.002,0-0.005,0-0.008,0  c0-0.039,0-0.08,0-0.12C12.197,26.225,12.2,26.225,12.202,26.225z"
     id="path3521" /><path
     fill-rule="evenodd"
     clip-rule="evenodd"
     fill="#FFFFFF"
     d="M18.93,26.225c0,0.04,0,0.081,0,0.12c-0.002,0-0.005,0-0.008,0  c0-0.039,0-0.08,0-0.12C18.925,26.225,18.928,26.225,18.93,26.225z"
     id="path3523" /><path
     fill-rule="evenodd"
     clip-rule="evenodd"
     fill="#FFFFFF"
     d="M5.474,26.225c0,0.04,0,0.081,0,0.12c-0.002,0-0.005,0-0.008,0  c0-0.039,0-0.08,0-0.12C5.469,26.225,5.472,26.225,5.474,26.225z"
     id="path3533" /><line
     fill="#FFFFFF"
     stroke="#444444"
     stroke-width="0.5"
     stroke-miterlimit="10"
     x1="-0.625"
     y1="63.5"
     x2="23.625"
     y2="63.5"
     id="line3535" /><path
     style="fill:#ff9955;fill-opacity:1"
     d="M 34.9375 7.8476562 C 34.806273 7.8578852 34.291213 7.9526939 33.794922 8.0566406 C 33.083547 8.2056356 32.862032 8.2259677 32.744141 8.1523438 C 32.61714 8.0730307 32.547651 8.1030975 32.28125 8.3535156 C 32.108725 8.5156891 31.879831 8.7923842 31.773438 8.96875 C 31.667045 9.1451158 31.559526 9.3080321 31.535156 9.3300781 C 31.489713 9.3711817 31.164312 10.044912 31.138672 10.150391 C 31.130828 10.18266 31.06841 10.342126 31 10.505859 C 30.843252 10.881007 30.814324 11.017554 30.771484 11.623047 C 30.742571 12.031714 30.763257 12.142153 30.896484 12.285156 C 30.98433 12.379446 31.089676 12.455078 31.128906 12.455078 C 31.16813 12.455078 31.255699 12.511558 31.324219 12.580078 C 31.392741 12.648598 31.516922 12.718075 31.601562 12.734375 C 31.686198 12.750674 31.867782 12.822188 32.003906 12.892578 C 32.14003 12.962966 32.269999 13.019378 32.292969 13.017578 C 32.315938 13.015795 32.433898 13.060466 32.554688 13.117188 C 32.828677 13.245855 33.375 13.207827 33.375 13.060547 C 33.375 13.001956 33.44606 12.869716 33.53125 12.765625 L 33.685547 12.576172 L 33.802734 12.857422 C 34.013052 13.358247 34.112934 14.605762 34.177734 17.546875 C 34.212704 19.134167 34.2457 20.445248 34.25 20.460938 C 34.254341 20.476623 34.365148 20.374553 34.496094 20.234375 C 34.656829 20.06231 34.79261 19.988349 34.916016 20.005859 C 35.107246 20.03299 35.130391 20.156297 35.015625 20.552734 C 34.969685 20.71142 34.976941 20.734396 35.056641 20.660156 C 35.219449 20.508505 35.287802 19.976714 35.382812 18.107422 C 35.464698 16.496271 35.448876 15.184516 35.328125 13.578125 C 35.270115 12.806401 35.215394 12.701603 35.013672 12.984375 C 34.743771 13.362717 34.564761 13.517886 34.488281 13.441406 C 34.35663 13.309754 34.662917 12.621148 35.007812 12.271484 C 35.319375 11.955599 35.364257 11.935666 35.761719 11.947266 C 36.151607 11.958644 36.207002 11.935961 36.462891 11.666016 C 36.615612 11.504906 36.741804 11.348279 36.742188 11.318359 C 36.74257 11.288439 36.789103 11.216463 36.845703 11.158203 C 36.939691 11.061454 37.160073 10.621165 37.478516 9.890625 C 37.665445 9.461794 37.514734 8.9513913 37.142578 8.7460938 C 36.988258 8.6609636 36.850637 8.5589714 36.835938 8.5195312 C 36.82124 8.4800924 36.760482 8.4472656 36.701172 8.4472656 C 36.641859 8.4472656 36.538223 8.3917416 36.470703 8.3242188 C 36.304147 8.1576628 35.233108 7.8246142 34.9375 7.8476562 z M 36.878906 26.017578 C 36.675144 25.978337 36.624003 26.214263 36.738281 26.660156 C 36.794031 26.877566 36.820615 27.075869 36.796875 27.099609 C 36.773139 27.123344 36.642707 27.075774 36.507812 26.996094 C 36.321349 26.885954 36.240822 26.874412 36.169922 26.945312 C 36.050164 27.06507 36.059466 27.343272 36.228516 28.552734 C 36.364395 29.52489 36.365501 29.542325 36.207031 29.755859 C 36.116843 29.877384 35.916279 30.005215 35.751953 30.046875 C 35.220748 30.18154 35.446839 30.253291 36.402344 30.253906 C 37.911612 30.254876 38.590987 30.413483 39.298828 30.933594 C 39.657168 31.196892 39.897478 31.194039 40.021484 30.921875 C 40.100234 30.749041 40.096139 30.685983 40.005859 30.595703 C 39.916014 30.505853 39.853689 30.502578 39.683594 30.580078 C 39.453884 30.68474 39.226562 30.57994 39.226562 30.367188 C 39.226562 30.230797 38.903656 29.924596 38.816406 29.978516 C 38.732016 30.030672 38.265625 29.790772 38.265625 29.695312 C 38.265625 29.655502 38.217976 29.575838 38.160156 29.517578 C 38.037123 29.393596 37.732147 28.763488 37.583984 28.328125 C 37.57648 28.30608 37.530519 28.190835 37.480469 28.070312 C 37.430417 27.94979 37.347948 27.534965 37.298828 27.148438 C 37.199576 26.367356 37.08476 26.057218 36.878906 26.017578 z M 30.699219 33.330078 C 30.605536 33.354973 30.315704 33.423292 30.054688 33.482422 C 29.737906 33.554183 29.541644 33.648005 29.464844 33.763672 C 29.399211 33.862521 29.324382 34.273665 29.289062 34.720703 C 29.214578 35.663548 29.062233 36.077904 28.765625 36.152344 C 28.517439 36.214635 28.252962 35.995749 27.832031 35.378906 C 27.395583 34.739324 26.975024 34.637282 27.080078 35.197266 C 27.108684 35.349747 27.193018 35.574701 27.267578 35.697266 C 27.456667 36.008101 27.987114 36.585938 28.083984 36.585938 C 28.128194 36.585937 28.164062 36.612694 28.164062 36.646484 C 28.164063 36.834894 29.612826 37.516848 30.248047 37.626953 C 30.766276 37.716773 30.840366 37.715936 31.267578 37.628906 C 31.904531 37.49914 32.476379 37.479071 35.78125 37.462891 C 38.092859 37.451571 38.796371 37.428 38.386719 37.375 C 35.668157 37.023284 34.770086 36.886218 34.216797 36.742188 C 32.46695 36.286675 31.723475 35.646962 31.361328 34.283203 C 31.16634 33.548925 30.964658 33.259538 30.699219 33.330078 z "
     transform="translate(-22.5,0)"
     id="path3750" /><path
     style="fill:#ff9955;fill-opacity:1"
     d=""
     id="path3758"
     inkscape:connector-curvature="0"
     transform="translate(-22.5,0)" /><path
     style="fill:#ff9955;fill-opacity:1"
     d="m 40.967399,34.678822 c -0.425289,-0.443907 -0.982635,-2.171885 -0.917883,-2.845777 0.04868,-0.506585 0.166707,-0.59067 0.580877,-0.413822 0.333636,0.142461 1.102845,1.00738 0.99123,1.114566 -0.06173,0.05928 -0.35702,0.07209 -0.510183,0.02213 -0.08818,-0.02876 -0.268101,-0.07092 -0.399817,-0.09367 l -0.239485,-0.04137 0.216909,0.178516 c 0.119299,0.09818 0.255269,0.283082 0.302154,0.410885 0.09452,0.257657 0.08421,0.837905 -0.01599,0.899832 -0.03531,0.02182 -0.06419,0.111474 -0.06419,0.199233 0,0.124022 0.103629,0.05561 0.465265,-0.307152 0.255896,-0.256692 0.535476,-0.473284 0.621289,-0.481316 0.08581,-0.008 0.282285,-0.03514 0.436605,-0.06025 0.15432,-0.0251 0.349744,-0.0538 0.434275,-0.06377 0.294929,-0.03478 0.214718,-0.211955 -0.188446,-0.416254 -0.223389,-0.113199 -0.406183,-0.232265 -0.406209,-0.264591 -8.9e-5,-0.112094 0.801369,-0.02797 1.663498,0.174606 0.07716,0.01813 0.239496,0.07135 0.360748,0.118265 0.121251,0.04691 0.22101,0.05914 0.221685,0.02716 0.0014,-0.068 0.156059,0.158721 0.157877,0.231497 6.73e-4,0.02703 -0.325608,0.186195 -0.725074,0.353708 -0.907355,0.380492 -1.420297,0.702069 -1.51432,0.94937 -0.08577,0.225599 -0.670923,0.531691 -1.016424,0.531691 -0.158261,0 -0.313359,-0.07628 -0.454394,-0.223494 z"
     id="path3760"
     inkscape:connector-curvature="0"
     transform="translate(-22.5,0)" /><path
     style="fill:#ff9955;fill-opacity:1"
     d="m 44.45469,38.588598 c -0.145327,-0.0886 -0.325701,-0.170681 -0.400831,-0.182393 -0.07513,-0.01171 -0.181693,-0.04944 -0.236808,-0.08383 -0.05511,-0.03439 -0.13379,-0.04178 -0.174835,-0.01641 -0.04104,0.02537 -0.09694,0.01001 -0.124222,-0.03413 -0.02728,-0.04414 -0.128976,-0.07866 -0.225996,-0.07671 -0.09702,0.0019 -0.351142,-0.03422 -0.564713,-0.08038 -0.365443,-0.07897 -0.891256,-0.129002 -2.153831,-0.204928 -0.574503,-0.03455 -0.864924,-0.140454 -0.864924,-0.315404 0,-0.05944 0.08117,-0.133606 0.180374,-0.164806 0.09921,-0.0312 1.352806,-0.08734 2.785778,-0.124757 1.933407,-0.05048 2.874203,-0.109744 3.647565,-0.229759 1.710022,-0.265374 2.761951,-0.640003 3.003009,-1.069479 0.107705,-0.19189 0.10421,-0.226159 -0.03952,-0.387388 -0.25285,-0.283642 -0.638922,-0.400501 -1.574334,-0.476529 -1.31578,-0.106944 -1.822168,-0.38852 -2.261524,-1.25752 -0.248847,-0.492194 -0.163152,-0.638711 0.391368,-0.669144 0.417378,-0.02291 0.436537,-0.0097 0.425122,0.293999 -0.0083,0.219702 0.03616,0.326882 0.182815,0.441164 0.15756,0.122774 0.765934,0.353553 1.155721,0.438407 0.388534,0.08458 0.617825,0.121981 0.961995,0.156912 0.642449,0.0652 1.13808,0.265828 1.488517,0.602527 0.298439,0.286741 0.572763,0.449916 0.996637,0.592828 0.133383,0.04497 0.14012,0.06511 0.04008,0.119805 -0.06614,0.03616 -0.274282,0.09114 -0.462545,0.122173 -0.188262,0.03103 -0.393115,0.107246 -0.455229,0.16936 -0.06211,0.06211 -0.135124,0.112934 -0.162243,0.112934 -0.02712,0 -0.146939,0.09252 -0.266266,0.205592 -0.273403,0.259078 -0.874475,0.619363 -1.092909,0.655094 -0.09142,0.01495 -0.325544,0.03485 -0.520283,0.04421 -0.370105,0.01779 -0.52913,0.176321 -0.273884,0.273032 0.08083,0.03063 0.192051,0.100217 0.247166,0.154649 0.257095,0.253913 0.04856,0.331105 -1.062203,0.393195 -0.634482,0.03547 -1.023377,0.07861 -1.062203,0.117845 -0.02188,0.02211 -0.13857,0.05456 -0.252956,0.07036 -0.03992,0.0055 -0.223707,0.136283 -0.408416,0.290603 -0.387831,0.324023 -0.503053,0.33985 -0.865479,0.118883 z"
     id="path3762"
     inkscape:connector-curvature="0"
     transform="translate(-22.5,0)" /><path
     style="fill:#ff9955;fill-opacity:1"
     d="m 34.854826,34.545211 c -0.534998,-0.534998 0.109705,-1.710478 1.09931,-2.004359 0.736603,-0.218748 1.307725,-0.117259 1.399576,0.248707 0.06506,0.259234 -0.234025,0.837266 -0.660019,1.275581 -0.640656,0.659187 -1.448776,0.870162 -1.838867,0.480071 z"
     id="path3764"
     inkscape:connector-curvature="0"
     transform="translate(-22.5,0)" /><path
     style="fill:#ff9955;fill-opacity:1"
     d="m 29.848078,33.073222 c 0,-0.132504 0.63957,-0.660715 1.395159,-1.15224 0.871015,-0.566612 2.71524,-1.507977 2.954271,-1.507977 0.158826,0 0.154559,0.01602 -0.06558,0.246211 -0.724398,0.75749 -4.283853,2.763288 -4.283853,2.414006 z"
     id="path3766"
     inkscape:connector-curvature="0"
     transform="translate(-22.5,0)" /><path
     style="fill:#ff9955;fill-opacity:1"
     d="m 24.316606,30.977134 c 0,-0.178594 0.62873,-0.950053 0.781621,-0.959058 0.05511,-0.0032 0.100208,-0.04411 0.100208,-0.0908 0,-0.04669 0.02751,-0.0679 0.06113,-0.04712 0.03362,0.02078 0.146129,-0.0077 0.250016,-0.06331 0.131779,-0.07053 0.297268,-0.08084 0.547376,-0.03411 0.223381,0.04173 0.416183,0.0361 0.511565,-0.01495 0.08419,-0.04506 0.153072,-0.05847 0.153072,-0.0298 0,0.09919 0.44183,-0.231318 0.667208,-0.499105 0.333774,-0.396579 0.582871,-0.365955 1.045397,0.128523 0.204445,0.218568 0.371718,0.432066 0.371718,0.474441 0,0.04237 0.0219,0.134106 0.04866,0.20385 0.104742,0.272952 -0.206535,0.111909 -0.529658,-0.274026 -0.430875,-0.514633 -0.577142,-0.51376 -1.085258,0.0065 -0.528789,0.541402 -0.880354,0.715021 -1.447862,0.715021 -0.419625,0 -0.482362,0.02505 -0.803065,0.320665 -0.380386,0.350628 -0.672128,0.421508 -0.672128,0.163298 z"
     id="path3768"
     inkscape:connector-curvature="0"
     transform="translate(-22.5,0)" /><path
     style="fill:#ff9955;fill-opacity:1"
     d="m 18.101508,35.376344 c -0.08411,-0.265007 0.02442,-0.656807 0.249047,-0.899055 0.113677,-0.122596 0.553447,-0.391623 0.977267,-0.597839 0.791046,-0.384895 0.86905,-0.451176 2.214602,-1.881779 0.293374,-0.311918 0.486478,-0.462651 0.50928,-0.397532 0.06483,0.185154 -0.540632,0.995596 -1.333372,1.784777 -0.581675,0.579064 -0.869147,0.803867 -1.171625,0.916212 -0.571063,0.212101 -0.795431,0.387943 -1.075238,0.842688 -0.13531,0.219906 -0.261958,0.39983 -0.28144,0.39983 -0.01948,0 -0.05932,-0.07529 -0.08852,-0.167302 z"
     id="path3770"
     inkscape:connector-curvature="0"
     transform="translate(-22.5,0)" /><path
     style="fill:#ff9955;fill-opacity:1"
     d="m 23.95759,41.478753 c -0.0263,-0.04255 0.226697,-0.231943 0.562209,-0.420873 1.745575,-0.982951 1.668721,-0.849516 1.649572,-2.864007 -0.0086,-0.902279 0.01615,-1.608066 0.05635,-1.608066 0.15309,0 0.503882,0.411811 0.729751,0.856687 0.31625,0.622891 0.384944,1.173013 0.211632,1.694806 -0.128222,0.386042 -0.604726,1.107605 -0.817633,1.238133 -0.05553,0.03404 -0.154273,0.115209 -0.219438,0.180374 -0.06516,0.06516 -0.157132,0.11848 -0.204373,0.11848 -0.04724,0 -0.08589,0.03608 -0.08589,0.08017 0,0.04409 -0.04225,0.08017 -0.0939,0.08017 -0.05164,0 -0.150848,0.04877 -0.220457,0.10839 -0.134813,0.115456 -1.30283,0.613106 -1.439001,0.613106 -0.04455,0 -0.102524,-0.03481 -0.128821,-0.07736 z"
     id="path3772"
     inkscape:connector-curvature="0"
     transform="translate(-22.5,0)" /><path
     style="fill:#ff9955;fill-opacity:1"
     d="m 23.065455,38.235781 c -0.06793,-0.177026 0.598348,-1.111262 0.905201,-1.269244 0.515311,-0.265306 0.826947,-0.148269 0.826947,0.310566 0,0.499585 -0.542144,0.923571 -1.305651,1.021091 -0.288109,0.0368 -0.394395,0.02125 -0.426497,-0.06241 z"
     id="path3774"
     inkscape:connector-curvature="0"
     transform="translate(-22.5,0)" /><path
     style="fill:#ff9955;fill-opacity:1"
     d="m 21.924664,41.45693 c -0.0357,-0.03569 -0.149085,-0.08111 -0.251978,-0.100928 -0.102892,-0.01981 -0.316693,-0.119073 -0.475112,-0.220573 -0.539343,-0.34556 -0.608695,-0.385629 -0.748991,-0.432736 -0.07716,-0.02591 -0.140291,-0.07654 -0.140291,-0.11252 0,-0.03598 -0.06313,-0.08606 -0.140291,-0.111286 -0.193534,-0.06328 -1.035414,-0.87692 -1.457906,-1.409 -0.368374,-0.463925 -0.641754,-0.983805 -0.644698,-1.226007 -0.0028,-0.227216 0.214681,-0.03641 0.896922,0.787061 0.759267,0.916439 1.674028,1.766293 2.277594,2.115985 0.797123,0.461836 1.072536,0.648052 1.072536,0.725179 0,0.08857 -0.295602,0.07701 -0.387785,-0.01517 z"
     id="path3776"
     inkscape:connector-curvature="0"
     transform="translate(-22.5,0)" /><path
     style="fill:#ff9955;fill-opacity:1"
     d="m 41.842754,21.289935 c -0.02885,-0.04668 -0.05849,-0.368965 -0.06588,-0.716193 -0.01671,-0.785842 0.192765,-1.297473 0.612842,-1.496812 0.335303,-0.159112 0.395472,-0.158868 0.736539,0.003 0.37306,0.177028 0.670754,0.697158 0.670754,1.171938 0,0.314179 -0.03677,0.397555 -0.257025,0.582892 -0.23937,0.201416 -0.293058,0.212889 -0.781621,0.167029 -0.549813,-0.05161 -0.646175,-0.02416 -0.780895,0.222452 -0.05047,0.09238 -0.102538,0.11778 -0.134715,0.06572 z"
     id="path3778"
     inkscape:connector-curvature="0"
     transform="translate(-22.5,0)" /><path
     style="fill:#ff9955;fill-opacity:1"
     d="m 45.265186,21.02177 c 0.02569,-0.103749 0.121663,-0.71172 0.213272,-1.351046 0.09161,-0.639326 0.184418,-1.212439 0.206244,-1.273585 0.07833,-0.219456 1.242056,0.0662 1.860081,0.456591 0.272851,0.172353 0.225056,0.437305 -0.138067,0.765365 -0.344577,0.311305 -1.272262,1.000523 -1.836771,1.364619 l -0.35147,0.226691 0.04671,-0.188635 z"
     id="path3780"
     inkscape:connector-curvature="0"
     transform="translate(-22.5,0)" /><path
     style="fill:#ff9955;fill-opacity:1"
     d="m 44.28254,17.280835 c -0.334785,-0.279491 -0.305885,-0.463321 0.153608,-0.977094 0.177449,-0.198412 0.322685,-0.380128 0.322746,-0.403813 6.1e-5,-0.02369 0.07089,-0.0484 0.157397,-0.05491 0.133733,-0.01007 0.150952,0.02639 0.114989,0.24348 -0.138997,0.839066 -0.2945,1.41774 -0.380979,1.41774 -0.05377,0 -0.219265,-0.10143 -0.367761,-0.2254 z"
     id="path3782"
     inkscape:connector-curvature="0"
     transform="translate(-22.5,0)" /><path
     style="fill:#ff9955;fill-opacity:1"
     d="m 49.729314,15.671036 c -0.513675,-0.166697 -2.244895,-1.024213 -2.244147,-1.111581 2.8e-4,-0.0327 0.397103,-0.216051 0.881829,-0.407445 0.484726,-0.191394 0.88132,-0.382916 0.88132,-0.425604 0,-0.04269 0.03607,-0.05532 0.08017,-0.02807 0.04409,0.02725 0.08017,0.0092 0.08017,-0.04008 0,-0.0493 0.0308,-0.07059 0.06844,-0.04733 0.101332,0.06263 0.743608,-0.367674 0.995339,-0.66684 0.120385,-0.143069 0.218882,-0.334268 0.218882,-0.424887 0,-0.296195 0.314076,-0.687274 0.703252,-0.875671 0.438284,-0.21217 0.614406,-0.236376 0.928133,-0.127563 l 0.228476,0.07924 -0.03957,0.690817 c -0.0406,0.708865 -0.049,0.75574 -0.245746,1.372231 l -0.115129,0.360748 -0.06756,-0.440914 c -0.03716,-0.242503 -0.05899,-0.495027 -0.04852,-0.561164 0.03339,-0.210809 -0.06945,-0.664948 -0.133981,-0.591648 -0.06445,0.07321 -0.432742,1.043255 -0.457212,1.204236 -0.0123,0.08093 -0.276268,0.410989 -0.574474,0.718303 -0.07085,0.07301 -0.263451,0.09704 -0.618222,0.07713 -0.37003,-0.02077 -0.541302,0.0024 -0.607497,0.08215 -0.249344,0.300441 0.319186,1.034143 0.927798,1.197346 l 0.400831,0.107485 -0.400831,0.0011 c -0.220458,6.01e-4 -0.599243,-0.06329 -0.841746,-0.141986 z"
     id="path3784"
     inkscape:connector-curvature="0"
     transform="translate(-22.5,0)" /><path
     style="fill:#ff9955;fill-opacity:1"
     d="m 42.239494,23.472896 c -0.186853,-0.186853 -0.152667,-0.28358 0.06515,-0.184336 0.240311,0.109493 0.811375,-0.0037 1.655617,-0.328126 1.111364,-0.427095 1.710142,-0.29511 0.821551,0.18109 -0.76154,0.408112 -2.269082,0.604609 -2.542318,0.331372 z"
     id="path3788"
     inkscape:connector-curvature="0"
     transform="translate(-22.5,0)" /><path
     style="fill:#ff9955;fill-opacity:1"
     d="m 38.128863,27.345762 c -0.169856,-0.225925 -0.241501,-0.671684 -0.152309,-0.947634 0.07515,-0.232499 0.17967,-0.318618 0.689814,-0.568357 0.592611,-0.29011 1.202494,-0.494726 1.202494,-0.403436 0,0.02572 -0.171355,0.213176 -0.380789,0.416575 -0.517446,0.502534 -0.677222,0.697601 -0.936172,1.14295 -0.25667,0.441428 -0.320755,0.495949 -0.423038,0.359902 z"
     id="path3790"
     inkscape:connector-curvature="0"
     transform="translate(-22.5,0)" /><path
     style="fill:#ff9955;fill-opacity:1"
     d="m 34.546382,22.991068 c -0.02676,-0.06974 -0.04866,-0.262564 -0.04866,-0.42849 0,-0.319006 0.157058,-0.526281 0.440915,-0.581889 0.128634,-0.0252 0.157086,-0.08814 0.143912,-0.31837 -0.01915,-0.334689 0.200289,-0.589232 0.609031,-0.706458 0.197118,-0.05653 0.267533,-0.04781 0.300145,0.03717 0.06193,0.161378 -0.5921,1.605397 -0.854197,1.885973 -0.243469,0.260634 -0.514423,0.311998 -0.591146,0.112061 z"
     id="path3792"
     inkscape:connector-curvature="0"
     transform="translate(-22.5,0)" /><path
     style="fill:#ff9955;fill-opacity:1"
     d="m 36.662212,20.435683 c 0,-0.226173 1.151832,-0.760565 2.077585,-0.963895 0.673507,-0.147927 -0.212113,0.414788 -1.369762,0.870334 -0.615665,0.242271 -0.707823,0.254452 -0.707823,0.09356 z"
     id="path3794"
     inkscape:connector-curvature="0"
     transform="translate(-22.5,0)" /><path
     style="fill:#ff9955;fill-opacity:1"
     d="m 46.489466,22.382959 c -0.0057,-0.0057 -0.120219,-0.01998 -0.254386,-0.03163 -0.404499,-0.03512 -0.438379,-0.08219 -0.184128,-0.255817 0.10247,-0.06997 0.578124,-0.332663 1.010175,-0.557884 0.84711,-0.441587 1.675353,-1.012444 2.097142,-1.445432 0.08421,-0.08645 0.231457,-0.273887 0.327214,-0.416534 0.341014,-0.508001 0.676111,-0.87657 1.686564,-1.855028 0.449846,-0.435602 0.617456,-0.70682 0.671957,-1.087323 0.02319,-0.161903 0.02146,-0.195134 -0.02239,-0.430894 -0.05705,-0.306689 -0.06183,-0.596537 -0.01299,-0.786563 0.07956,-0.309542 0.258686,-0.58588 0.508377,-0.784301 0.393742,-0.312892 0.574542,-0.310867 0.881182,0.0099 0.371272,0.388341 0.7342,0.985355 0.820063,1.348999 0.0318,0.134701 0.03182,0.152195 2.62e-4,0.280079 -0.0521,0.211126 -0.176002,0.409368 -0.386031,0.617649 -0.201977,0.200296 -0.237537,0.231236 -0.265766,0.231236 -0.01057,0 -0.02222,0.0069 -0.0259,0.01534 -0.0037,0.0084 -0.07053,0.04451 -0.14857,0.08017 -0.202683,0.09261 -0.334425,0.09109 -0.460719,-0.0053 -0.07802,-0.05955 -0.107557,-0.07007 -0.195579,-0.06967 -0.217198,9.96e-4 -0.479039,0.160209 -0.806851,0.490608 -0.209126,0.210776 -0.423821,0.507098 -0.52065,0.7186 -0.110493,0.241348 -0.134644,0.431331 -0.07652,0.601919 0.0204,0.05988 0.02918,0.134341 0.02367,0.200812 -0.01603,0.193335 -0.13821,0.297776 -0.378236,0.323327 -0.217886,0.0232 -0.39403,0.121549 -0.609546,0.340353 -0.174193,0.17685 -0.319538,0.398217 -0.462412,0.704274 -0.26663,0.571156 -0.624211,0.9216 -1.026905,1.006409 -0.131996,0.0278 -0.484133,0.0291 -0.625391,0.0023 -0.132782,-0.02518 -0.23426,-1.6e-4 -0.303572,0.07485 -0.06065,0.06563 -0.07443,0.09988 -0.09828,0.244211 -0.02723,0.164765 -0.162741,0.280367 -0.400069,0.341282 -0.04942,0.01268 -0.10338,0.02821 -0.119914,0.0345 -0.01653,0.0063 -0.05261,0.01387 -0.08017,0.01685 -0.02756,0.003 -0.0952,0.01031 -0.150312,0.0163 -0.233966,0.02541 -0.401583,0.03619 -0.411328,0.02644 z"
     id="path3798"
     inkscape:connector-curvature="0"
     transform="translate(-22.5,0)" /><path
     style="fill:#ff9955;fill-opacity:1"
     d="m 39.261095,18.512987 c 0,-0.348194 1.098015,-1.189765 2.196587,-1.683568 0.717695,-0.3226 1.089548,-0.389518 1.480925,-0.266502 0.320397,0.100705 0.28352,0.121689 -0.308011,0.175265 -0.628698,0.05694 -1.259014,0.387081 -2.313138,1.211547 -0.46804,0.36607 -0.792146,0.568012 -0.953707,0.59423 -0.08386,0.01361 -0.102656,0.0079 -0.102656,-0.03097 z"
     id="path3800"
     inkscape:connector-curvature="0"
     transform="translate(-22.5,0)" /><path
     style="fill:#ff9955;fill-opacity:1"
     d="m 44.342692,23.329517 c 0.16396,-0.0572 0.260448,-0.09725 0.38696,-0.160621 0.291504,-0.146019 0.481046,-0.295994 0.481046,-0.38063 0,-0.02996 -0.02864,-0.06056 -0.06787,-0.07251 -0.01528,-0.0047 -0.06472,-0.01011 -0.109863,-0.01213 -0.208532,-0.0093 -0.554615,0.06758 -0.954705,0.212104 -0.07529,0.0272 -0.138262,0.04808 -0.139937,0.0464 -0.0082,-0.0082 0.305953,-0.123642 0.487065,-0.178993 0.252603,-0.0772 0.440833,-0.115596 0.59754,-0.121892 0.190847,-0.0077 0.24982,0.02749 0.216314,0.128948 -0.05877,0.177979 -0.365427,0.366818 -0.884812,0.544874 -0.06369,0.02184 -0.121089,0.03953 -0.127544,0.03932 -0.0065,-2.1e-4 0.04566,-0.0204 0.115809,-0.04488 z"
     id="path3802"
     inkscape:connector-curvature="0"
     transform="translate(-22.5,0)" /><path
     style="fill:#ff9955;fill-opacity:1"
     d="m 42.100714,23.247745 c -0.01364,-0.06932 -0.0041,-0.08187 0.04626,-0.06084 0.0245,0.01024 0.117836,0.07506 0.113835,0.07906 -0.0011,0.0011 -0.0175,-0.0027 -0.03645,-0.0084 -0.06036,-0.01817 -0.09096,-0.01237 -0.108194,0.0205 -0.0056,0.01064 -0.0085,0.0048 -0.01545,-0.03035 z"
     id="path3804"
     inkscape:connector-curvature="0"
     transform="translate(-22.5,0)" /><path
     style="fill:#ff9955;fill-opacity:1"
     d="m 42.557079,23.615002 c -0.164528,-0.01993 -0.297047,-0.06771 -0.355474,-0.128181 -0.02533,-0.02622 -0.06613,-0.10532 -0.06613,-0.12822 0,-0.0037 0.01386,0.01204 0.03079,0.03488 0.07095,0.09568 0.136246,0.138885 0.255324,0.168949 0.11731,0.02962 0.186201,0.03556 0.408289,0.03525 0.324633,-4.63e-4 0.60885,-0.03508 0.99437,-0.121105 0.06171,-0.01377 0.113644,-0.02358 0.115417,-0.02181 0.0055,0.0055 -0.228451,0.06056 -0.365782,0.08601 -0.147468,0.02733 -0.289276,0.0484 -0.435774,0.06475 -0.118678,0.01324 -0.49878,0.01944 -0.581033,0.0095 z"
     id="path3806"
     inkscape:connector-curvature="0"
     transform="translate(-22.5,0)" /></svg>