<?xml version="1.0" standalone="no"?>
<!DOCTYPE svg PUBLIC "-//W3C//DTD SVG 20010904//EN"
 "http://www.w3.org/TR/2001/REC-SVG-20010904/DTD/svg10.dtd">
<svg version="1.0" xmlns="http://www.w3.org/2000/svg"
 width="381.086076pt" height="335.574332pt" viewBox="0 0 381.086076 335.574332"
 preserveAspectRatio="xMidYMid meet">
<metadata>
Created by potrace 1.12, written by Peter Selinger 2001-2015
</metadata>
<g transform="translate(-31.538005,361.947168) scale(0.100000,-0.100000)"
fill="#000000" stroke="none">
<path d="M1533 3608 c-13 -16 -24 -89 -29 -188 -2 -41 -6 -85 -9 -97 -6 -28 3
-53 21 -53 17 0 22 22 28 131 6 90 19 146 29 119 15 -39 30 -185 29 -274 -2
-145 -22 -245 -84 -416 -29 -79 -173 -389 -187 -400 -3 -3 -17 -27 -31 -55
-14 -27 -28 -51 -32 -53 -5 -2 -8 -8 -8 -13 0 -9 -68 -112 -105 -159 -27 -35
-178 -180 -186 -180 -4 0 -14 -6 -21 -13 -31 -31 -128 -67 -198 -73 -116 -9
-195 19 -273 98 -21 21 -56 96 -57 119 0 9 -6 29 -14 45 -26 53 -36 173 -30
364 6 200 7 221 22 322 16 107 74 300 122 403 10 22 38 83 62 135 40 86 95
160 119 160 18 0 99 42 99 52 0 12 -65 0 -115 -22 -62 -27 -94 -68 -166 -210
-16 -30 -29 -61 -29 -67 0 -7 -4 -13 -10 -13 -5 0 -9 -3 -8 -7 0 -5 -2 -17 -6
-28 -27 -70 -39 -105 -51 -140 -27 -81 -46 -151 -51 -182 -2 -18 -11 -65 -19
-105 -38 -180 -40 -550 -3 -696 41 -160 117 -241 265 -280 106 -28 199 -18
303 33 41 19 77 39 80 43 3 4 21 19 40 32 73 50 168 160 235 275 17 28 34 58
40 67 58 96 162 303 210 418 26 63 53 129 60 145 22 51 54 198 66 302 18 160
-9 410 -49 456 -18 20 -45 22 -59 5z"/>
<path d="M3336 3055 c-9 -13 -16 -33 -16 -45 0 -11 -4 -20 -8 -20 -8 0 -36
-133 -47 -220 -13 -109 -18 -217 -18 -380 0 -246 12 -310 57 -310 38 0 43 39
16 120 -15 45 -19 200 -9 320 5 52 11 124 14 160 3 36 7 90 10 120 6 78 20
147 43 210 15 40 17 57 9 62 -21 13 -34 9 -51 -17z"/>
<path d="M1936 2642 c-14 -21 -31 -54 -37 -73 -14 -42 -50 -227 -50 -253 0
-11 -4 -26 -8 -35 -5 -9 -12 -34 -15 -56 -4 -22 -11 -55 -17 -73 -23 -69 13
-111 56 -65 28 31 41 85 50 203 10 135 35 237 56 231 8 -2 42 -6 77 -9 56 -4
70 -1 136 32 75 36 98 65 74 93 -11 14 -48 18 -48 6 0 -5 -22 -20 -49 -35 -57
-33 -115 -36 -160 -11 -30 18 -49 55 -31 61 12 4 13 22 1 22 -4 0 -20 -17 -35
-38z"/>
<path d="M3725 2557 c-27 -30 -57 -67 -65 -83 -8 -16 -23 -38 -32 -48 -10 -11
-18 -24 -18 -29 0 -5 -14 -38 -31 -73 -17 -34 -31 -78 -31 -97 0 -93 87 -128
155 -62 20 19 41 35 47 35 6 0 9 4 6 9 -8 12 60 85 72 77 6 -3 14 -21 18 -38
7 -36 120 -161 136 -152 5 3 17 -1 27 -10 10 -9 22 -16 27 -15 5 1 22 -1 37
-6 21 -5 33 -3 44 8 21 21 5 41 -43 57 -19 6 -34 16 -34 21 0 5 -7 9 -16 9 -9
0 -27 9 -41 20 -14 11 -23 20 -20 20 3 0 -5 12 -18 26 -30 33 -49 96 -41 142
4 25 0 37 -15 50 -22 19 -25 42 -4 42 8 0 19 17 25 41 13 48 -4 83 -46 99 -57
22 -85 13 -139 -43z m123 -29 c20 -20 14 -72 -13 -108 -14 -19 -25 -38 -25
-42 0 -5 -14 -23 -30 -41 -17 -18 -40 -46 -52 -64 -24 -34 -66 -63 -93 -63
-15 0 -17 6 -11 42 4 23 10 45 14 48 4 3 20 32 36 65 40 80 97 156 126 168 24
9 35 8 48 -5z"/>
<path d="M2511 2565 c-97 -30 -137 -112 -145 -295 -6 -145 -11 -166 -44 -179
-24 -9 -196 -41 -222 -41 -15 0 -12 -46 4 -59 11 -9 36 -8 108 4 108 19 149
36 183 77 21 25 25 40 25 101 1 249 22 309 125 351 40 17 57 34 49 48 -7 11
-31 9 -83 -7z"/>
<path d="M2625 2441 c-6 -11 -8 -18 -26 -96 -5 -22 -12 -84 -15 -137 l-6 -98
40 -40 c22 -23 49 -40 62 -40 34 0 113 47 135 80 21 32 50 36 50 7 0 -19 59
-77 79 -77 6 0 17 -5 23 -11 23 -23 86 42 68 71 -3 5 -23 10 -44 10 -30 0 -42
6 -55 25 -18 27 -24 109 -12 160 16 71 15 94 -3 100 -33 10 -48 -5 -66 -68
-37 -125 -82 -206 -107 -191 -5 3 -8 -1 -8 -9 0 -8 -12 -18 -27 -22 -44 -11
-70 33 -65 114 3 56 15 117 28 142 23 45 15 83 -18 87 -14 2 -29 -2 -33 -7z"/>
<path d="M1205 1335 c-79 -14 -163 -49 -172 -70 -3 -8 -11 -15 -17 -15 -24 0
-135 -111 -177 -178 -23 -37 -45 -69 -48 -72 -16 -13 -65 -130 -102 -241 -35
-105 -42 -141 -46 -233 -5 -100 -4 -111 18 -150 13 -22 30 -49 39 -58 26 -28
91 -51 155 -54 54 -2 70 2 138 36 42 21 94 51 114 66 65 47 161 151 174 188 7
20 16 36 20 36 16 0 -1 94 -21 115 -12 13 -20 27 -17 32 10 16 -19 28 -68 30
-199 5 -205 5 -230 -11 -13 -9 -31 -16 -38 -16 -8 0 -22 -9 -32 -20 -16 -17
-16 -24 -5 -44 7 -13 25 -26 40 -30 42 -8 131 5 159 22 28 19 107 21 139 3 16
-8 22 -21 22 -46 0 -20 -9 -44 -22 -61 -43 -51 -126 -134 -135 -134 -6 0 -18
-9 -28 -20 -15 -17 -60 -41 -130 -70 -72 -30 -166 -9 -203 44 -40 59 -44 88
-27 221 9 68 69 244 114 332 131 262 379 401 598 337 16 -4 25 -1 29 10 8 22
6 23 -57 46 -61 23 -86 23 -184 5z"/>
<path d="M2582 1158 c-7 -7 -12 -18 -12 -25 0 -7 -5 -13 -11 -13 -6 0 -9 -7
-5 -15 3 -8 2 -15 -3 -15 -4 0 -19 -33 -31 -72 -40 -128 -27 -430 23 -509 17
-28 50 -23 87 11 18 17 38 30 46 30 8 0 14 5 14 10 0 6 13 10 28 10 37 0 72
-37 68 -70 -5 -35 -24 -80 -34 -80 -4 0 -17 -8 -28 -18 -27 -25 -79 -42 -130
-42 -49 0 -54 10 -23 39 28 26 18 51 -19 51 -35 0 -82 -43 -82 -74 0 -30 27
-66 50 -66 10 0 21 -4 24 -9 3 -4 35 -9 72 -10 58 -2 73 2 123 30 31 18 62 39
68 48 23 29 54 100 57 128 8 71 -50 141 -119 144 -64 3 -77 0 -111 -26 -41
-32 -49 -23 -64 80 -13 84 -7 276 10 321 11 28 20 65 27 110 5 35 -7 50 -25
32z"/>
<path d="M3827 888 c-7 -3 -54 -11 -105 -17 -169 -21 -235 -69 -276 -204 -26
-87 -23 -165 10 -229 16 -31 64 -40 64 -13 0 8 4 15 8 15 5 0 9 57 9 126 0 83
5 134 13 150 19 35 124 82 219 99 45 8 87 18 94 22 6 4 24 6 39 4 32 -3 63 22
54 45 -4 11 -19 14 -61 12 -31 -2 -61 -6 -68 -10z"/>
<path d="M1688 823 c-10 -2 -18 -9 -18 -14 0 -5 -5 -9 -10 -9 -17 0 -80 -44
-80 -56 0 -6 -9 -23 -21 -38 -12 -15 -23 -44 -26 -66 -3 -22 -9 -37 -13 -35
-4 3 -1 37 7 77 21 99 21 123 3 123 -17 0 -68 -97 -68 -129 0 -12 -3 -44 -6
-72 -6 -55 16 -160 37 -180 7 -7 22 -15 34 -18 18 -6 25 -1 41 31 11 21 20 41
20 46 0 4 3 44 7 89 9 95 37 146 97 173 32 15 43 16 87 4 28 -7 51 -16 51 -21
0 -4 7 -8 15 -8 8 0 15 -4 15 -9 0 -5 11 -11 24 -13 20 -4 26 0 31 21 9 37
-38 74 -123 95 -69 16 -74 17 -104 9z"/>
<path d="M3095 803 c-24 -6 -125 -90 -125 -104 0 -6 -12 -26 -26 -45 -15 -19
-23 -34 -19 -34 4 0 3 -6 -2 -12 -21 -26 -14 -115 12 -173 22 -51 77 -114 98
-115 5 0 5 -5 1 -11 -4 -8 1 -9 16 -4 13 4 33 2 46 -6 19 -10 37 -10 90 0 37
6 72 17 79 24 7 7 23 19 36 27 65 42 100 100 67 113 -18 7 -75 -26 -70 -41 2
-7 -3 -12 -12 -12 -9 0 -24 -8 -34 -17 -27 -28 -82 -43 -131 -36 -45 6 -88 42
-119 100 -20 37 -11 46 47 50 93 5 195 96 216 192 6 27 3 37 -17 58 -43 47
-91 61 -153 46z m94 -70 l21 -18 -26 -42 c-15 -25 -35 -45 -50 -49 -13 -3 -24
-10 -24 -16 0 -14 -69 -40 -91 -33 -34 11 -20 69 27 110 61 54 77 65 99 65 12
0 32 -8 44 -17z"/>
<path d="M2093 783 c-18 -2 -33 -8 -33 -14 0 -5 -6 -9 -12 -9 -15 0 -74 -55
-103 -96 -11 -15 -24 -32 -30 -38 -29 -31 -69 -136 -73 -188 -4 -54 -3 -59 29
-88 30 -27 39 -30 74 -24 22 3 52 15 67 25 14 11 31 19 37 19 6 0 11 4 11 9 0
5 16 26 35 47 19 22 35 44 35 50 0 21 29 24 35 3 10 -31 55 -79 75 -79 10 0
22 -4 25 -10 3 -5 21 -10 38 -10 37 0 87 40 87 69 0 24 -38 34 -78 20 -21 -7
-37 -7 -50 0 -25 13 -42 83 -35 142 5 40 2 48 -17 62 -18 12 -20 19 -11 35 6
12 11 28 11 36 0 16 -50 47 -72 44 -7 0 -28 -3 -45 -5z m79 -75 c2 -13 -2 -34
-9 -48 -7 -14 -22 -47 -35 -74 -13 -27 -40 -67 -60 -89 -21 -22 -38 -43 -38
-48 0 -5 -7 -9 -15 -9 -8 0 -20 -9 -27 -20 -15 -24 -63 -27 -72 -4 -13 33 -5
65 32 131 46 86 66 110 121 151 54 39 98 43 103 10z"/>
</g>
</svg>
